G04 #@! TF.GenerationSoftware,KiCad,Pcbnew,(5.1.2-1)-1*
G04 #@! TF.CreationDate,2021-02-06T10:00:37+01:00*
G04 #@! TF.ProjectId,lir2450-charger,6c697232-3435-4302-9d63-686172676572,1.0.0*
G04 #@! TF.SameCoordinates,Original*
G04 #@! TF.FileFunction,Soldermask,Top*
G04 #@! TF.FilePolarity,Negative*
%FSLAX46Y46*%
G04 Gerber Fmt 4.6, Leading zero omitted, Abs format (unit mm)*
G04 Created by KiCad (PCBNEW (5.1.2-1)-1) date 2021-02-06 10:00:37*
%MOMM*%
%LPD*%
G04 APERTURE LIST*
%ADD10C,0.100000*%
G04 APERTURE END LIST*
D10*
G36*
X74371968Y-49503565D02*
G01*
X74410638Y-49515296D01*
X74446277Y-49534346D01*
X74477517Y-49559983D01*
X74503154Y-49591223D01*
X74522204Y-49626862D01*
X74533935Y-49665532D01*
X74538500Y-49711888D01*
X74538500Y-50788112D01*
X74533935Y-50834468D01*
X74522204Y-50873138D01*
X74503154Y-50908777D01*
X74477517Y-50940017D01*
X74446277Y-50965654D01*
X74410638Y-50984704D01*
X74371968Y-50996435D01*
X74325612Y-51001000D01*
X73674388Y-51001000D01*
X73628032Y-50996435D01*
X73589362Y-50984704D01*
X73553723Y-50965654D01*
X73522483Y-50940017D01*
X73496846Y-50908777D01*
X73477796Y-50873138D01*
X73466065Y-50834468D01*
X73461500Y-50788112D01*
X73461500Y-49711888D01*
X73466065Y-49665532D01*
X73477796Y-49626862D01*
X73496846Y-49591223D01*
X73522483Y-49559983D01*
X73553723Y-49534346D01*
X73589362Y-49515296D01*
X73628032Y-49503565D01*
X73674388Y-49499000D01*
X74325612Y-49499000D01*
X74371968Y-49503565D01*
X74371968Y-49503565D01*
G37*
G36*
X72496968Y-49503565D02*
G01*
X72535638Y-49515296D01*
X72571277Y-49534346D01*
X72602517Y-49559983D01*
X72628154Y-49591223D01*
X72647204Y-49626862D01*
X72658935Y-49665532D01*
X72663500Y-49711888D01*
X72663500Y-50788112D01*
X72658935Y-50834468D01*
X72647204Y-50873138D01*
X72628154Y-50908777D01*
X72602517Y-50940017D01*
X72571277Y-50965654D01*
X72535638Y-50984704D01*
X72496968Y-50996435D01*
X72450612Y-51001000D01*
X71799388Y-51001000D01*
X71753032Y-50996435D01*
X71714362Y-50984704D01*
X71678723Y-50965654D01*
X71647483Y-50940017D01*
X71621846Y-50908777D01*
X71602796Y-50873138D01*
X71591065Y-50834468D01*
X71586500Y-50788112D01*
X71586500Y-49711888D01*
X71591065Y-49665532D01*
X71602796Y-49626862D01*
X71621846Y-49591223D01*
X71647483Y-49559983D01*
X71678723Y-49534346D01*
X71714362Y-49515296D01*
X71753032Y-49503565D01*
X71799388Y-49499000D01*
X72450612Y-49499000D01*
X72496968Y-49503565D01*
X72496968Y-49503565D01*
G37*
G36*
X64971968Y-48953565D02*
G01*
X65010638Y-48965296D01*
X65046277Y-48984346D01*
X65077517Y-49009983D01*
X65103154Y-49041223D01*
X65122204Y-49076862D01*
X65133935Y-49115532D01*
X65138500Y-49161888D01*
X65138500Y-50238112D01*
X65133935Y-50284468D01*
X65122204Y-50323138D01*
X65103154Y-50358777D01*
X65077517Y-50390017D01*
X65046277Y-50415654D01*
X65010638Y-50434704D01*
X64971968Y-50446435D01*
X64925612Y-50451000D01*
X64274388Y-50451000D01*
X64228032Y-50446435D01*
X64189362Y-50434704D01*
X64153723Y-50415654D01*
X64122483Y-50390017D01*
X64096846Y-50358777D01*
X64077796Y-50323138D01*
X64066065Y-50284468D01*
X64061500Y-50238112D01*
X64061500Y-49161888D01*
X64066065Y-49115532D01*
X64077796Y-49076862D01*
X64096846Y-49041223D01*
X64122483Y-49009983D01*
X64153723Y-48984346D01*
X64189362Y-48965296D01*
X64228032Y-48953565D01*
X64274388Y-48949000D01*
X64925612Y-48949000D01*
X64971968Y-48953565D01*
X64971968Y-48953565D01*
G37*
G36*
X63096968Y-48953565D02*
G01*
X63135638Y-48965296D01*
X63171277Y-48984346D01*
X63202517Y-49009983D01*
X63228154Y-49041223D01*
X63247204Y-49076862D01*
X63258935Y-49115532D01*
X63263500Y-49161888D01*
X63263500Y-50238112D01*
X63258935Y-50284468D01*
X63247204Y-50323138D01*
X63228154Y-50358777D01*
X63202517Y-50390017D01*
X63171277Y-50415654D01*
X63135638Y-50434704D01*
X63096968Y-50446435D01*
X63050612Y-50451000D01*
X62399388Y-50451000D01*
X62353032Y-50446435D01*
X62314362Y-50434704D01*
X62278723Y-50415654D01*
X62247483Y-50390017D01*
X62221846Y-50358777D01*
X62202796Y-50323138D01*
X62191065Y-50284468D01*
X62186500Y-50238112D01*
X62186500Y-49161888D01*
X62191065Y-49115532D01*
X62202796Y-49076862D01*
X62221846Y-49041223D01*
X62247483Y-49009983D01*
X62278723Y-48984346D01*
X62314362Y-48965296D01*
X62353032Y-48953565D01*
X62399388Y-48949000D01*
X63050612Y-48949000D01*
X63096968Y-48953565D01*
X63096968Y-48953565D01*
G37*
G36*
X87607495Y-48779586D02*
G01*
X87710859Y-48810941D01*
X87806119Y-48861859D01*
X87889616Y-48930383D01*
X87958140Y-49013880D01*
X88009058Y-49109140D01*
X88040413Y-49212504D01*
X88051000Y-49319999D01*
X88051000Y-49320001D01*
X88040413Y-49427496D01*
X88009058Y-49530860D01*
X87958140Y-49626120D01*
X87889616Y-49709617D01*
X87806119Y-49778141D01*
X87710859Y-49829059D01*
X87607495Y-49860414D01*
X87500000Y-49871001D01*
X86900000Y-49871001D01*
X86792505Y-49860414D01*
X86689141Y-49829059D01*
X86593881Y-49778141D01*
X86510384Y-49709617D01*
X86441860Y-49626120D01*
X86390942Y-49530860D01*
X86359587Y-49427496D01*
X86349000Y-49320001D01*
X86349000Y-49319999D01*
X86359587Y-49212504D01*
X86390942Y-49109140D01*
X86441860Y-49013880D01*
X86510384Y-48930383D01*
X86593881Y-48861859D01*
X86689141Y-48810941D01*
X86792505Y-48779586D01*
X86900000Y-48768999D01*
X87500000Y-48768999D01*
X87607495Y-48779586D01*
X87607495Y-48779586D01*
G37*
G36*
X91407495Y-48779586D02*
G01*
X91510859Y-48810941D01*
X91606119Y-48861859D01*
X91689616Y-48930383D01*
X91758140Y-49013880D01*
X91809058Y-49109140D01*
X91840413Y-49212504D01*
X91851000Y-49319999D01*
X91851000Y-49320001D01*
X91840413Y-49427496D01*
X91809058Y-49530860D01*
X91758140Y-49626120D01*
X91689616Y-49709617D01*
X91606119Y-49778141D01*
X91510859Y-49829059D01*
X91407495Y-49860414D01*
X91300000Y-49871001D01*
X90700000Y-49871001D01*
X90592505Y-49860414D01*
X90489141Y-49829059D01*
X90393881Y-49778141D01*
X90310384Y-49709617D01*
X90241860Y-49626120D01*
X90190942Y-49530860D01*
X90159587Y-49427496D01*
X90149000Y-49320001D01*
X90149000Y-49319999D01*
X90159587Y-49212504D01*
X90190942Y-49109140D01*
X90241860Y-49013880D01*
X90310384Y-48930383D01*
X90393881Y-48861859D01*
X90489141Y-48810941D01*
X90592505Y-48779586D01*
X90700000Y-48768999D01*
X91300000Y-48768999D01*
X91407495Y-48779586D01*
X91407495Y-48779586D01*
G37*
G36*
X59681000Y-49576000D02*
G01*
X58519000Y-49576000D01*
X58519000Y-46924000D01*
X59681000Y-46924000D01*
X59681000Y-49576000D01*
X59681000Y-49576000D01*
G37*
G36*
X57481000Y-49576000D02*
G01*
X56319000Y-49576000D01*
X56319000Y-48824000D01*
X57481000Y-48824000D01*
X57481000Y-49576000D01*
X57481000Y-49576000D01*
G37*
G36*
X82084468Y-48066065D02*
G01*
X82123138Y-48077796D01*
X82158777Y-48096846D01*
X82190017Y-48122483D01*
X82215654Y-48153723D01*
X82234704Y-48189362D01*
X82246435Y-48228032D01*
X82251000Y-48274388D01*
X82251000Y-48925612D01*
X82246435Y-48971968D01*
X82234704Y-49010638D01*
X82215654Y-49046277D01*
X82190017Y-49077517D01*
X82158777Y-49103154D01*
X82123138Y-49122204D01*
X82084468Y-49133935D01*
X82038112Y-49138500D01*
X80961888Y-49138500D01*
X80915532Y-49133935D01*
X80876862Y-49122204D01*
X80841223Y-49103154D01*
X80809983Y-49077517D01*
X80784346Y-49046277D01*
X80765296Y-49010638D01*
X80753565Y-48971968D01*
X80749000Y-48925612D01*
X80749000Y-48274388D01*
X80753565Y-48228032D01*
X80765296Y-48189362D01*
X80784346Y-48153723D01*
X80809983Y-48122483D01*
X80841223Y-48096846D01*
X80876862Y-48077796D01*
X80915532Y-48066065D01*
X80961888Y-48061500D01*
X82038112Y-48061500D01*
X82084468Y-48066065D01*
X82084468Y-48066065D01*
G37*
G36*
X87851000Y-48201000D02*
G01*
X86549000Y-48201000D01*
X86549000Y-47299000D01*
X87851000Y-47299000D01*
X87851000Y-48201000D01*
X87851000Y-48201000D01*
G37*
G36*
X57481000Y-47676000D02*
G01*
X56319000Y-47676000D01*
X56319000Y-46924000D01*
X57481000Y-46924000D01*
X57481000Y-47676000D01*
X57481000Y-47676000D01*
G37*
G36*
X82084468Y-46191065D02*
G01*
X82123138Y-46202796D01*
X82158777Y-46221846D01*
X82190017Y-46247483D01*
X82215654Y-46278723D01*
X82234704Y-46314362D01*
X82246435Y-46353032D01*
X82251000Y-46399388D01*
X82251000Y-47050612D01*
X82246435Y-47096968D01*
X82234704Y-47135638D01*
X82215654Y-47171277D01*
X82190017Y-47202517D01*
X82158777Y-47228154D01*
X82123138Y-47247204D01*
X82084468Y-47258935D01*
X82038112Y-47263500D01*
X80961888Y-47263500D01*
X80915532Y-47258935D01*
X80876862Y-47247204D01*
X80841223Y-47228154D01*
X80809983Y-47202517D01*
X80784346Y-47171277D01*
X80765296Y-47135638D01*
X80753565Y-47096968D01*
X80749000Y-47050612D01*
X80749000Y-46399388D01*
X80753565Y-46353032D01*
X80765296Y-46314362D01*
X80784346Y-46278723D01*
X80809983Y-46247483D01*
X80841223Y-46221846D01*
X80876862Y-46202796D01*
X80915532Y-46191065D01*
X80961888Y-46186500D01*
X82038112Y-46186500D01*
X82084468Y-46191065D01*
X82084468Y-46191065D01*
G37*
G36*
X87851000Y-46971000D02*
G01*
X86549000Y-46971000D01*
X86549000Y-43029000D01*
X87851000Y-43029000D01*
X87851000Y-46971000D01*
X87851000Y-46971000D01*
G37*
G36*
X72596968Y-44153565D02*
G01*
X72635638Y-44165296D01*
X72671277Y-44184346D01*
X72702517Y-44209983D01*
X72728154Y-44241223D01*
X72747204Y-44276862D01*
X72758935Y-44315532D01*
X72763500Y-44361888D01*
X72763500Y-45438112D01*
X72758935Y-45484468D01*
X72747204Y-45523138D01*
X72728154Y-45558777D01*
X72702517Y-45590017D01*
X72671277Y-45615654D01*
X72635638Y-45634704D01*
X72596968Y-45646435D01*
X72550612Y-45651000D01*
X71899388Y-45651000D01*
X71853032Y-45646435D01*
X71814362Y-45634704D01*
X71778723Y-45615654D01*
X71747483Y-45590017D01*
X71721846Y-45558777D01*
X71702796Y-45523138D01*
X71691065Y-45484468D01*
X71686500Y-45438112D01*
X71686500Y-44361888D01*
X71691065Y-44315532D01*
X71702796Y-44276862D01*
X71721846Y-44241223D01*
X71747483Y-44209983D01*
X71778723Y-44184346D01*
X71814362Y-44165296D01*
X71853032Y-44153565D01*
X71899388Y-44149000D01*
X72550612Y-44149000D01*
X72596968Y-44153565D01*
X72596968Y-44153565D01*
G37*
G36*
X74471968Y-44153565D02*
G01*
X74510638Y-44165296D01*
X74546277Y-44184346D01*
X74577517Y-44209983D01*
X74603154Y-44241223D01*
X74622204Y-44276862D01*
X74633935Y-44315532D01*
X74638500Y-44361888D01*
X74638500Y-45438112D01*
X74633935Y-45484468D01*
X74622204Y-45523138D01*
X74603154Y-45558777D01*
X74577517Y-45590017D01*
X74546277Y-45615654D01*
X74510638Y-45634704D01*
X74471968Y-45646435D01*
X74425612Y-45651000D01*
X73774388Y-45651000D01*
X73728032Y-45646435D01*
X73689362Y-45634704D01*
X73653723Y-45615654D01*
X73622483Y-45590017D01*
X73596846Y-45558777D01*
X73577796Y-45523138D01*
X73566065Y-45484468D01*
X73561500Y-45438112D01*
X73561500Y-44361888D01*
X73566065Y-44315532D01*
X73577796Y-44276862D01*
X73596846Y-44241223D01*
X73622483Y-44209983D01*
X73653723Y-44184346D01*
X73689362Y-44165296D01*
X73728032Y-44153565D01*
X73774388Y-44149000D01*
X74425612Y-44149000D01*
X74471968Y-44153565D01*
X74471968Y-44153565D01*
G37*
G36*
X64871968Y-43953565D02*
G01*
X64910638Y-43965296D01*
X64946277Y-43984346D01*
X64977517Y-44009983D01*
X65003154Y-44041223D01*
X65022204Y-44076862D01*
X65033935Y-44115532D01*
X65038500Y-44161888D01*
X65038500Y-45238112D01*
X65033935Y-45284468D01*
X65022204Y-45323138D01*
X65003154Y-45358777D01*
X64977517Y-45390017D01*
X64946277Y-45415654D01*
X64910638Y-45434704D01*
X64871968Y-45446435D01*
X64825612Y-45451000D01*
X64174388Y-45451000D01*
X64128032Y-45446435D01*
X64089362Y-45434704D01*
X64053723Y-45415654D01*
X64022483Y-45390017D01*
X63996846Y-45358777D01*
X63977796Y-45323138D01*
X63966065Y-45284468D01*
X63961500Y-45238112D01*
X63961500Y-44161888D01*
X63966065Y-44115532D01*
X63977796Y-44076862D01*
X63996846Y-44041223D01*
X64022483Y-44009983D01*
X64053723Y-43984346D01*
X64089362Y-43965296D01*
X64128032Y-43953565D01*
X64174388Y-43949000D01*
X64825612Y-43949000D01*
X64871968Y-43953565D01*
X64871968Y-43953565D01*
G37*
G36*
X62996968Y-43953565D02*
G01*
X63035638Y-43965296D01*
X63071277Y-43984346D01*
X63102517Y-44009983D01*
X63128154Y-44041223D01*
X63147204Y-44076862D01*
X63158935Y-44115532D01*
X63163500Y-44161888D01*
X63163500Y-45238112D01*
X63158935Y-45284468D01*
X63147204Y-45323138D01*
X63128154Y-45358777D01*
X63102517Y-45390017D01*
X63071277Y-45415654D01*
X63035638Y-45434704D01*
X62996968Y-45446435D01*
X62950612Y-45451000D01*
X62299388Y-45451000D01*
X62253032Y-45446435D01*
X62214362Y-45434704D01*
X62178723Y-45415654D01*
X62147483Y-45390017D01*
X62121846Y-45358777D01*
X62102796Y-45323138D01*
X62091065Y-45284468D01*
X62086500Y-45238112D01*
X62086500Y-44161888D01*
X62091065Y-44115532D01*
X62102796Y-44076862D01*
X62121846Y-44041223D01*
X62147483Y-44009983D01*
X62178723Y-43984346D01*
X62214362Y-43965296D01*
X62253032Y-43953565D01*
X62299388Y-43949000D01*
X62950612Y-43949000D01*
X62996968Y-43953565D01*
X62996968Y-43953565D01*
G37*
G36*
X82084468Y-42466065D02*
G01*
X82123138Y-42477796D01*
X82158777Y-42496846D01*
X82190017Y-42522483D01*
X82215654Y-42553723D01*
X82234704Y-42589362D01*
X82246435Y-42628032D01*
X82251000Y-42674388D01*
X82251000Y-43325612D01*
X82246435Y-43371968D01*
X82234704Y-43410638D01*
X82215654Y-43446277D01*
X82190017Y-43477517D01*
X82158777Y-43503154D01*
X82123138Y-43522204D01*
X82084468Y-43533935D01*
X82038112Y-43538500D01*
X80961888Y-43538500D01*
X80915532Y-43533935D01*
X80876862Y-43522204D01*
X80841223Y-43503154D01*
X80809983Y-43477517D01*
X80784346Y-43446277D01*
X80765296Y-43410638D01*
X80753565Y-43371968D01*
X80749000Y-43325612D01*
X80749000Y-42674388D01*
X80753565Y-42628032D01*
X80765296Y-42589362D01*
X80784346Y-42553723D01*
X80809983Y-42522483D01*
X80841223Y-42496846D01*
X80876862Y-42477796D01*
X80915532Y-42466065D01*
X80961888Y-42461500D01*
X82038112Y-42461500D01*
X82084468Y-42466065D01*
X82084468Y-42466065D01*
G37*
G36*
X57684468Y-42441065D02*
G01*
X57723138Y-42452796D01*
X57758777Y-42471846D01*
X57790017Y-42497483D01*
X57815654Y-42528723D01*
X57834704Y-42564362D01*
X57846435Y-42603032D01*
X57851000Y-42649388D01*
X57851000Y-43300612D01*
X57846435Y-43346968D01*
X57834704Y-43385638D01*
X57815654Y-43421277D01*
X57790017Y-43452517D01*
X57758777Y-43478154D01*
X57723138Y-43497204D01*
X57684468Y-43508935D01*
X57638112Y-43513500D01*
X56561888Y-43513500D01*
X56515532Y-43508935D01*
X56476862Y-43497204D01*
X56441223Y-43478154D01*
X56409983Y-43452517D01*
X56384346Y-43421277D01*
X56365296Y-43385638D01*
X56353565Y-43346968D01*
X56349000Y-43300612D01*
X56349000Y-42649388D01*
X56353565Y-42603032D01*
X56365296Y-42564362D01*
X56384346Y-42528723D01*
X56409983Y-42497483D01*
X56441223Y-42471846D01*
X56476862Y-42452796D01*
X56515532Y-42441065D01*
X56561888Y-42436500D01*
X57638112Y-42436500D01*
X57684468Y-42441065D01*
X57684468Y-42441065D01*
G37*
G36*
X87851000Y-42701000D02*
G01*
X86549000Y-42701000D01*
X86549000Y-41799000D01*
X87851000Y-41799000D01*
X87851000Y-42701000D01*
X87851000Y-42701000D01*
G37*
G36*
X62996968Y-40253565D02*
G01*
X63035638Y-40265296D01*
X63071277Y-40284346D01*
X63102517Y-40309983D01*
X63128154Y-40341223D01*
X63147204Y-40376862D01*
X63158935Y-40415532D01*
X63163500Y-40461888D01*
X63163500Y-41538112D01*
X63158935Y-41584468D01*
X63147204Y-41623138D01*
X63128154Y-41658777D01*
X63102517Y-41690017D01*
X63071277Y-41715654D01*
X63035638Y-41734704D01*
X62996968Y-41746435D01*
X62950612Y-41751000D01*
X62299388Y-41751000D01*
X62253032Y-41746435D01*
X62214362Y-41734704D01*
X62178723Y-41715654D01*
X62147483Y-41690017D01*
X62121846Y-41658777D01*
X62102796Y-41623138D01*
X62091065Y-41584468D01*
X62086500Y-41538112D01*
X62086500Y-40461888D01*
X62091065Y-40415532D01*
X62102796Y-40376862D01*
X62121846Y-40341223D01*
X62147483Y-40309983D01*
X62178723Y-40284346D01*
X62214362Y-40265296D01*
X62253032Y-40253565D01*
X62299388Y-40249000D01*
X62950612Y-40249000D01*
X62996968Y-40253565D01*
X62996968Y-40253565D01*
G37*
G36*
X64871968Y-40253565D02*
G01*
X64910638Y-40265296D01*
X64946277Y-40284346D01*
X64977517Y-40309983D01*
X65003154Y-40341223D01*
X65022204Y-40376862D01*
X65033935Y-40415532D01*
X65038500Y-40461888D01*
X65038500Y-41538112D01*
X65033935Y-41584468D01*
X65022204Y-41623138D01*
X65003154Y-41658777D01*
X64977517Y-41690017D01*
X64946277Y-41715654D01*
X64910638Y-41734704D01*
X64871968Y-41746435D01*
X64825612Y-41751000D01*
X64174388Y-41751000D01*
X64128032Y-41746435D01*
X64089362Y-41734704D01*
X64053723Y-41715654D01*
X64022483Y-41690017D01*
X63996846Y-41658777D01*
X63977796Y-41623138D01*
X63966065Y-41584468D01*
X63961500Y-41538112D01*
X63961500Y-40461888D01*
X63966065Y-40415532D01*
X63977796Y-40376862D01*
X63996846Y-40341223D01*
X64022483Y-40309983D01*
X64053723Y-40284346D01*
X64089362Y-40265296D01*
X64128032Y-40253565D01*
X64174388Y-40249000D01*
X64825612Y-40249000D01*
X64871968Y-40253565D01*
X64871968Y-40253565D01*
G37*
G36*
X82084468Y-40591065D02*
G01*
X82123138Y-40602796D01*
X82158777Y-40621846D01*
X82190017Y-40647483D01*
X82215654Y-40678723D01*
X82234704Y-40714362D01*
X82246435Y-40753032D01*
X82251000Y-40799388D01*
X82251000Y-41450612D01*
X82246435Y-41496968D01*
X82234704Y-41535638D01*
X82215654Y-41571277D01*
X82190017Y-41602517D01*
X82158777Y-41628154D01*
X82123138Y-41647204D01*
X82084468Y-41658935D01*
X82038112Y-41663500D01*
X80961888Y-41663500D01*
X80915532Y-41658935D01*
X80876862Y-41647204D01*
X80841223Y-41628154D01*
X80809983Y-41602517D01*
X80784346Y-41571277D01*
X80765296Y-41535638D01*
X80753565Y-41496968D01*
X80749000Y-41450612D01*
X80749000Y-40799388D01*
X80753565Y-40753032D01*
X80765296Y-40714362D01*
X80784346Y-40678723D01*
X80809983Y-40647483D01*
X80841223Y-40621846D01*
X80876862Y-40602796D01*
X80915532Y-40591065D01*
X80961888Y-40586500D01*
X82038112Y-40586500D01*
X82084468Y-40591065D01*
X82084468Y-40591065D01*
G37*
G36*
X57684468Y-40566065D02*
G01*
X57723138Y-40577796D01*
X57758777Y-40596846D01*
X57790017Y-40622483D01*
X57815654Y-40653723D01*
X57834704Y-40689362D01*
X57846435Y-40728032D01*
X57851000Y-40774388D01*
X57851000Y-41425612D01*
X57846435Y-41471968D01*
X57834704Y-41510638D01*
X57815654Y-41546277D01*
X57790017Y-41577517D01*
X57758777Y-41603154D01*
X57723138Y-41622204D01*
X57684468Y-41633935D01*
X57638112Y-41638500D01*
X56561888Y-41638500D01*
X56515532Y-41633935D01*
X56476862Y-41622204D01*
X56441223Y-41603154D01*
X56409983Y-41577517D01*
X56384346Y-41546277D01*
X56365296Y-41510638D01*
X56353565Y-41471968D01*
X56349000Y-41425612D01*
X56349000Y-40774388D01*
X56353565Y-40728032D01*
X56365296Y-40689362D01*
X56384346Y-40653723D01*
X56409983Y-40622483D01*
X56441223Y-40596846D01*
X56476862Y-40577796D01*
X56515532Y-40566065D01*
X56561888Y-40561500D01*
X57638112Y-40561500D01*
X57684468Y-40566065D01*
X57684468Y-40566065D01*
G37*
G36*
X87607495Y-40139586D02*
G01*
X87710859Y-40170941D01*
X87806119Y-40221859D01*
X87889616Y-40290383D01*
X87958140Y-40373880D01*
X88009058Y-40469140D01*
X88040413Y-40572504D01*
X88051000Y-40679999D01*
X88051000Y-40680001D01*
X88040413Y-40787496D01*
X88009058Y-40890860D01*
X87958140Y-40986120D01*
X87889616Y-41069617D01*
X87806119Y-41138141D01*
X87710859Y-41189059D01*
X87607495Y-41220414D01*
X87500000Y-41231001D01*
X86900000Y-41231001D01*
X86792505Y-41220414D01*
X86689141Y-41189059D01*
X86593881Y-41138141D01*
X86510384Y-41069617D01*
X86441860Y-40986120D01*
X86390942Y-40890860D01*
X86359587Y-40787496D01*
X86349000Y-40680001D01*
X86349000Y-40679999D01*
X86359587Y-40572504D01*
X86390942Y-40469140D01*
X86441860Y-40373880D01*
X86510384Y-40290383D01*
X86593881Y-40221859D01*
X86689141Y-40170941D01*
X86792505Y-40139586D01*
X86900000Y-40128999D01*
X87500000Y-40128999D01*
X87607495Y-40139586D01*
X87607495Y-40139586D01*
G37*
G36*
X91407495Y-40139586D02*
G01*
X91510859Y-40170941D01*
X91606119Y-40221859D01*
X91689616Y-40290383D01*
X91758140Y-40373880D01*
X91809058Y-40469140D01*
X91840413Y-40572504D01*
X91851000Y-40679999D01*
X91851000Y-40680001D01*
X91840413Y-40787496D01*
X91809058Y-40890860D01*
X91758140Y-40986120D01*
X91689616Y-41069617D01*
X91606119Y-41138141D01*
X91510859Y-41189059D01*
X91407495Y-41220414D01*
X91300000Y-41231001D01*
X90700000Y-41231001D01*
X90592505Y-41220414D01*
X90489141Y-41189059D01*
X90393881Y-41138141D01*
X90310384Y-41069617D01*
X90241860Y-40986120D01*
X90190942Y-40890860D01*
X90159587Y-40787496D01*
X90149000Y-40680001D01*
X90149000Y-40679999D01*
X90159587Y-40572504D01*
X90190942Y-40469140D01*
X90241860Y-40373880D01*
X90310384Y-40290383D01*
X90393881Y-40221859D01*
X90489141Y-40170941D01*
X90592505Y-40139586D01*
X90700000Y-40128999D01*
X91300000Y-40128999D01*
X91407495Y-40139586D01*
X91407495Y-40139586D01*
G37*
G36*
X74471968Y-39253565D02*
G01*
X74510638Y-39265296D01*
X74546277Y-39284346D01*
X74577517Y-39309983D01*
X74603154Y-39341223D01*
X74622204Y-39376862D01*
X74633935Y-39415532D01*
X74638500Y-39461888D01*
X74638500Y-40538112D01*
X74633935Y-40584468D01*
X74622204Y-40623138D01*
X74603154Y-40658777D01*
X74577517Y-40690017D01*
X74546277Y-40715654D01*
X74510638Y-40734704D01*
X74471968Y-40746435D01*
X74425612Y-40751000D01*
X73774388Y-40751000D01*
X73728032Y-40746435D01*
X73689362Y-40734704D01*
X73653723Y-40715654D01*
X73622483Y-40690017D01*
X73596846Y-40658777D01*
X73577796Y-40623138D01*
X73566065Y-40584468D01*
X73561500Y-40538112D01*
X73561500Y-39461888D01*
X73566065Y-39415532D01*
X73577796Y-39376862D01*
X73596846Y-39341223D01*
X73622483Y-39309983D01*
X73653723Y-39284346D01*
X73689362Y-39265296D01*
X73728032Y-39253565D01*
X73774388Y-39249000D01*
X74425612Y-39249000D01*
X74471968Y-39253565D01*
X74471968Y-39253565D01*
G37*
G36*
X72596968Y-39253565D02*
G01*
X72635638Y-39265296D01*
X72671277Y-39284346D01*
X72702517Y-39309983D01*
X72728154Y-39341223D01*
X72747204Y-39376862D01*
X72758935Y-39415532D01*
X72763500Y-39461888D01*
X72763500Y-40538112D01*
X72758935Y-40584468D01*
X72747204Y-40623138D01*
X72728154Y-40658777D01*
X72702517Y-40690017D01*
X72671277Y-40715654D01*
X72635638Y-40734704D01*
X72596968Y-40746435D01*
X72550612Y-40751000D01*
X71899388Y-40751000D01*
X71853032Y-40746435D01*
X71814362Y-40734704D01*
X71778723Y-40715654D01*
X71747483Y-40690017D01*
X71721846Y-40658777D01*
X71702796Y-40623138D01*
X71691065Y-40584468D01*
X71686500Y-40538112D01*
X71686500Y-39461888D01*
X71691065Y-39415532D01*
X71702796Y-39376862D01*
X71721846Y-39341223D01*
X71747483Y-39309983D01*
X71778723Y-39284346D01*
X71814362Y-39265296D01*
X71853032Y-39253565D01*
X71899388Y-39249000D01*
X72550612Y-39249000D01*
X72596968Y-39253565D01*
X72596968Y-39253565D01*
G37*
M02*
