G04 #@! TF.GenerationSoftware,KiCad,Pcbnew,(5.1.2-1)-1*
G04 #@! TF.CreationDate,2021-02-06T10:00:37+01:00*
G04 #@! TF.ProjectId,lir2450-charger,6c697232-3435-4302-9d63-686172676572,1.0.0*
G04 #@! TF.SameCoordinates,Original*
G04 #@! TF.FileFunction,Legend,Top*
G04 #@! TF.FilePolarity,Positive*
%FSLAX46Y46*%
G04 Gerber Fmt 4.6, Leading zero omitted, Abs format (unit mm)*
G04 Created by KiCad (PCBNEW (5.1.2-1)-1) date 2021-02-06 10:00:37*
%MOMM*%
%LPD*%
G04 APERTURE LIST*
%ADD10C,0.120000*%
%ADD11C,0.100000*%
%ADD12C,0.150000*%
%ADD13C,0.200000*%
%ADD14C,0.002540*%
%ADD15C,0.010000*%
%ADD16C,0.125000*%
G04 APERTURE END LIST*
D10*
X72300000Y-39000000D02*
X72300000Y-41000000D01*
X74100000Y-44000000D02*
X74100000Y-45800000D01*
D11*
X70404761Y-35657142D02*
X70357142Y-35704761D01*
X70214285Y-35752380D01*
X70119047Y-35752380D01*
X69976190Y-35704761D01*
X69880952Y-35609523D01*
X69833333Y-35514285D01*
X69785714Y-35323809D01*
X69785714Y-35180952D01*
X69833333Y-34990476D01*
X69880952Y-34895238D01*
X69976190Y-34800000D01*
X70119047Y-34752380D01*
X70214285Y-34752380D01*
X70357142Y-34800000D01*
X70404761Y-34847619D01*
X70833333Y-35752380D02*
X70833333Y-34752380D01*
X70833333Y-35228571D02*
X71404761Y-35228571D01*
X71404761Y-35752380D02*
X71404761Y-34752380D01*
X71833333Y-35466666D02*
X72309523Y-35466666D01*
X71738095Y-35752380D02*
X72071428Y-34752380D01*
X72404761Y-35752380D01*
X73309523Y-35752380D02*
X72976190Y-35276190D01*
X72738095Y-35752380D02*
X72738095Y-34752380D01*
X73119047Y-34752380D01*
X73214285Y-34800000D01*
X73261904Y-34847619D01*
X73309523Y-34942857D01*
X73309523Y-35085714D01*
X73261904Y-35180952D01*
X73214285Y-35228571D01*
X73119047Y-35276190D01*
X72738095Y-35276190D01*
X74261904Y-34800000D02*
X74166666Y-34752380D01*
X74023809Y-34752380D01*
X73880952Y-34800000D01*
X73785714Y-34895238D01*
X73738095Y-34990476D01*
X73690476Y-35180952D01*
X73690476Y-35323809D01*
X73738095Y-35514285D01*
X73785714Y-35609523D01*
X73880952Y-35704761D01*
X74023809Y-35752380D01*
X74119047Y-35752380D01*
X74261904Y-35704761D01*
X74309523Y-35657142D01*
X74309523Y-35323809D01*
X74119047Y-35323809D01*
X74738095Y-35228571D02*
X75071428Y-35228571D01*
X75214285Y-35752380D02*
X74738095Y-35752380D01*
X74738095Y-34752380D01*
X75214285Y-34752380D01*
X76214285Y-35752380D02*
X75880952Y-35276190D01*
X75642857Y-35752380D02*
X75642857Y-34752380D01*
X76023809Y-34752380D01*
X76119047Y-34800000D01*
X76166666Y-34847619D01*
X76214285Y-34942857D01*
X76214285Y-35085714D01*
X76166666Y-35180952D01*
X76119047Y-35228571D01*
X76023809Y-35276190D01*
X75642857Y-35276190D01*
D12*
X71604761Y-43252380D02*
X71604761Y-42252380D01*
X71842857Y-42252380D01*
X71985714Y-42300000D01*
X72080952Y-42395238D01*
X72128571Y-42490476D01*
X72176190Y-42680952D01*
X72176190Y-42823809D01*
X72128571Y-43014285D01*
X72080952Y-43109523D01*
X71985714Y-43204761D01*
X71842857Y-43252380D01*
X71604761Y-43252380D01*
X72747619Y-43252380D02*
X72652380Y-43204761D01*
X72604761Y-43157142D01*
X72557142Y-43061904D01*
X72557142Y-42776190D01*
X72604761Y-42680952D01*
X72652380Y-42633333D01*
X72747619Y-42585714D01*
X72890476Y-42585714D01*
X72985714Y-42633333D01*
X73033333Y-42680952D01*
X73080952Y-42776190D01*
X73080952Y-43061904D01*
X73033333Y-43157142D01*
X72985714Y-43204761D01*
X72890476Y-43252380D01*
X72747619Y-43252380D01*
X73509523Y-42585714D02*
X73509523Y-43252380D01*
X73509523Y-42680952D02*
X73557142Y-42633333D01*
X73652380Y-42585714D01*
X73795238Y-42585714D01*
X73890476Y-42633333D01*
X73938095Y-42728571D01*
X73938095Y-43252380D01*
X74795238Y-43204761D02*
X74700000Y-43252380D01*
X74509523Y-43252380D01*
X74414285Y-43204761D01*
X74366666Y-43109523D01*
X74366666Y-42728571D01*
X74414285Y-42633333D01*
X74509523Y-42585714D01*
X74700000Y-42585714D01*
X74795238Y-42633333D01*
X74842857Y-42728571D01*
X74842857Y-42823809D01*
X74366666Y-42919047D01*
D13*
X69700000Y-34178571D02*
X68985714Y-34178571D01*
X68985714Y-32678571D01*
X70200000Y-34178571D02*
X70200000Y-32678571D01*
X71771428Y-34178571D02*
X71271428Y-33464285D01*
X70914285Y-34178571D02*
X70914285Y-32678571D01*
X71485714Y-32678571D01*
X71628571Y-32750000D01*
X71700000Y-32821428D01*
X71771428Y-32964285D01*
X71771428Y-33178571D01*
X71700000Y-33321428D01*
X71628571Y-33392857D01*
X71485714Y-33464285D01*
X70914285Y-33464285D01*
X72342857Y-32821428D02*
X72414285Y-32750000D01*
X72557142Y-32678571D01*
X72914285Y-32678571D01*
X73057142Y-32750000D01*
X73128571Y-32821428D01*
X73200000Y-32964285D01*
X73200000Y-33107142D01*
X73128571Y-33321428D01*
X72271428Y-34178571D01*
X73200000Y-34178571D01*
X74485714Y-33178571D02*
X74485714Y-34178571D01*
X74128571Y-32607142D02*
X73771428Y-33678571D01*
X74700000Y-33678571D01*
X75985714Y-32678571D02*
X75271428Y-32678571D01*
X75200000Y-33392857D01*
X75271428Y-33321428D01*
X75414285Y-33250000D01*
X75771428Y-33250000D01*
X75914285Y-33321428D01*
X75985714Y-33392857D01*
X76057142Y-33535714D01*
X76057142Y-33892857D01*
X75985714Y-34035714D01*
X75914285Y-34107142D01*
X75771428Y-34178571D01*
X75414285Y-34178571D01*
X75271428Y-34107142D01*
X75200000Y-34035714D01*
X76985714Y-32678571D02*
X77128571Y-32678571D01*
X77271428Y-32750000D01*
X77342857Y-32821428D01*
X77414285Y-32964285D01*
X77485714Y-33250000D01*
X77485714Y-33607142D01*
X77414285Y-33892857D01*
X77342857Y-34035714D01*
X77271428Y-34107142D01*
X77128571Y-34178571D01*
X76985714Y-34178571D01*
X76842857Y-34107142D01*
X76771428Y-34035714D01*
X76700000Y-33892857D01*
X76628571Y-33607142D01*
X76628571Y-33250000D01*
X76700000Y-32964285D01*
X76771428Y-32821428D01*
X76842857Y-32750000D01*
X76985714Y-32678571D01*
D12*
X72100000Y-38257142D02*
X72052380Y-38304761D01*
X71909523Y-38352380D01*
X71814285Y-38352380D01*
X71671428Y-38304761D01*
X71576190Y-38209523D01*
X71528571Y-38114285D01*
X71480952Y-37923809D01*
X71480952Y-37780952D01*
X71528571Y-37590476D01*
X71576190Y-37495238D01*
X71671428Y-37400000D01*
X71814285Y-37352380D01*
X71909523Y-37352380D01*
X72052380Y-37400000D01*
X72100000Y-37447619D01*
X72528571Y-38352380D02*
X72528571Y-37352380D01*
X72957142Y-38352380D02*
X72957142Y-37828571D01*
X72909523Y-37733333D01*
X72814285Y-37685714D01*
X72671428Y-37685714D01*
X72576190Y-37733333D01*
X72528571Y-37780952D01*
X73861904Y-38352380D02*
X73861904Y-37828571D01*
X73814285Y-37733333D01*
X73719047Y-37685714D01*
X73528571Y-37685714D01*
X73433333Y-37733333D01*
X73861904Y-38304761D02*
X73766666Y-38352380D01*
X73528571Y-38352380D01*
X73433333Y-38304761D01*
X73385714Y-38209523D01*
X73385714Y-38114285D01*
X73433333Y-38019047D01*
X73528571Y-37971428D01*
X73766666Y-37971428D01*
X73861904Y-37923809D01*
X74338095Y-38352380D02*
X74338095Y-37685714D01*
X74338095Y-37876190D02*
X74385714Y-37780952D01*
X74433333Y-37733333D01*
X74528571Y-37685714D01*
X74623809Y-37685714D01*
X75385714Y-37685714D02*
X75385714Y-38495238D01*
X75338095Y-38590476D01*
X75290476Y-38638095D01*
X75195238Y-38685714D01*
X75052380Y-38685714D01*
X74957142Y-38638095D01*
X75385714Y-38304761D02*
X75290476Y-38352380D01*
X75100000Y-38352380D01*
X75004761Y-38304761D01*
X74957142Y-38257142D01*
X74909523Y-38161904D01*
X74909523Y-37876190D01*
X74957142Y-37780952D01*
X75004761Y-37733333D01*
X75100000Y-37685714D01*
X75290476Y-37685714D01*
X75385714Y-37733333D01*
X75861904Y-38352380D02*
X75861904Y-37685714D01*
X75861904Y-37352380D02*
X75814285Y-37400000D01*
X75861904Y-37447619D01*
X75909523Y-37400000D01*
X75861904Y-37352380D01*
X75861904Y-37447619D01*
X76338095Y-37685714D02*
X76338095Y-38352380D01*
X76338095Y-37780952D02*
X76385714Y-37733333D01*
X76480952Y-37685714D01*
X76623809Y-37685714D01*
X76719047Y-37733333D01*
X76766666Y-37828571D01*
X76766666Y-38352380D01*
X77671428Y-37685714D02*
X77671428Y-38495238D01*
X77623809Y-38590476D01*
X77576190Y-38638095D01*
X77480952Y-38685714D01*
X77338095Y-38685714D01*
X77242857Y-38638095D01*
X77671428Y-38304761D02*
X77576190Y-38352380D01*
X77385714Y-38352380D01*
X77290476Y-38304761D01*
X77242857Y-38257142D01*
X77195238Y-38161904D01*
X77195238Y-37876190D01*
X77242857Y-37780952D01*
X77290476Y-37733333D01*
X77385714Y-37685714D01*
X77576190Y-37685714D01*
X77671428Y-37733333D01*
D14*
G36*
X86711580Y-55495780D02*
G01*
X86691260Y-55485620D01*
X86643000Y-55455140D01*
X86576960Y-55411960D01*
X86498220Y-55358620D01*
X86419480Y-55305280D01*
X86353440Y-55262100D01*
X86307720Y-55231620D01*
X86289940Y-55221460D01*
X86279780Y-55224000D01*
X86241680Y-55244320D01*
X86185800Y-55272260D01*
X86155320Y-55287500D01*
X86104520Y-55310360D01*
X86079120Y-55315440D01*
X86076580Y-55307820D01*
X86056260Y-55269720D01*
X86028320Y-55203680D01*
X85990220Y-55117320D01*
X85947040Y-55015720D01*
X85901320Y-54906500D01*
X85855600Y-54794740D01*
X85809880Y-54688060D01*
X85771780Y-54591540D01*
X85738760Y-54515340D01*
X85718440Y-54459460D01*
X85710820Y-54436600D01*
X85713360Y-54431520D01*
X85738760Y-54408660D01*
X85781940Y-54375640D01*
X85878460Y-54296900D01*
X85969900Y-54180060D01*
X86028320Y-54047980D01*
X86046100Y-53900660D01*
X86030860Y-53766040D01*
X85977520Y-53636500D01*
X85886080Y-53517120D01*
X85774320Y-53430760D01*
X85644780Y-53374880D01*
X85500000Y-53357100D01*
X85360300Y-53372340D01*
X85228220Y-53425680D01*
X85108840Y-53514580D01*
X85060580Y-53573000D01*
X84992000Y-53692380D01*
X84951360Y-53819380D01*
X84948820Y-53849860D01*
X84953900Y-53992100D01*
X84994540Y-54126720D01*
X85068200Y-54246100D01*
X85172340Y-54345160D01*
X85185040Y-54355320D01*
X85233300Y-54390880D01*
X85263780Y-54413740D01*
X85289180Y-54434060D01*
X85111380Y-54865860D01*
X85083440Y-54934440D01*
X85032640Y-55051280D01*
X84989460Y-55152880D01*
X84956440Y-55234160D01*
X84931040Y-55287500D01*
X84920880Y-55310360D01*
X84905640Y-55312900D01*
X84872620Y-55300200D01*
X84811660Y-55272260D01*
X84771020Y-55251940D01*
X84725300Y-55229080D01*
X84704980Y-55221460D01*
X84687200Y-55231620D01*
X84644020Y-55259560D01*
X84580520Y-55302740D01*
X84504320Y-55353540D01*
X84430660Y-55404340D01*
X84362080Y-55450060D01*
X84313820Y-55480540D01*
X84288420Y-55493240D01*
X84285880Y-55493240D01*
X84265560Y-55480540D01*
X84224920Y-55450060D01*
X84166500Y-55394180D01*
X84085220Y-55312900D01*
X84072520Y-55300200D01*
X84003940Y-55229080D01*
X83948060Y-55170660D01*
X83909960Y-55130020D01*
X83897260Y-55112240D01*
X83909960Y-55086840D01*
X83940440Y-55038580D01*
X83986160Y-54970000D01*
X84039500Y-54891260D01*
X84181740Y-54682980D01*
X84103000Y-54487400D01*
X84080140Y-54428980D01*
X84049660Y-54355320D01*
X84026800Y-54304520D01*
X84014100Y-54281660D01*
X83993780Y-54274040D01*
X83940440Y-54261340D01*
X83861700Y-54243560D01*
X83770260Y-54228320D01*
X83681360Y-54210540D01*
X83602620Y-54195300D01*
X83544200Y-54185140D01*
X83518800Y-54180060D01*
X83513720Y-54174980D01*
X83508640Y-54162280D01*
X83503560Y-54136880D01*
X83503560Y-54088620D01*
X83501020Y-54012420D01*
X83501020Y-53900660D01*
X83501020Y-53890500D01*
X83503560Y-53783820D01*
X83503560Y-53700000D01*
X83506100Y-53646660D01*
X83511180Y-53626340D01*
X83536580Y-53618720D01*
X83592460Y-53608560D01*
X83671200Y-53590780D01*
X83767720Y-53573000D01*
X83772800Y-53573000D01*
X83866780Y-53555220D01*
X83945520Y-53537440D01*
X84001400Y-53524740D01*
X84024260Y-53517120D01*
X84029340Y-53512040D01*
X84049660Y-53473940D01*
X84077600Y-53415520D01*
X84108080Y-53344400D01*
X84138560Y-53270740D01*
X84166500Y-53202160D01*
X84184280Y-53153900D01*
X84189360Y-53131040D01*
X84174120Y-53108180D01*
X84141100Y-53057380D01*
X84095380Y-52991340D01*
X84039500Y-52910060D01*
X84036960Y-52902440D01*
X83981080Y-52823700D01*
X83937900Y-52755120D01*
X83907420Y-52706860D01*
X83897260Y-52686540D01*
X83897260Y-52684000D01*
X83915040Y-52661140D01*
X83955680Y-52615420D01*
X84014100Y-52554460D01*
X84085220Y-52483340D01*
X84108080Y-52463020D01*
X84184280Y-52386820D01*
X84237620Y-52336020D01*
X84273180Y-52310620D01*
X84288420Y-52303000D01*
X84288420Y-52305540D01*
X84313820Y-52318240D01*
X84364620Y-52351260D01*
X84433200Y-52399520D01*
X84514480Y-52452860D01*
X84519560Y-52457940D01*
X84598300Y-52511280D01*
X84664340Y-52557000D01*
X84712600Y-52587480D01*
X84732920Y-52600180D01*
X84738000Y-52600180D01*
X84768480Y-52590020D01*
X84826900Y-52572240D01*
X84895480Y-52544300D01*
X84969140Y-52513820D01*
X85037720Y-52485880D01*
X85088520Y-52463020D01*
X85111380Y-52450320D01*
X85111380Y-52447780D01*
X85121540Y-52419840D01*
X85134240Y-52358880D01*
X85152020Y-52277600D01*
X85169800Y-52178540D01*
X85172340Y-52163300D01*
X85190120Y-52069320D01*
X85205360Y-51990580D01*
X85218060Y-51934700D01*
X85223140Y-51911840D01*
X85235840Y-51909300D01*
X85284100Y-51906760D01*
X85355220Y-51904220D01*
X85441580Y-51904220D01*
X85530480Y-51904220D01*
X85616840Y-51906760D01*
X85693040Y-51909300D01*
X85746380Y-51911840D01*
X85769240Y-51916920D01*
X85771780Y-51919460D01*
X85779400Y-51947400D01*
X85792100Y-52008360D01*
X85809880Y-52089640D01*
X85827660Y-52188700D01*
X85830200Y-52206480D01*
X85847980Y-52300460D01*
X85865760Y-52379200D01*
X85875920Y-52432540D01*
X85883540Y-52452860D01*
X85891160Y-52457940D01*
X85929260Y-52475720D01*
X85992760Y-52501120D01*
X86074040Y-52534140D01*
X86256920Y-52607800D01*
X86480440Y-52452860D01*
X86500760Y-52440160D01*
X86582040Y-52384280D01*
X86648080Y-52341100D01*
X86693800Y-52310620D01*
X86714120Y-52300460D01*
X86736980Y-52320780D01*
X86782700Y-52361420D01*
X86843660Y-52422380D01*
X86912240Y-52490960D01*
X86965580Y-52544300D01*
X87026540Y-52607800D01*
X87067180Y-52648440D01*
X87087500Y-52676380D01*
X87095120Y-52694160D01*
X87092580Y-52704320D01*
X87079880Y-52727180D01*
X87046860Y-52775440D01*
X87001140Y-52844020D01*
X86945260Y-52922760D01*
X86899540Y-52991340D01*
X86851280Y-53065000D01*
X86820800Y-53118340D01*
X86808100Y-53146280D01*
X86810640Y-53156440D01*
X86828420Y-53199620D01*
X86853820Y-53268200D01*
X86886840Y-53346940D01*
X86965580Y-53524740D01*
X87082420Y-53545060D01*
X87153540Y-53560300D01*
X87252600Y-53578080D01*
X87346580Y-53595860D01*
X87493900Y-53626340D01*
X87498980Y-54164820D01*
X87476120Y-54174980D01*
X87453260Y-54182600D01*
X87399920Y-54192760D01*
X87321180Y-54208000D01*
X87229740Y-54225780D01*
X87151000Y-54241020D01*
X87072260Y-54256260D01*
X87016380Y-54266420D01*
X86990980Y-54271500D01*
X86983360Y-54281660D01*
X86963040Y-54319760D01*
X86935100Y-54380720D01*
X86904620Y-54454380D01*
X86874140Y-54528040D01*
X86846200Y-54599160D01*
X86825880Y-54652500D01*
X86818260Y-54680440D01*
X86828420Y-54700760D01*
X86858900Y-54746480D01*
X86902080Y-54812520D01*
X86955420Y-54891260D01*
X87011300Y-54970000D01*
X87054480Y-55038580D01*
X87087500Y-55086840D01*
X87100200Y-55107160D01*
X87092580Y-55122400D01*
X87062100Y-55160500D01*
X87003680Y-55221460D01*
X86914780Y-55310360D01*
X86899540Y-55323060D01*
X86830960Y-55391640D01*
X86770000Y-55444980D01*
X86729360Y-55483080D01*
X86711580Y-55495780D01*
X86711580Y-55495780D01*
G37*
X86711580Y-55495780D02*
X86691260Y-55485620D01*
X86643000Y-55455140D01*
X86576960Y-55411960D01*
X86498220Y-55358620D01*
X86419480Y-55305280D01*
X86353440Y-55262100D01*
X86307720Y-55231620D01*
X86289940Y-55221460D01*
X86279780Y-55224000D01*
X86241680Y-55244320D01*
X86185800Y-55272260D01*
X86155320Y-55287500D01*
X86104520Y-55310360D01*
X86079120Y-55315440D01*
X86076580Y-55307820D01*
X86056260Y-55269720D01*
X86028320Y-55203680D01*
X85990220Y-55117320D01*
X85947040Y-55015720D01*
X85901320Y-54906500D01*
X85855600Y-54794740D01*
X85809880Y-54688060D01*
X85771780Y-54591540D01*
X85738760Y-54515340D01*
X85718440Y-54459460D01*
X85710820Y-54436600D01*
X85713360Y-54431520D01*
X85738760Y-54408660D01*
X85781940Y-54375640D01*
X85878460Y-54296900D01*
X85969900Y-54180060D01*
X86028320Y-54047980D01*
X86046100Y-53900660D01*
X86030860Y-53766040D01*
X85977520Y-53636500D01*
X85886080Y-53517120D01*
X85774320Y-53430760D01*
X85644780Y-53374880D01*
X85500000Y-53357100D01*
X85360300Y-53372340D01*
X85228220Y-53425680D01*
X85108840Y-53514580D01*
X85060580Y-53573000D01*
X84992000Y-53692380D01*
X84951360Y-53819380D01*
X84948820Y-53849860D01*
X84953900Y-53992100D01*
X84994540Y-54126720D01*
X85068200Y-54246100D01*
X85172340Y-54345160D01*
X85185040Y-54355320D01*
X85233300Y-54390880D01*
X85263780Y-54413740D01*
X85289180Y-54434060D01*
X85111380Y-54865860D01*
X85083440Y-54934440D01*
X85032640Y-55051280D01*
X84989460Y-55152880D01*
X84956440Y-55234160D01*
X84931040Y-55287500D01*
X84920880Y-55310360D01*
X84905640Y-55312900D01*
X84872620Y-55300200D01*
X84811660Y-55272260D01*
X84771020Y-55251940D01*
X84725300Y-55229080D01*
X84704980Y-55221460D01*
X84687200Y-55231620D01*
X84644020Y-55259560D01*
X84580520Y-55302740D01*
X84504320Y-55353540D01*
X84430660Y-55404340D01*
X84362080Y-55450060D01*
X84313820Y-55480540D01*
X84288420Y-55493240D01*
X84285880Y-55493240D01*
X84265560Y-55480540D01*
X84224920Y-55450060D01*
X84166500Y-55394180D01*
X84085220Y-55312900D01*
X84072520Y-55300200D01*
X84003940Y-55229080D01*
X83948060Y-55170660D01*
X83909960Y-55130020D01*
X83897260Y-55112240D01*
X83909960Y-55086840D01*
X83940440Y-55038580D01*
X83986160Y-54970000D01*
X84039500Y-54891260D01*
X84181740Y-54682980D01*
X84103000Y-54487400D01*
X84080140Y-54428980D01*
X84049660Y-54355320D01*
X84026800Y-54304520D01*
X84014100Y-54281660D01*
X83993780Y-54274040D01*
X83940440Y-54261340D01*
X83861700Y-54243560D01*
X83770260Y-54228320D01*
X83681360Y-54210540D01*
X83602620Y-54195300D01*
X83544200Y-54185140D01*
X83518800Y-54180060D01*
X83513720Y-54174980D01*
X83508640Y-54162280D01*
X83503560Y-54136880D01*
X83503560Y-54088620D01*
X83501020Y-54012420D01*
X83501020Y-53900660D01*
X83501020Y-53890500D01*
X83503560Y-53783820D01*
X83503560Y-53700000D01*
X83506100Y-53646660D01*
X83511180Y-53626340D01*
X83536580Y-53618720D01*
X83592460Y-53608560D01*
X83671200Y-53590780D01*
X83767720Y-53573000D01*
X83772800Y-53573000D01*
X83866780Y-53555220D01*
X83945520Y-53537440D01*
X84001400Y-53524740D01*
X84024260Y-53517120D01*
X84029340Y-53512040D01*
X84049660Y-53473940D01*
X84077600Y-53415520D01*
X84108080Y-53344400D01*
X84138560Y-53270740D01*
X84166500Y-53202160D01*
X84184280Y-53153900D01*
X84189360Y-53131040D01*
X84174120Y-53108180D01*
X84141100Y-53057380D01*
X84095380Y-52991340D01*
X84039500Y-52910060D01*
X84036960Y-52902440D01*
X83981080Y-52823700D01*
X83937900Y-52755120D01*
X83907420Y-52706860D01*
X83897260Y-52686540D01*
X83897260Y-52684000D01*
X83915040Y-52661140D01*
X83955680Y-52615420D01*
X84014100Y-52554460D01*
X84085220Y-52483340D01*
X84108080Y-52463020D01*
X84184280Y-52386820D01*
X84237620Y-52336020D01*
X84273180Y-52310620D01*
X84288420Y-52303000D01*
X84288420Y-52305540D01*
X84313820Y-52318240D01*
X84364620Y-52351260D01*
X84433200Y-52399520D01*
X84514480Y-52452860D01*
X84519560Y-52457940D01*
X84598300Y-52511280D01*
X84664340Y-52557000D01*
X84712600Y-52587480D01*
X84732920Y-52600180D01*
X84738000Y-52600180D01*
X84768480Y-52590020D01*
X84826900Y-52572240D01*
X84895480Y-52544300D01*
X84969140Y-52513820D01*
X85037720Y-52485880D01*
X85088520Y-52463020D01*
X85111380Y-52450320D01*
X85111380Y-52447780D01*
X85121540Y-52419840D01*
X85134240Y-52358880D01*
X85152020Y-52277600D01*
X85169800Y-52178540D01*
X85172340Y-52163300D01*
X85190120Y-52069320D01*
X85205360Y-51990580D01*
X85218060Y-51934700D01*
X85223140Y-51911840D01*
X85235840Y-51909300D01*
X85284100Y-51906760D01*
X85355220Y-51904220D01*
X85441580Y-51904220D01*
X85530480Y-51904220D01*
X85616840Y-51906760D01*
X85693040Y-51909300D01*
X85746380Y-51911840D01*
X85769240Y-51916920D01*
X85771780Y-51919460D01*
X85779400Y-51947400D01*
X85792100Y-52008360D01*
X85809880Y-52089640D01*
X85827660Y-52188700D01*
X85830200Y-52206480D01*
X85847980Y-52300460D01*
X85865760Y-52379200D01*
X85875920Y-52432540D01*
X85883540Y-52452860D01*
X85891160Y-52457940D01*
X85929260Y-52475720D01*
X85992760Y-52501120D01*
X86074040Y-52534140D01*
X86256920Y-52607800D01*
X86480440Y-52452860D01*
X86500760Y-52440160D01*
X86582040Y-52384280D01*
X86648080Y-52341100D01*
X86693800Y-52310620D01*
X86714120Y-52300460D01*
X86736980Y-52320780D01*
X86782700Y-52361420D01*
X86843660Y-52422380D01*
X86912240Y-52490960D01*
X86965580Y-52544300D01*
X87026540Y-52607800D01*
X87067180Y-52648440D01*
X87087500Y-52676380D01*
X87095120Y-52694160D01*
X87092580Y-52704320D01*
X87079880Y-52727180D01*
X87046860Y-52775440D01*
X87001140Y-52844020D01*
X86945260Y-52922760D01*
X86899540Y-52991340D01*
X86851280Y-53065000D01*
X86820800Y-53118340D01*
X86808100Y-53146280D01*
X86810640Y-53156440D01*
X86828420Y-53199620D01*
X86853820Y-53268200D01*
X86886840Y-53346940D01*
X86965580Y-53524740D01*
X87082420Y-53545060D01*
X87153540Y-53560300D01*
X87252600Y-53578080D01*
X87346580Y-53595860D01*
X87493900Y-53626340D01*
X87498980Y-54164820D01*
X87476120Y-54174980D01*
X87453260Y-54182600D01*
X87399920Y-54192760D01*
X87321180Y-54208000D01*
X87229740Y-54225780D01*
X87151000Y-54241020D01*
X87072260Y-54256260D01*
X87016380Y-54266420D01*
X86990980Y-54271500D01*
X86983360Y-54281660D01*
X86963040Y-54319760D01*
X86935100Y-54380720D01*
X86904620Y-54454380D01*
X86874140Y-54528040D01*
X86846200Y-54599160D01*
X86825880Y-54652500D01*
X86818260Y-54680440D01*
X86828420Y-54700760D01*
X86858900Y-54746480D01*
X86902080Y-54812520D01*
X86955420Y-54891260D01*
X87011300Y-54970000D01*
X87054480Y-55038580D01*
X87087500Y-55086840D01*
X87100200Y-55107160D01*
X87092580Y-55122400D01*
X87062100Y-55160500D01*
X87003680Y-55221460D01*
X86914780Y-55310360D01*
X86899540Y-55323060D01*
X86830960Y-55391640D01*
X86770000Y-55444980D01*
X86729360Y-55483080D01*
X86711580Y-55495780D01*
D15*
G36*
X79191753Y-32609525D02*
G01*
X79317031Y-32610260D01*
X79364115Y-32610645D01*
X79875013Y-32615133D01*
X79588806Y-33079888D01*
X79519643Y-33192466D01*
X79456726Y-33295393D01*
X79402123Y-33385247D01*
X79357900Y-33458606D01*
X79326125Y-33512046D01*
X79308865Y-33542146D01*
X79306332Y-33547575D01*
X79323442Y-33550074D01*
X79370095Y-33555747D01*
X79442167Y-33564121D01*
X79535531Y-33574726D01*
X79646062Y-33587090D01*
X79769634Y-33600743D01*
X79822299Y-33606514D01*
X79949782Y-33620885D01*
X80065689Y-33634781D01*
X80165932Y-33647645D01*
X80246421Y-33658922D01*
X80303068Y-33668056D01*
X80331783Y-33674489D01*
X80334533Y-33676207D01*
X80324001Y-33690791D01*
X80293670Y-33729092D01*
X80245436Y-33788824D01*
X80181194Y-33867697D01*
X80102839Y-33963426D01*
X80012269Y-34073721D01*
X79911378Y-34196295D01*
X79802062Y-34328862D01*
X79686216Y-34469132D01*
X79565738Y-34614818D01*
X79442522Y-34763633D01*
X79318464Y-34913290D01*
X79195460Y-35061499D01*
X79075406Y-35205974D01*
X78960197Y-35344427D01*
X78851729Y-35474571D01*
X78751899Y-35594117D01*
X78662600Y-35700779D01*
X78585731Y-35792267D01*
X78523185Y-35866295D01*
X78476859Y-35920576D01*
X78448649Y-35952820D01*
X78442436Y-35959466D01*
X78400081Y-36001800D01*
X78410022Y-35959466D01*
X78417585Y-35935424D01*
X78435441Y-35882785D01*
X78462442Y-35804825D01*
X78497434Y-35704823D01*
X78539267Y-35586055D01*
X78586791Y-35451798D01*
X78638854Y-35305328D01*
X78694304Y-35149924D01*
X78698496Y-35138200D01*
X78753415Y-34983911D01*
X78804290Y-34839613D01*
X78850073Y-34708376D01*
X78889717Y-34593270D01*
X78922174Y-34497364D01*
X78946395Y-34423730D01*
X78961333Y-34375436D01*
X78965941Y-34355553D01*
X78965747Y-34355221D01*
X78946475Y-34352574D01*
X78898117Y-34347234D01*
X78825310Y-34339675D01*
X78732685Y-34330369D01*
X78624877Y-34319792D01*
X78525662Y-34310240D01*
X78408724Y-34298732D01*
X78303144Y-34287686D01*
X78213540Y-34277636D01*
X78144531Y-34269120D01*
X78100735Y-34262675D01*
X78086799Y-34259244D01*
X78091517Y-34242295D01*
X78108983Y-34198120D01*
X78137622Y-34130179D01*
X78175858Y-34041936D01*
X78222117Y-33936852D01*
X78274822Y-33818388D01*
X78332398Y-33690007D01*
X78393269Y-33555171D01*
X78455861Y-33417340D01*
X78518597Y-33279978D01*
X78579903Y-33146546D01*
X78638202Y-33020505D01*
X78691920Y-32905317D01*
X78739480Y-32804446D01*
X78779307Y-32721351D01*
X78809827Y-32659495D01*
X78829463Y-32622340D01*
X78836108Y-32612763D01*
X78856761Y-32611251D01*
X78906965Y-32610153D01*
X78982407Y-32609488D01*
X79078774Y-32609273D01*
X79191753Y-32609525D01*
X79191753Y-32609525D01*
G37*
X79191753Y-32609525D02*
X79317031Y-32610260D01*
X79364115Y-32610645D01*
X79875013Y-32615133D01*
X79588806Y-33079888D01*
X79519643Y-33192466D01*
X79456726Y-33295393D01*
X79402123Y-33385247D01*
X79357900Y-33458606D01*
X79326125Y-33512046D01*
X79308865Y-33542146D01*
X79306332Y-33547575D01*
X79323442Y-33550074D01*
X79370095Y-33555747D01*
X79442167Y-33564121D01*
X79535531Y-33574726D01*
X79646062Y-33587090D01*
X79769634Y-33600743D01*
X79822299Y-33606514D01*
X79949782Y-33620885D01*
X80065689Y-33634781D01*
X80165932Y-33647645D01*
X80246421Y-33658922D01*
X80303068Y-33668056D01*
X80331783Y-33674489D01*
X80334533Y-33676207D01*
X80324001Y-33690791D01*
X80293670Y-33729092D01*
X80245436Y-33788824D01*
X80181194Y-33867697D01*
X80102839Y-33963426D01*
X80012269Y-34073721D01*
X79911378Y-34196295D01*
X79802062Y-34328862D01*
X79686216Y-34469132D01*
X79565738Y-34614818D01*
X79442522Y-34763633D01*
X79318464Y-34913290D01*
X79195460Y-35061499D01*
X79075406Y-35205974D01*
X78960197Y-35344427D01*
X78851729Y-35474571D01*
X78751899Y-35594117D01*
X78662600Y-35700779D01*
X78585731Y-35792267D01*
X78523185Y-35866295D01*
X78476859Y-35920576D01*
X78448649Y-35952820D01*
X78442436Y-35959466D01*
X78400081Y-36001800D01*
X78410022Y-35959466D01*
X78417585Y-35935424D01*
X78435441Y-35882785D01*
X78462442Y-35804825D01*
X78497434Y-35704823D01*
X78539267Y-35586055D01*
X78586791Y-35451798D01*
X78638854Y-35305328D01*
X78694304Y-35149924D01*
X78698496Y-35138200D01*
X78753415Y-34983911D01*
X78804290Y-34839613D01*
X78850073Y-34708376D01*
X78889717Y-34593270D01*
X78922174Y-34497364D01*
X78946395Y-34423730D01*
X78961333Y-34375436D01*
X78965941Y-34355553D01*
X78965747Y-34355221D01*
X78946475Y-34352574D01*
X78898117Y-34347234D01*
X78825310Y-34339675D01*
X78732685Y-34330369D01*
X78624877Y-34319792D01*
X78525662Y-34310240D01*
X78408724Y-34298732D01*
X78303144Y-34287686D01*
X78213540Y-34277636D01*
X78144531Y-34269120D01*
X78100735Y-34262675D01*
X78086799Y-34259244D01*
X78091517Y-34242295D01*
X78108983Y-34198120D01*
X78137622Y-34130179D01*
X78175858Y-34041936D01*
X78222117Y-33936852D01*
X78274822Y-33818388D01*
X78332398Y-33690007D01*
X78393269Y-33555171D01*
X78455861Y-33417340D01*
X78518597Y-33279978D01*
X78579903Y-33146546D01*
X78638202Y-33020505D01*
X78691920Y-32905317D01*
X78739480Y-32804446D01*
X78779307Y-32721351D01*
X78809827Y-32659495D01*
X78829463Y-32622340D01*
X78836108Y-32612763D01*
X78856761Y-32611251D01*
X78906965Y-32610153D01*
X78982407Y-32609488D01*
X79078774Y-32609273D01*
X79191753Y-32609525D01*
G36*
X67091753Y-32709525D02*
G01*
X67217031Y-32710260D01*
X67264115Y-32710645D01*
X67775013Y-32715133D01*
X67488806Y-33179888D01*
X67419643Y-33292466D01*
X67356726Y-33395393D01*
X67302123Y-33485247D01*
X67257900Y-33558606D01*
X67226125Y-33612046D01*
X67208865Y-33642146D01*
X67206332Y-33647575D01*
X67223442Y-33650074D01*
X67270095Y-33655747D01*
X67342167Y-33664121D01*
X67435531Y-33674726D01*
X67546062Y-33687090D01*
X67669634Y-33700743D01*
X67722299Y-33706514D01*
X67849782Y-33720885D01*
X67965689Y-33734781D01*
X68065932Y-33747645D01*
X68146421Y-33758922D01*
X68203068Y-33768056D01*
X68231783Y-33774489D01*
X68234533Y-33776207D01*
X68224001Y-33790791D01*
X68193670Y-33829092D01*
X68145436Y-33888824D01*
X68081194Y-33967697D01*
X68002839Y-34063426D01*
X67912269Y-34173721D01*
X67811378Y-34296295D01*
X67702062Y-34428862D01*
X67586216Y-34569132D01*
X67465738Y-34714818D01*
X67342522Y-34863633D01*
X67218464Y-35013290D01*
X67095460Y-35161499D01*
X66975406Y-35305974D01*
X66860197Y-35444427D01*
X66751729Y-35574571D01*
X66651899Y-35694117D01*
X66562600Y-35800779D01*
X66485731Y-35892267D01*
X66423185Y-35966295D01*
X66376859Y-36020576D01*
X66348649Y-36052820D01*
X66342436Y-36059466D01*
X66300081Y-36101800D01*
X66310022Y-36059466D01*
X66317585Y-36035424D01*
X66335441Y-35982785D01*
X66362442Y-35904825D01*
X66397434Y-35804823D01*
X66439267Y-35686055D01*
X66486791Y-35551798D01*
X66538854Y-35405328D01*
X66594304Y-35249924D01*
X66598496Y-35238200D01*
X66653415Y-35083911D01*
X66704290Y-34939613D01*
X66750073Y-34808376D01*
X66789717Y-34693270D01*
X66822174Y-34597364D01*
X66846395Y-34523730D01*
X66861333Y-34475436D01*
X66865941Y-34455553D01*
X66865747Y-34455221D01*
X66846475Y-34452574D01*
X66798117Y-34447234D01*
X66725310Y-34439675D01*
X66632685Y-34430369D01*
X66524877Y-34419792D01*
X66425662Y-34410240D01*
X66308724Y-34398732D01*
X66203144Y-34387686D01*
X66113540Y-34377636D01*
X66044531Y-34369120D01*
X66000735Y-34362675D01*
X65986799Y-34359244D01*
X65991517Y-34342295D01*
X66008983Y-34298120D01*
X66037622Y-34230179D01*
X66075858Y-34141936D01*
X66122117Y-34036852D01*
X66174822Y-33918388D01*
X66232398Y-33790007D01*
X66293269Y-33655171D01*
X66355861Y-33517340D01*
X66418597Y-33379978D01*
X66479903Y-33246546D01*
X66538202Y-33120505D01*
X66591920Y-33005317D01*
X66639480Y-32904446D01*
X66679307Y-32821351D01*
X66709827Y-32759495D01*
X66729463Y-32722340D01*
X66736108Y-32712763D01*
X66756761Y-32711251D01*
X66806965Y-32710153D01*
X66882407Y-32709488D01*
X66978774Y-32709273D01*
X67091753Y-32709525D01*
X67091753Y-32709525D01*
G37*
X67091753Y-32709525D02*
X67217031Y-32710260D01*
X67264115Y-32710645D01*
X67775013Y-32715133D01*
X67488806Y-33179888D01*
X67419643Y-33292466D01*
X67356726Y-33395393D01*
X67302123Y-33485247D01*
X67257900Y-33558606D01*
X67226125Y-33612046D01*
X67208865Y-33642146D01*
X67206332Y-33647575D01*
X67223442Y-33650074D01*
X67270095Y-33655747D01*
X67342167Y-33664121D01*
X67435531Y-33674726D01*
X67546062Y-33687090D01*
X67669634Y-33700743D01*
X67722299Y-33706514D01*
X67849782Y-33720885D01*
X67965689Y-33734781D01*
X68065932Y-33747645D01*
X68146421Y-33758922D01*
X68203068Y-33768056D01*
X68231783Y-33774489D01*
X68234533Y-33776207D01*
X68224001Y-33790791D01*
X68193670Y-33829092D01*
X68145436Y-33888824D01*
X68081194Y-33967697D01*
X68002839Y-34063426D01*
X67912269Y-34173721D01*
X67811378Y-34296295D01*
X67702062Y-34428862D01*
X67586216Y-34569132D01*
X67465738Y-34714818D01*
X67342522Y-34863633D01*
X67218464Y-35013290D01*
X67095460Y-35161499D01*
X66975406Y-35305974D01*
X66860197Y-35444427D01*
X66751729Y-35574571D01*
X66651899Y-35694117D01*
X66562600Y-35800779D01*
X66485731Y-35892267D01*
X66423185Y-35966295D01*
X66376859Y-36020576D01*
X66348649Y-36052820D01*
X66342436Y-36059466D01*
X66300081Y-36101800D01*
X66310022Y-36059466D01*
X66317585Y-36035424D01*
X66335441Y-35982785D01*
X66362442Y-35904825D01*
X66397434Y-35804823D01*
X66439267Y-35686055D01*
X66486791Y-35551798D01*
X66538854Y-35405328D01*
X66594304Y-35249924D01*
X66598496Y-35238200D01*
X66653415Y-35083911D01*
X66704290Y-34939613D01*
X66750073Y-34808376D01*
X66789717Y-34693270D01*
X66822174Y-34597364D01*
X66846395Y-34523730D01*
X66861333Y-34475436D01*
X66865941Y-34455553D01*
X66865747Y-34455221D01*
X66846475Y-34452574D01*
X66798117Y-34447234D01*
X66725310Y-34439675D01*
X66632685Y-34430369D01*
X66524877Y-34419792D01*
X66425662Y-34410240D01*
X66308724Y-34398732D01*
X66203144Y-34387686D01*
X66113540Y-34377636D01*
X66044531Y-34369120D01*
X66000735Y-34362675D01*
X65986799Y-34359244D01*
X65991517Y-34342295D01*
X66008983Y-34298120D01*
X66037622Y-34230179D01*
X66075858Y-34141936D01*
X66122117Y-34036852D01*
X66174822Y-33918388D01*
X66232398Y-33790007D01*
X66293269Y-33655171D01*
X66355861Y-33517340D01*
X66418597Y-33379978D01*
X66479903Y-33246546D01*
X66538202Y-33120505D01*
X66591920Y-33005317D01*
X66639480Y-32904446D01*
X66679307Y-32821351D01*
X66709827Y-32759495D01*
X66729463Y-32722340D01*
X66736108Y-32712763D01*
X66756761Y-32711251D01*
X66806965Y-32710153D01*
X66882407Y-32709488D01*
X66978774Y-32709273D01*
X67091753Y-32709525D01*
G36*
X70595300Y-39823800D02*
G01*
X70595300Y-40306400D01*
X69604700Y-40306400D01*
X69604700Y-39823800D01*
X70595300Y-39823800D01*
X70595300Y-39823800D01*
G37*
X70595300Y-39823800D02*
X70595300Y-40306400D01*
X69604700Y-40306400D01*
X69604700Y-39823800D01*
X70595300Y-39823800D01*
G36*
X69604700Y-40458800D02*
G01*
X70595300Y-40458800D01*
X70595300Y-40672732D01*
X70595046Y-40752222D01*
X70594028Y-40810215D01*
X70591860Y-40850615D01*
X70588157Y-40877322D01*
X70582532Y-40894238D01*
X70574600Y-40905264D01*
X70572074Y-40907682D01*
X70563700Y-40913282D01*
X70550532Y-40917802D01*
X70530025Y-40921356D01*
X70499632Y-40924056D01*
X70456810Y-40926016D01*
X70399012Y-40927347D01*
X70323693Y-40928163D01*
X70228308Y-40928576D01*
X70110312Y-40928700D01*
X70097793Y-40928700D01*
X69978396Y-40928629D01*
X69881832Y-40928329D01*
X69805534Y-40927675D01*
X69746934Y-40926541D01*
X69703464Y-40924800D01*
X69672559Y-40922327D01*
X69651650Y-40918993D01*
X69638171Y-40914675D01*
X69629554Y-40909244D01*
X69625718Y-40905475D01*
X69617774Y-40893230D01*
X69612068Y-40874201D01*
X69608255Y-40844522D01*
X69605987Y-40800328D01*
X69604921Y-40737754D01*
X69604699Y-40670525D01*
X69604700Y-40458800D01*
X69604700Y-40458800D01*
G37*
X69604700Y-40458800D02*
X70595300Y-40458800D01*
X70595300Y-40672732D01*
X70595046Y-40752222D01*
X70594028Y-40810215D01*
X70591860Y-40850615D01*
X70588157Y-40877322D01*
X70582532Y-40894238D01*
X70574600Y-40905264D01*
X70572074Y-40907682D01*
X70563700Y-40913282D01*
X70550532Y-40917802D01*
X70530025Y-40921356D01*
X70499632Y-40924056D01*
X70456810Y-40926016D01*
X70399012Y-40927347D01*
X70323693Y-40928163D01*
X70228308Y-40928576D01*
X70110312Y-40928700D01*
X70097793Y-40928700D01*
X69978396Y-40928629D01*
X69881832Y-40928329D01*
X69805534Y-40927675D01*
X69746934Y-40926541D01*
X69703464Y-40924800D01*
X69672559Y-40922327D01*
X69651650Y-40918993D01*
X69638171Y-40914675D01*
X69629554Y-40909244D01*
X69625718Y-40905475D01*
X69617774Y-40893230D01*
X69612068Y-40874201D01*
X69608255Y-40844522D01*
X69605987Y-40800328D01*
X69604921Y-40737754D01*
X69604699Y-40670525D01*
X69604700Y-40458800D01*
G36*
X69406730Y-38976784D02*
G01*
X69422106Y-38960520D01*
X69438454Y-38949900D01*
X69461576Y-38943460D01*
X69497277Y-38939740D01*
X69551360Y-38937276D01*
X69565480Y-38936785D01*
X69693599Y-38932420D01*
X69693599Y-38796450D01*
X69695151Y-38723587D01*
X69699728Y-38673491D01*
X69707217Y-38647302D01*
X69708840Y-38645240D01*
X69725900Y-38640609D01*
X69764449Y-38636748D01*
X69820584Y-38633658D01*
X69890406Y-38631339D01*
X69970013Y-38629791D01*
X70055505Y-38629014D01*
X70142982Y-38629007D01*
X70228541Y-38629771D01*
X70308284Y-38631306D01*
X70378309Y-38633612D01*
X70434715Y-38636688D01*
X70473602Y-38640535D01*
X70491069Y-38645154D01*
X70491159Y-38645240D01*
X70499152Y-38667075D01*
X70504254Y-38713017D01*
X70506350Y-38781929D01*
X70506400Y-38796450D01*
X70506400Y-38932420D01*
X70634519Y-38936785D01*
X70693162Y-38939172D01*
X70732215Y-38942510D01*
X70757479Y-38948262D01*
X70774760Y-38957890D01*
X70789859Y-38972858D01*
X70793269Y-38976784D01*
X70823900Y-39012417D01*
X70823900Y-41107655D01*
X70792727Y-41138828D01*
X70761554Y-41170000D01*
X69503100Y-41170000D01*
X69503100Y-41043000D01*
X70696900Y-41043000D01*
X70696900Y-39061800D01*
X69820600Y-39061800D01*
X69820600Y-38934800D01*
X70379400Y-38934800D01*
X70379400Y-38757000D01*
X69820600Y-38757000D01*
X69820600Y-38934800D01*
X69820600Y-39061800D01*
X69503100Y-39061800D01*
X69503100Y-41043000D01*
X69503100Y-41170000D01*
X69438445Y-41170000D01*
X69407272Y-41138828D01*
X69376100Y-41107655D01*
X69376100Y-39012417D01*
X69406730Y-38976784D01*
X69406730Y-38976784D01*
G37*
X69406730Y-38976784D02*
X69422106Y-38960520D01*
X69438454Y-38949900D01*
X69461576Y-38943460D01*
X69497277Y-38939740D01*
X69551360Y-38937276D01*
X69565480Y-38936785D01*
X69693599Y-38932420D01*
X69693599Y-38796450D01*
X69695151Y-38723587D01*
X69699728Y-38673491D01*
X69707217Y-38647302D01*
X69708840Y-38645240D01*
X69725900Y-38640609D01*
X69764449Y-38636748D01*
X69820584Y-38633658D01*
X69890406Y-38631339D01*
X69970013Y-38629791D01*
X70055505Y-38629014D01*
X70142982Y-38629007D01*
X70228541Y-38629771D01*
X70308284Y-38631306D01*
X70378309Y-38633612D01*
X70434715Y-38636688D01*
X70473602Y-38640535D01*
X70491069Y-38645154D01*
X70491159Y-38645240D01*
X70499152Y-38667075D01*
X70504254Y-38713017D01*
X70506350Y-38781929D01*
X70506400Y-38796450D01*
X70506400Y-38932420D01*
X70634519Y-38936785D01*
X70693162Y-38939172D01*
X70732215Y-38942510D01*
X70757479Y-38948262D01*
X70774760Y-38957890D01*
X70789859Y-38972858D01*
X70793269Y-38976784D01*
X70823900Y-39012417D01*
X70823900Y-41107655D01*
X70792727Y-41138828D01*
X70761554Y-41170000D01*
X69503100Y-41170000D01*
X69503100Y-41043000D01*
X70696900Y-41043000D01*
X70696900Y-39061800D01*
X69820600Y-39061800D01*
X69820600Y-38934800D01*
X70379400Y-38934800D01*
X70379400Y-38757000D01*
X69820600Y-38757000D01*
X69820600Y-38934800D01*
X69820600Y-39061800D01*
X69503100Y-39061800D01*
X69503100Y-41043000D01*
X69503100Y-41170000D01*
X69438445Y-41170000D01*
X69407272Y-41138828D01*
X69376100Y-41107655D01*
X69376100Y-39012417D01*
X69406730Y-38976784D01*
G36*
X69605044Y-44167332D02*
G01*
X69606280Y-44106364D01*
X69608706Y-44063520D01*
X69612623Y-44035162D01*
X69618333Y-44017657D01*
X69624657Y-44008758D01*
X69632579Y-44003437D01*
X69646274Y-43999137D01*
X69668225Y-43995751D01*
X69700916Y-43993176D01*
X69746834Y-43991307D01*
X69808461Y-43990040D01*
X69888283Y-43989270D01*
X69988784Y-43988892D01*
X70098938Y-43988800D01*
X70218804Y-43988871D01*
X70315826Y-43989168D01*
X70392564Y-43989814D01*
X70451572Y-43990936D01*
X70495410Y-43992657D01*
X70526634Y-43995104D01*
X70547801Y-43998401D01*
X70561468Y-44002673D01*
X70570193Y-44008044D01*
X70574281Y-44012026D01*
X70582116Y-44024073D01*
X70587776Y-44042788D01*
X70591593Y-44071973D01*
X70593899Y-44115430D01*
X70595023Y-44176961D01*
X70595300Y-44253326D01*
X70595300Y-44471400D01*
X69604700Y-44471400D01*
X69604700Y-44250058D01*
X69605044Y-44167332D01*
X69605044Y-44167332D01*
G37*
X69605044Y-44167332D02*
X69606280Y-44106364D01*
X69608706Y-44063520D01*
X69612623Y-44035162D01*
X69618333Y-44017657D01*
X69624657Y-44008758D01*
X69632579Y-44003437D01*
X69646274Y-43999137D01*
X69668225Y-43995751D01*
X69700916Y-43993176D01*
X69746834Y-43991307D01*
X69808461Y-43990040D01*
X69888283Y-43989270D01*
X69988784Y-43988892D01*
X70098938Y-43988800D01*
X70218804Y-43988871D01*
X70315826Y-43989168D01*
X70392564Y-43989814D01*
X70451572Y-43990936D01*
X70495410Y-43992657D01*
X70526634Y-43995104D01*
X70547801Y-43998401D01*
X70561468Y-44002673D01*
X70570193Y-44008044D01*
X70574281Y-44012026D01*
X70582116Y-44024073D01*
X70587776Y-44042788D01*
X70591593Y-44071973D01*
X70593899Y-44115430D01*
X70595023Y-44176961D01*
X70595300Y-44253326D01*
X70595300Y-44471400D01*
X69604700Y-44471400D01*
X69604700Y-44250058D01*
X69605044Y-44167332D01*
G36*
X70595300Y-44623800D02*
G01*
X70595300Y-45106400D01*
X69604700Y-45106400D01*
X69604700Y-44623800D01*
X70595300Y-44623800D01*
X70595300Y-44623800D01*
G37*
X70595300Y-44623800D02*
X70595300Y-45106400D01*
X69604700Y-45106400D01*
X69604700Y-44623800D01*
X70595300Y-44623800D01*
G36*
X69604700Y-45258800D02*
G01*
X70595300Y-45258800D01*
X70595300Y-45472732D01*
X70595046Y-45552222D01*
X70594028Y-45610215D01*
X70591860Y-45650615D01*
X70588157Y-45677322D01*
X70582532Y-45694238D01*
X70574600Y-45705264D01*
X70572074Y-45707682D01*
X70563710Y-45713276D01*
X70550555Y-45717793D01*
X70530068Y-45721345D01*
X70499706Y-45724045D01*
X70456929Y-45726006D01*
X70399192Y-45727339D01*
X70323956Y-45728158D01*
X70228676Y-45728574D01*
X70110812Y-45728700D01*
X70096732Y-45728700D01*
X69975816Y-45728585D01*
X69877809Y-45728170D01*
X69800219Y-45727349D01*
X69740555Y-45726016D01*
X69696327Y-45724068D01*
X69665043Y-45721398D01*
X69644213Y-45717900D01*
X69631346Y-45713471D01*
X69624657Y-45708743D01*
X69617126Y-45697310D01*
X69611697Y-45677920D01*
X69608056Y-45646881D01*
X69605889Y-45600504D01*
X69604882Y-45535097D01*
X69604699Y-45473793D01*
X69604700Y-45258800D01*
X69604700Y-45258800D01*
G37*
X69604700Y-45258800D02*
X70595300Y-45258800D01*
X70595300Y-45472732D01*
X70595046Y-45552222D01*
X70594028Y-45610215D01*
X70591860Y-45650615D01*
X70588157Y-45677322D01*
X70582532Y-45694238D01*
X70574600Y-45705264D01*
X70572074Y-45707682D01*
X70563710Y-45713276D01*
X70550555Y-45717793D01*
X70530068Y-45721345D01*
X70499706Y-45724045D01*
X70456929Y-45726006D01*
X70399192Y-45727339D01*
X70323956Y-45728158D01*
X70228676Y-45728574D01*
X70110812Y-45728700D01*
X70096732Y-45728700D01*
X69975816Y-45728585D01*
X69877809Y-45728170D01*
X69800219Y-45727349D01*
X69740555Y-45726016D01*
X69696327Y-45724068D01*
X69665043Y-45721398D01*
X69644213Y-45717900D01*
X69631346Y-45713471D01*
X69624657Y-45708743D01*
X69617126Y-45697310D01*
X69611697Y-45677920D01*
X69608056Y-45646881D01*
X69605889Y-45600504D01*
X69604882Y-45535097D01*
X69604699Y-45473793D01*
X69604700Y-45258800D01*
G36*
X69406730Y-43776784D02*
G01*
X69422106Y-43760520D01*
X69438454Y-43749900D01*
X69461576Y-43743460D01*
X69497277Y-43739740D01*
X69551360Y-43737276D01*
X69565480Y-43736785D01*
X69693599Y-43732420D01*
X69693599Y-43596450D01*
X69695151Y-43523587D01*
X69699728Y-43473491D01*
X69707217Y-43447302D01*
X69708840Y-43445240D01*
X69725900Y-43440609D01*
X69764449Y-43436748D01*
X69820584Y-43433658D01*
X69890406Y-43431339D01*
X69970013Y-43429791D01*
X70055505Y-43429014D01*
X70142982Y-43429007D01*
X70228541Y-43429771D01*
X70308284Y-43431306D01*
X70378309Y-43433612D01*
X70434715Y-43436688D01*
X70473602Y-43440535D01*
X70491069Y-43445154D01*
X70491159Y-43445240D01*
X70499152Y-43467075D01*
X70504254Y-43513017D01*
X70506350Y-43581929D01*
X70506400Y-43596450D01*
X70506400Y-43732420D01*
X70634519Y-43736785D01*
X70693162Y-43739172D01*
X70732215Y-43742510D01*
X70757479Y-43748262D01*
X70774760Y-43757890D01*
X70789859Y-43772858D01*
X70793269Y-43776784D01*
X70823900Y-43812417D01*
X70823900Y-45907655D01*
X70792727Y-45938828D01*
X70761554Y-45970000D01*
X69503100Y-45970000D01*
X69503100Y-45843000D01*
X70696900Y-45843000D01*
X70696900Y-43861800D01*
X69820600Y-43861800D01*
X69820600Y-43734800D01*
X70379400Y-43734800D01*
X70379400Y-43557000D01*
X69820600Y-43557000D01*
X69820600Y-43734800D01*
X69820600Y-43861800D01*
X69503100Y-43861800D01*
X69503100Y-45843000D01*
X69503100Y-45970000D01*
X69438445Y-45970000D01*
X69407272Y-45938828D01*
X69376100Y-45907655D01*
X69376100Y-43812417D01*
X69406730Y-43776784D01*
X69406730Y-43776784D01*
G37*
X69406730Y-43776784D02*
X69422106Y-43760520D01*
X69438454Y-43749900D01*
X69461576Y-43743460D01*
X69497277Y-43739740D01*
X69551360Y-43737276D01*
X69565480Y-43736785D01*
X69693599Y-43732420D01*
X69693599Y-43596450D01*
X69695151Y-43523587D01*
X69699728Y-43473491D01*
X69707217Y-43447302D01*
X69708840Y-43445240D01*
X69725900Y-43440609D01*
X69764449Y-43436748D01*
X69820584Y-43433658D01*
X69890406Y-43431339D01*
X69970013Y-43429791D01*
X70055505Y-43429014D01*
X70142982Y-43429007D01*
X70228541Y-43429771D01*
X70308284Y-43431306D01*
X70378309Y-43433612D01*
X70434715Y-43436688D01*
X70473602Y-43440535D01*
X70491069Y-43445154D01*
X70491159Y-43445240D01*
X70499152Y-43467075D01*
X70504254Y-43513017D01*
X70506350Y-43581929D01*
X70506400Y-43596450D01*
X70506400Y-43732420D01*
X70634519Y-43736785D01*
X70693162Y-43739172D01*
X70732215Y-43742510D01*
X70757479Y-43748262D01*
X70774760Y-43757890D01*
X70789859Y-43772858D01*
X70793269Y-43776784D01*
X70823900Y-43812417D01*
X70823900Y-45907655D01*
X70792727Y-45938828D01*
X70761554Y-45970000D01*
X69503100Y-45970000D01*
X69503100Y-45843000D01*
X70696900Y-45843000D01*
X70696900Y-43861800D01*
X69820600Y-43861800D01*
X69820600Y-43734800D01*
X70379400Y-43734800D01*
X70379400Y-43557000D01*
X69820600Y-43557000D01*
X69820600Y-43734800D01*
X69820600Y-43861800D01*
X69503100Y-43861800D01*
X69503100Y-45843000D01*
X69503100Y-45970000D01*
X69438445Y-45970000D01*
X69407272Y-45938828D01*
X69376100Y-45907655D01*
X69376100Y-43812417D01*
X69406730Y-43776784D01*
D10*
X63303922Y-45410000D02*
X63821078Y-45410000D01*
X63303922Y-43990000D02*
X63821078Y-43990000D01*
X74847500Y-43940000D02*
X72162500Y-43940000D01*
X74847500Y-45860000D02*
X74847500Y-43940000D01*
X72162500Y-45860000D02*
X74847500Y-45860000D01*
D11*
X92400000Y-40800000D02*
X92400000Y-49200000D01*
X86500000Y-41000000D02*
X86500000Y-40500000D01*
X87000000Y-41500000D02*
X86500000Y-41000000D01*
X87000000Y-48500000D02*
X87000000Y-41500000D01*
X86500000Y-49000000D02*
X87000000Y-48500000D01*
X86500000Y-49500000D02*
X86500000Y-49000000D01*
X93300000Y-40500000D02*
X93300000Y-49500000D01*
X86500000Y-40500000D02*
X93300000Y-40500000D01*
X86500000Y-49500000D02*
X93300000Y-49500000D01*
D10*
X57100000Y-49860000D02*
X59550000Y-49860000D01*
X58900000Y-46640000D02*
X57100000Y-46640000D01*
X80790000Y-47403922D02*
X80790000Y-47921078D01*
X82210000Y-47403922D02*
X82210000Y-47921078D01*
X82210000Y-42321078D02*
X82210000Y-41803922D01*
X80790000Y-42321078D02*
X80790000Y-41803922D01*
X63821078Y-40290000D02*
X63303922Y-40290000D01*
X63821078Y-41710000D02*
X63303922Y-41710000D01*
X57810000Y-42296078D02*
X57810000Y-41778922D01*
X56390000Y-42296078D02*
X56390000Y-41778922D01*
X71477500Y-40960000D02*
X74162500Y-40960000D01*
X71477500Y-39040000D02*
X71477500Y-40960000D01*
X74162500Y-39040000D02*
X71477500Y-39040000D01*
X72803922Y-50960000D02*
X73321078Y-50960000D01*
X72803922Y-49540000D02*
X73321078Y-49540000D01*
X63921078Y-48990000D02*
X63403922Y-48990000D01*
X63921078Y-50410000D02*
X63403922Y-50410000D01*
D16*
X63716666Y-46726190D02*
X63550000Y-46488095D01*
X63430952Y-46726190D02*
X63430952Y-46226190D01*
X63621428Y-46226190D01*
X63669047Y-46250000D01*
X63692857Y-46273809D01*
X63716666Y-46321428D01*
X63716666Y-46392857D01*
X63692857Y-46440476D01*
X63669047Y-46464285D01*
X63621428Y-46488095D01*
X63430952Y-46488095D01*
X64169047Y-46226190D02*
X63930952Y-46226190D01*
X63907142Y-46464285D01*
X63930952Y-46440476D01*
X63978571Y-46416666D01*
X64097619Y-46416666D01*
X64145238Y-46440476D01*
X64169047Y-46464285D01*
X64192857Y-46511904D01*
X64192857Y-46630952D01*
X64169047Y-46678571D01*
X64145238Y-46702380D01*
X64097619Y-46726190D01*
X63978571Y-46726190D01*
X63930952Y-46702380D01*
X63907142Y-46678571D01*
D12*
D16*
X75655952Y-45126190D02*
X75655952Y-44626190D01*
X75775000Y-44626190D01*
X75846428Y-44650000D01*
X75894047Y-44697619D01*
X75917857Y-44745238D01*
X75941666Y-44840476D01*
X75941666Y-44911904D01*
X75917857Y-45007142D01*
X75894047Y-45054761D01*
X75846428Y-45102380D01*
X75775000Y-45126190D01*
X75655952Y-45126190D01*
X76132142Y-44673809D02*
X76155952Y-44650000D01*
X76203571Y-44626190D01*
X76322619Y-44626190D01*
X76370238Y-44650000D01*
X76394047Y-44673809D01*
X76417857Y-44721428D01*
X76417857Y-44769047D01*
X76394047Y-44840476D01*
X76108333Y-45126190D01*
X76417857Y-45126190D01*
D11*
X91226190Y-45369047D02*
X90726190Y-45369047D01*
X90726190Y-45178571D01*
X90750000Y-45130952D01*
X90773809Y-45107142D01*
X90821428Y-45083333D01*
X90892857Y-45083333D01*
X90940476Y-45107142D01*
X90964285Y-45130952D01*
X90988095Y-45178571D01*
X90988095Y-45369047D01*
X91226190Y-44607142D02*
X91226190Y-44892857D01*
X91226190Y-44750000D02*
X90726190Y-44750000D01*
X90797619Y-44797619D01*
X90845238Y-44845238D01*
X90869047Y-44892857D01*
D16*
X57429047Y-45356190D02*
X57429047Y-45760952D01*
X57452857Y-45808571D01*
X57476666Y-45832380D01*
X57524285Y-45856190D01*
X57619523Y-45856190D01*
X57667142Y-45832380D01*
X57690952Y-45808571D01*
X57714761Y-45760952D01*
X57714761Y-45356190D01*
X58214761Y-45856190D02*
X57929047Y-45856190D01*
X58071904Y-45856190D02*
X58071904Y-45356190D01*
X58024285Y-45427619D01*
X57976666Y-45475238D01*
X57929047Y-45499047D01*
X81516666Y-50426190D02*
X81350000Y-50188095D01*
X81230952Y-50426190D02*
X81230952Y-49926190D01*
X81421428Y-49926190D01*
X81469047Y-49950000D01*
X81492857Y-49973809D01*
X81516666Y-50021428D01*
X81516666Y-50092857D01*
X81492857Y-50140476D01*
X81469047Y-50164285D01*
X81421428Y-50188095D01*
X81230952Y-50188095D01*
X81945238Y-50092857D02*
X81945238Y-50426190D01*
X81826190Y-49902380D02*
X81707142Y-50259523D01*
X82016666Y-50259523D01*
X81416666Y-44826190D02*
X81250000Y-44588095D01*
X81130952Y-44826190D02*
X81130952Y-44326190D01*
X81321428Y-44326190D01*
X81369047Y-44350000D01*
X81392857Y-44373809D01*
X81416666Y-44421428D01*
X81416666Y-44492857D01*
X81392857Y-44540476D01*
X81369047Y-44564285D01*
X81321428Y-44588095D01*
X81130952Y-44588095D01*
X81583333Y-44326190D02*
X81892857Y-44326190D01*
X81726190Y-44516666D01*
X81797619Y-44516666D01*
X81845238Y-44540476D01*
X81869047Y-44564285D01*
X81892857Y-44611904D01*
X81892857Y-44730952D01*
X81869047Y-44778571D01*
X81845238Y-44802380D01*
X81797619Y-44826190D01*
X81654761Y-44826190D01*
X81607142Y-44802380D01*
X81583333Y-44778571D01*
X63501666Y-42926190D02*
X63335000Y-42688095D01*
X63215952Y-42926190D02*
X63215952Y-42426190D01*
X63406428Y-42426190D01*
X63454047Y-42450000D01*
X63477857Y-42473809D01*
X63501666Y-42521428D01*
X63501666Y-42592857D01*
X63477857Y-42640476D01*
X63454047Y-42664285D01*
X63406428Y-42688095D01*
X63215952Y-42688095D01*
X63692142Y-42473809D02*
X63715952Y-42450000D01*
X63763571Y-42426190D01*
X63882619Y-42426190D01*
X63930238Y-42450000D01*
X63954047Y-42473809D01*
X63977857Y-42521428D01*
X63977857Y-42569047D01*
X63954047Y-42640476D01*
X63668333Y-42926190D01*
X63977857Y-42926190D01*
X57016666Y-39736190D02*
X56850000Y-39498095D01*
X56730952Y-39736190D02*
X56730952Y-39236190D01*
X56921428Y-39236190D01*
X56969047Y-39260000D01*
X56992857Y-39283809D01*
X57016666Y-39331428D01*
X57016666Y-39402857D01*
X56992857Y-39450476D01*
X56969047Y-39474285D01*
X56921428Y-39498095D01*
X56730952Y-39498095D01*
X57492857Y-39736190D02*
X57207142Y-39736190D01*
X57350000Y-39736190D02*
X57350000Y-39236190D01*
X57302380Y-39307619D01*
X57254761Y-39355238D01*
X57207142Y-39379047D01*
X75630952Y-40226190D02*
X75630952Y-39726190D01*
X75750000Y-39726190D01*
X75821428Y-39750000D01*
X75869047Y-39797619D01*
X75892857Y-39845238D01*
X75916666Y-39940476D01*
X75916666Y-40011904D01*
X75892857Y-40107142D01*
X75869047Y-40154761D01*
X75821428Y-40202380D01*
X75750000Y-40226190D01*
X75630952Y-40226190D01*
X76392857Y-40226190D02*
X76107142Y-40226190D01*
X76250000Y-40226190D02*
X76250000Y-39726190D01*
X76202380Y-39797619D01*
X76154761Y-39845238D01*
X76107142Y-39869047D01*
X72901666Y-52158571D02*
X72877857Y-52182380D01*
X72806428Y-52206190D01*
X72758809Y-52206190D01*
X72687380Y-52182380D01*
X72639761Y-52134761D01*
X72615952Y-52087142D01*
X72592142Y-51991904D01*
X72592142Y-51920476D01*
X72615952Y-51825238D01*
X72639761Y-51777619D01*
X72687380Y-51730000D01*
X72758809Y-51706190D01*
X72806428Y-51706190D01*
X72877857Y-51730000D01*
X72901666Y-51753809D01*
X73092142Y-51753809D02*
X73115952Y-51730000D01*
X73163571Y-51706190D01*
X73282619Y-51706190D01*
X73330238Y-51730000D01*
X73354047Y-51753809D01*
X73377857Y-51801428D01*
X73377857Y-51849047D01*
X73354047Y-51920476D01*
X73068333Y-52206190D01*
X73377857Y-52206190D01*
X63579166Y-51528571D02*
X63555357Y-51552380D01*
X63483928Y-51576190D01*
X63436309Y-51576190D01*
X63364880Y-51552380D01*
X63317261Y-51504761D01*
X63293452Y-51457142D01*
X63269642Y-51361904D01*
X63269642Y-51290476D01*
X63293452Y-51195238D01*
X63317261Y-51147619D01*
X63364880Y-51100000D01*
X63436309Y-51076190D01*
X63483928Y-51076190D01*
X63555357Y-51100000D01*
X63579166Y-51123809D01*
X64055357Y-51576190D02*
X63769642Y-51576190D01*
X63912500Y-51576190D02*
X63912500Y-51076190D01*
X63864880Y-51147619D01*
X63817261Y-51195238D01*
X63769642Y-51219047D01*
D12*
M02*
