G04 #@! TF.GenerationSoftware,KiCad,Pcbnew,(5.1.2-1)-1*
G04 #@! TF.CreationDate,2021-02-06T10:41:02+01:00*
G04 #@! TF.ProjectId,lir2450-charger,6c697232-3435-4302-9d63-686172676572,1.0.0*
G04 #@! TF.SameCoordinates,Original*
G04 #@! TF.FileFunction,Copper,L2,Bot*
G04 #@! TF.FilePolarity,Positive*
%FSLAX46Y46*%
G04 Gerber Fmt 4.6, Leading zero omitted, Abs format (unit mm)*
G04 Created by KiCad (PCBNEW (5.1.2-1)-1) date 2021-02-06 10:41:02*
%MOMM*%
%LPD*%
G04 APERTURE LIST*
%ADD10C,20.000001*%
%ADD11R,6.000001X5.499999*%
%ADD12C,0.100000*%
%ADD13C,1.000000*%
%ADD14C,0.800000*%
%ADD15C,0.250000*%
%ADD16C,0.254000*%
G04 APERTURE END LIST*
D10*
X73000000Y-44920000D03*
D11*
X57700000Y-44920000D03*
X88300000Y-44920000D03*
D12*
G36*
X87549009Y-48822407D02*
G01*
X87597545Y-48829606D01*
X87645142Y-48841529D01*
X87691342Y-48858059D01*
X87735698Y-48879038D01*
X87777785Y-48904264D01*
X87817197Y-48933494D01*
X87853553Y-48966446D01*
X87886505Y-49002802D01*
X87915735Y-49042214D01*
X87940961Y-49084301D01*
X87961940Y-49128657D01*
X87978470Y-49174857D01*
X87990393Y-49222454D01*
X87997592Y-49270990D01*
X88000000Y-49319999D01*
X88000000Y-49320001D01*
X87997592Y-49369010D01*
X87990393Y-49417546D01*
X87978470Y-49465143D01*
X87961940Y-49511343D01*
X87940961Y-49555699D01*
X87915735Y-49597786D01*
X87886505Y-49637198D01*
X87853553Y-49673554D01*
X87817197Y-49706506D01*
X87777785Y-49735736D01*
X87735698Y-49760962D01*
X87691342Y-49781941D01*
X87645142Y-49798471D01*
X87597545Y-49810394D01*
X87549009Y-49817593D01*
X87500000Y-49820001D01*
X86900000Y-49820001D01*
X86850991Y-49817593D01*
X86802455Y-49810394D01*
X86754858Y-49798471D01*
X86708658Y-49781941D01*
X86664302Y-49760962D01*
X86622215Y-49735736D01*
X86582803Y-49706506D01*
X86546447Y-49673554D01*
X86513495Y-49637198D01*
X86484265Y-49597786D01*
X86459039Y-49555699D01*
X86438060Y-49511343D01*
X86421530Y-49465143D01*
X86409607Y-49417546D01*
X86402408Y-49369010D01*
X86400000Y-49320001D01*
X86400000Y-49319999D01*
X86402408Y-49270990D01*
X86409607Y-49222454D01*
X86421530Y-49174857D01*
X86438060Y-49128657D01*
X86459039Y-49084301D01*
X86484265Y-49042214D01*
X86513495Y-49002802D01*
X86546447Y-48966446D01*
X86582803Y-48933494D01*
X86622215Y-48904264D01*
X86664302Y-48879038D01*
X86708658Y-48858059D01*
X86754858Y-48841529D01*
X86802455Y-48829606D01*
X86850991Y-48822407D01*
X86900000Y-48819999D01*
X87500000Y-48819999D01*
X87549009Y-48822407D01*
X87549009Y-48822407D01*
G37*
D13*
X87200000Y-49320000D03*
D12*
G36*
X87549009Y-40182407D02*
G01*
X87597545Y-40189606D01*
X87645142Y-40201529D01*
X87691342Y-40218059D01*
X87735698Y-40239038D01*
X87777785Y-40264264D01*
X87817197Y-40293494D01*
X87853553Y-40326446D01*
X87886505Y-40362802D01*
X87915735Y-40402214D01*
X87940961Y-40444301D01*
X87961940Y-40488657D01*
X87978470Y-40534857D01*
X87990393Y-40582454D01*
X87997592Y-40630990D01*
X88000000Y-40679999D01*
X88000000Y-40680001D01*
X87997592Y-40729010D01*
X87990393Y-40777546D01*
X87978470Y-40825143D01*
X87961940Y-40871343D01*
X87940961Y-40915699D01*
X87915735Y-40957786D01*
X87886505Y-40997198D01*
X87853553Y-41033554D01*
X87817197Y-41066506D01*
X87777785Y-41095736D01*
X87735698Y-41120962D01*
X87691342Y-41141941D01*
X87645142Y-41158471D01*
X87597545Y-41170394D01*
X87549009Y-41177593D01*
X87500000Y-41180001D01*
X86900000Y-41180001D01*
X86850991Y-41177593D01*
X86802455Y-41170394D01*
X86754858Y-41158471D01*
X86708658Y-41141941D01*
X86664302Y-41120962D01*
X86622215Y-41095736D01*
X86582803Y-41066506D01*
X86546447Y-41033554D01*
X86513495Y-40997198D01*
X86484265Y-40957786D01*
X86459039Y-40915699D01*
X86438060Y-40871343D01*
X86421530Y-40825143D01*
X86409607Y-40777546D01*
X86402408Y-40729010D01*
X86400000Y-40680001D01*
X86400000Y-40679999D01*
X86402408Y-40630990D01*
X86409607Y-40582454D01*
X86421530Y-40534857D01*
X86438060Y-40488657D01*
X86459039Y-40444301D01*
X86484265Y-40402214D01*
X86513495Y-40362802D01*
X86546447Y-40326446D01*
X86582803Y-40293494D01*
X86622215Y-40264264D01*
X86664302Y-40239038D01*
X86708658Y-40218059D01*
X86754858Y-40201529D01*
X86802455Y-40189606D01*
X86850991Y-40182407D01*
X86900000Y-40179999D01*
X87500000Y-40179999D01*
X87549009Y-40182407D01*
X87549009Y-40182407D01*
G37*
D13*
X87200000Y-40680000D03*
D12*
G36*
X91349009Y-40182407D02*
G01*
X91397545Y-40189606D01*
X91445142Y-40201529D01*
X91491342Y-40218059D01*
X91535698Y-40239038D01*
X91577785Y-40264264D01*
X91617197Y-40293494D01*
X91653553Y-40326446D01*
X91686505Y-40362802D01*
X91715735Y-40402214D01*
X91740961Y-40444301D01*
X91761940Y-40488657D01*
X91778470Y-40534857D01*
X91790393Y-40582454D01*
X91797592Y-40630990D01*
X91800000Y-40679999D01*
X91800000Y-40680001D01*
X91797592Y-40729010D01*
X91790393Y-40777546D01*
X91778470Y-40825143D01*
X91761940Y-40871343D01*
X91740961Y-40915699D01*
X91715735Y-40957786D01*
X91686505Y-40997198D01*
X91653553Y-41033554D01*
X91617197Y-41066506D01*
X91577785Y-41095736D01*
X91535698Y-41120962D01*
X91491342Y-41141941D01*
X91445142Y-41158471D01*
X91397545Y-41170394D01*
X91349009Y-41177593D01*
X91300000Y-41180001D01*
X90700000Y-41180001D01*
X90650991Y-41177593D01*
X90602455Y-41170394D01*
X90554858Y-41158471D01*
X90508658Y-41141941D01*
X90464302Y-41120962D01*
X90422215Y-41095736D01*
X90382803Y-41066506D01*
X90346447Y-41033554D01*
X90313495Y-40997198D01*
X90284265Y-40957786D01*
X90259039Y-40915699D01*
X90238060Y-40871343D01*
X90221530Y-40825143D01*
X90209607Y-40777546D01*
X90202408Y-40729010D01*
X90200000Y-40680001D01*
X90200000Y-40679999D01*
X90202408Y-40630990D01*
X90209607Y-40582454D01*
X90221530Y-40534857D01*
X90238060Y-40488657D01*
X90259039Y-40444301D01*
X90284265Y-40402214D01*
X90313495Y-40362802D01*
X90346447Y-40326446D01*
X90382803Y-40293494D01*
X90422215Y-40264264D01*
X90464302Y-40239038D01*
X90508658Y-40218059D01*
X90554858Y-40201529D01*
X90602455Y-40189606D01*
X90650991Y-40182407D01*
X90700000Y-40179999D01*
X91300000Y-40179999D01*
X91349009Y-40182407D01*
X91349009Y-40182407D01*
G37*
D13*
X91000000Y-40680000D03*
D12*
G36*
X91349009Y-48822407D02*
G01*
X91397545Y-48829606D01*
X91445142Y-48841529D01*
X91491342Y-48858059D01*
X91535698Y-48879038D01*
X91577785Y-48904264D01*
X91617197Y-48933494D01*
X91653553Y-48966446D01*
X91686505Y-49002802D01*
X91715735Y-49042214D01*
X91740961Y-49084301D01*
X91761940Y-49128657D01*
X91778470Y-49174857D01*
X91790393Y-49222454D01*
X91797592Y-49270990D01*
X91800000Y-49319999D01*
X91800000Y-49320001D01*
X91797592Y-49369010D01*
X91790393Y-49417546D01*
X91778470Y-49465143D01*
X91761940Y-49511343D01*
X91740961Y-49555699D01*
X91715735Y-49597786D01*
X91686505Y-49637198D01*
X91653553Y-49673554D01*
X91617197Y-49706506D01*
X91577785Y-49735736D01*
X91535698Y-49760962D01*
X91491342Y-49781941D01*
X91445142Y-49798471D01*
X91397545Y-49810394D01*
X91349009Y-49817593D01*
X91300000Y-49820001D01*
X90700000Y-49820001D01*
X90650991Y-49817593D01*
X90602455Y-49810394D01*
X90554858Y-49798471D01*
X90508658Y-49781941D01*
X90464302Y-49760962D01*
X90422215Y-49735736D01*
X90382803Y-49706506D01*
X90346447Y-49673554D01*
X90313495Y-49637198D01*
X90284265Y-49597786D01*
X90259039Y-49555699D01*
X90238060Y-49511343D01*
X90221530Y-49465143D01*
X90209607Y-49417546D01*
X90202408Y-49369010D01*
X90200000Y-49320001D01*
X90200000Y-49319999D01*
X90202408Y-49270990D01*
X90209607Y-49222454D01*
X90221530Y-49174857D01*
X90238060Y-49128657D01*
X90259039Y-49084301D01*
X90284265Y-49042214D01*
X90313495Y-49002802D01*
X90346447Y-48966446D01*
X90382803Y-48933494D01*
X90422215Y-48904264D01*
X90464302Y-48879038D01*
X90508658Y-48858059D01*
X90554858Y-48841529D01*
X90602455Y-48829606D01*
X90650991Y-48822407D01*
X90700000Y-48819999D01*
X91300000Y-48819999D01*
X91349009Y-48822407D01*
X91349009Y-48822407D01*
G37*
D13*
X91000000Y-49320000D03*
D14*
X89850000Y-45400000D03*
X57700000Y-44920000D03*
X60950000Y-50500000D03*
X61500000Y-43050000D03*
D15*
X61500000Y-49950000D02*
X61500000Y-43050000D01*
X60950000Y-50500000D02*
X61500000Y-49950000D01*
D16*
G36*
X74501348Y-31456281D02*
G01*
X76628325Y-31635415D01*
X78737607Y-31962480D01*
X80818950Y-32435886D01*
X82862192Y-33053325D01*
X84857381Y-33811788D01*
X86794815Y-34707586D01*
X87918791Y-35325856D01*
X87639245Y-35359191D01*
X87327414Y-35460511D01*
X87041201Y-35620469D01*
X86791509Y-35832974D01*
X86587848Y-36089930D01*
X86437976Y-36381551D01*
X86347600Y-36696728D01*
X86320164Y-37023456D01*
X86356712Y-37349292D01*
X86455853Y-37661822D01*
X86613809Y-37949145D01*
X86824566Y-38200314D01*
X87080094Y-38405764D01*
X87370661Y-38557669D01*
X87685199Y-38650243D01*
X88011729Y-38679959D01*
X88337811Y-38645686D01*
X88651026Y-38548730D01*
X88939444Y-38392783D01*
X89192079Y-38183785D01*
X89399308Y-37929698D01*
X89553237Y-37640198D01*
X89648005Y-37326314D01*
X89680000Y-37000000D01*
X89679345Y-36953092D01*
X89638251Y-36627799D01*
X89534756Y-36316682D01*
X89517243Y-36285854D01*
X90458928Y-36893056D01*
X92174709Y-38177281D01*
X92340000Y-38312618D01*
X92340000Y-39843210D01*
X92330537Y-39825506D01*
X92251185Y-39728815D01*
X92154494Y-39649463D01*
X92044180Y-39590498D01*
X91924482Y-39554188D01*
X91800000Y-39541928D01*
X91285750Y-39545000D01*
X91127000Y-39703750D01*
X91127000Y-40553000D01*
X91147000Y-40553000D01*
X91147000Y-40807000D01*
X91127000Y-40807000D01*
X91127000Y-40827000D01*
X90873000Y-40827000D01*
X90873000Y-40807000D01*
X89723750Y-40807000D01*
X89565000Y-40965750D01*
X89561928Y-41180000D01*
X89574188Y-41304482D01*
X89610498Y-41424180D01*
X89668092Y-41531929D01*
X88531908Y-41531929D01*
X88589502Y-41424180D01*
X88625812Y-41304482D01*
X88638072Y-41180000D01*
X88635000Y-40965750D01*
X88476250Y-40807000D01*
X87327000Y-40807000D01*
X87327000Y-40827000D01*
X87073000Y-40827000D01*
X87073000Y-40807000D01*
X85923750Y-40807000D01*
X85765000Y-40965750D01*
X85761928Y-41180000D01*
X85774188Y-41304482D01*
X85810498Y-41424180D01*
X85868092Y-41531929D01*
X85300000Y-41531929D01*
X85175518Y-41544189D01*
X85055820Y-41580499D01*
X84945506Y-41639464D01*
X84848815Y-41718816D01*
X84769463Y-41815507D01*
X84710498Y-41925821D01*
X84674188Y-42045519D01*
X84661928Y-42170001D01*
X84661928Y-47669999D01*
X84674188Y-47794481D01*
X84710498Y-47914179D01*
X84769463Y-48024493D01*
X84848815Y-48121184D01*
X84945506Y-48200536D01*
X85055820Y-48259501D01*
X85175518Y-48295811D01*
X85300000Y-48308071D01*
X86022832Y-48308071D01*
X85948815Y-48368815D01*
X85869463Y-48465506D01*
X85810498Y-48575820D01*
X85774188Y-48695518D01*
X85761928Y-48820000D01*
X85765000Y-49034250D01*
X85923750Y-49193000D01*
X87073000Y-49193000D01*
X87073000Y-49173000D01*
X87327000Y-49173000D01*
X87327000Y-49193000D01*
X88476250Y-49193000D01*
X88635000Y-49034250D01*
X88638072Y-48820000D01*
X88625812Y-48695518D01*
X88589502Y-48575820D01*
X88530537Y-48465506D01*
X88451185Y-48368815D01*
X88377168Y-48308071D01*
X89822832Y-48308071D01*
X89748815Y-48368815D01*
X89669463Y-48465506D01*
X89610498Y-48575820D01*
X89574188Y-48695518D01*
X89561928Y-48820000D01*
X89565000Y-49034250D01*
X89723750Y-49193000D01*
X90873000Y-49193000D01*
X90873000Y-49173000D01*
X91127000Y-49173000D01*
X91127000Y-49193000D01*
X91147000Y-49193000D01*
X91147000Y-49447000D01*
X91127000Y-49447000D01*
X91127000Y-50296250D01*
X91285750Y-50455000D01*
X91800000Y-50458072D01*
X91924482Y-50445812D01*
X92044180Y-50409502D01*
X92154494Y-50350537D01*
X92251185Y-50271185D01*
X92330537Y-50174494D01*
X92340001Y-50156789D01*
X92340001Y-55092097D01*
X85045622Y-58739288D01*
X83688330Y-57881826D01*
X83688314Y-57881815D01*
X83654707Y-57862582D01*
X83638342Y-57853216D01*
X83638332Y-57853212D01*
X82024987Y-57021131D01*
X82024960Y-57021116D01*
X81986754Y-57003478D01*
X81972684Y-56996981D01*
X81972672Y-56996977D01*
X80292940Y-56308670D01*
X80292921Y-56308661D01*
X80258922Y-56296433D01*
X80238741Y-56289174D01*
X80238720Y-56289168D01*
X78505399Y-55749883D01*
X78505378Y-55749876D01*
X78477542Y-55742531D01*
X78449706Y-55735185D01*
X78449684Y-55735181D01*
X76675958Y-55349017D01*
X76675936Y-55349011D01*
X76649817Y-55344508D01*
X76619196Y-55339228D01*
X76619170Y-55339226D01*
X75663616Y-55217115D01*
X76817655Y-54901277D01*
X78691551Y-53964702D01*
X79178153Y-53639564D01*
X80353870Y-52453475D01*
X73000000Y-45099605D01*
X65646130Y-52453475D01*
X66821847Y-53639564D01*
X68641661Y-54677318D01*
X70279964Y-55223709D01*
X69220185Y-55367328D01*
X69163521Y-55377541D01*
X69163499Y-55377547D01*
X67392762Y-55777171D01*
X67392735Y-55777176D01*
X67337177Y-55792290D01*
X65607960Y-56344739D01*
X65553930Y-56364637D01*
X63879442Y-57065694D01*
X63827352Y-57090225D01*
X63827344Y-57090230D01*
X62220346Y-57934551D01*
X62220336Y-57934556D01*
X62202024Y-57945222D01*
X62170583Y-57963534D01*
X62170567Y-57963545D01*
X60949378Y-58748064D01*
X53087659Y-55079652D01*
X53087659Y-54023456D01*
X55320164Y-54023456D01*
X55356712Y-54349292D01*
X55455853Y-54661822D01*
X55613809Y-54949145D01*
X55824566Y-55200314D01*
X56080094Y-55405764D01*
X56370661Y-55557669D01*
X56685199Y-55650243D01*
X57011729Y-55679959D01*
X57337811Y-55645686D01*
X57651026Y-55548730D01*
X57939444Y-55392783D01*
X58192079Y-55183785D01*
X58399308Y-54929698D01*
X58553237Y-54640198D01*
X58648005Y-54326314D01*
X58680000Y-54000000D01*
X58679345Y-53953092D01*
X58638251Y-53627799D01*
X58534756Y-53316682D01*
X58372803Y-53031594D01*
X58158561Y-52783391D01*
X57900189Y-52581529D01*
X57607529Y-52433696D01*
X57291729Y-52345523D01*
X56964817Y-52320368D01*
X56639245Y-52359191D01*
X56327414Y-52460511D01*
X56041201Y-52620469D01*
X55791509Y-52832974D01*
X55587848Y-53089930D01*
X55437976Y-53381551D01*
X55347600Y-53696728D01*
X55320164Y-54023456D01*
X53087659Y-54023456D01*
X53087659Y-42170001D01*
X54061928Y-42170001D01*
X54061928Y-47669999D01*
X54074188Y-47794481D01*
X54110498Y-47914179D01*
X54169463Y-48024493D01*
X54248815Y-48121184D01*
X54345506Y-48200536D01*
X54455820Y-48259501D01*
X54575518Y-48295811D01*
X54700000Y-48308071D01*
X60700000Y-48308071D01*
X60740000Y-48304131D01*
X60740000Y-49486494D01*
X60648102Y-49504774D01*
X60459744Y-49582795D01*
X60290226Y-49696063D01*
X60146063Y-49840226D01*
X60032795Y-50009744D01*
X59954774Y-50198102D01*
X59915000Y-50398061D01*
X59915000Y-50601939D01*
X59954774Y-50801898D01*
X60032795Y-50990256D01*
X60146063Y-51159774D01*
X60290226Y-51303937D01*
X60459744Y-51417205D01*
X60648102Y-51495226D01*
X60848061Y-51535000D01*
X61051939Y-51535000D01*
X61251898Y-51495226D01*
X61440256Y-51417205D01*
X61609774Y-51303937D01*
X61753937Y-51159774D01*
X61867205Y-50990256D01*
X61945226Y-50801898D01*
X61985000Y-50601939D01*
X61985000Y-50539803D01*
X62011009Y-50513794D01*
X62040001Y-50490001D01*
X62063795Y-50461008D01*
X62063799Y-50461004D01*
X62134973Y-50374277D01*
X62134974Y-50374276D01*
X62205546Y-50242247D01*
X62249003Y-50098986D01*
X62260000Y-49987333D01*
X62260000Y-49987324D01*
X62263676Y-49950001D01*
X62260000Y-49912678D01*
X62260000Y-43753711D01*
X62303937Y-43709774D01*
X62417205Y-43540256D01*
X62471236Y-43409814D01*
X62317550Y-44627384D01*
X62465723Y-46717049D01*
X63018723Y-48737655D01*
X63955298Y-50611551D01*
X64280436Y-51098153D01*
X65466525Y-52273870D01*
X72820395Y-44920000D01*
X73179605Y-44920000D01*
X80533475Y-52273870D01*
X81719564Y-51098153D01*
X82448434Y-49820000D01*
X85761928Y-49820000D01*
X85774188Y-49944482D01*
X85810498Y-50064180D01*
X85869463Y-50174494D01*
X85948815Y-50271185D01*
X86045506Y-50350537D01*
X86155820Y-50409502D01*
X86275518Y-50445812D01*
X86400000Y-50458072D01*
X86914250Y-50455000D01*
X87073000Y-50296250D01*
X87073000Y-49447000D01*
X87327000Y-49447000D01*
X87327000Y-50296250D01*
X87485750Y-50455000D01*
X88000000Y-50458072D01*
X88124482Y-50445812D01*
X88244180Y-50409502D01*
X88354494Y-50350537D01*
X88451185Y-50271185D01*
X88530537Y-50174494D01*
X88589502Y-50064180D01*
X88625812Y-49944482D01*
X88638072Y-49820000D01*
X89561928Y-49820000D01*
X89574188Y-49944482D01*
X89610498Y-50064180D01*
X89669463Y-50174494D01*
X89748815Y-50271185D01*
X89845506Y-50350537D01*
X89955820Y-50409502D01*
X90075518Y-50445812D01*
X90200000Y-50458072D01*
X90714250Y-50455000D01*
X90873000Y-50296250D01*
X90873000Y-49447000D01*
X89723750Y-49447000D01*
X89565000Y-49605750D01*
X89561928Y-49820000D01*
X88638072Y-49820000D01*
X88635000Y-49605750D01*
X88476250Y-49447000D01*
X87327000Y-49447000D01*
X87073000Y-49447000D01*
X85923750Y-49447000D01*
X85765000Y-49605750D01*
X85761928Y-49820000D01*
X82448434Y-49820000D01*
X82757318Y-49278339D01*
X83420104Y-47291037D01*
X83682450Y-45212616D01*
X83534277Y-43122951D01*
X82981277Y-41102345D01*
X82520289Y-40180000D01*
X85761928Y-40180000D01*
X85765000Y-40394250D01*
X85923750Y-40553000D01*
X87073000Y-40553000D01*
X87073000Y-39703750D01*
X87327000Y-39703750D01*
X87327000Y-40553000D01*
X88476250Y-40553000D01*
X88635000Y-40394250D01*
X88638072Y-40180000D01*
X89561928Y-40180000D01*
X89565000Y-40394250D01*
X89723750Y-40553000D01*
X90873000Y-40553000D01*
X90873000Y-39703750D01*
X90714250Y-39545000D01*
X90200000Y-39541928D01*
X90075518Y-39554188D01*
X89955820Y-39590498D01*
X89845506Y-39649463D01*
X89748815Y-39728815D01*
X89669463Y-39825506D01*
X89610498Y-39935820D01*
X89574188Y-40055518D01*
X89561928Y-40180000D01*
X88638072Y-40180000D01*
X88625812Y-40055518D01*
X88589502Y-39935820D01*
X88530537Y-39825506D01*
X88451185Y-39728815D01*
X88354494Y-39649463D01*
X88244180Y-39590498D01*
X88124482Y-39554188D01*
X88000000Y-39541928D01*
X87485750Y-39545000D01*
X87327000Y-39703750D01*
X87073000Y-39703750D01*
X86914250Y-39545000D01*
X86400000Y-39541928D01*
X86275518Y-39554188D01*
X86155820Y-39590498D01*
X86045506Y-39649463D01*
X85948815Y-39728815D01*
X85869463Y-39825506D01*
X85810498Y-39935820D01*
X85774188Y-40055518D01*
X85761928Y-40180000D01*
X82520289Y-40180000D01*
X82044702Y-39228449D01*
X81719564Y-38741847D01*
X80533475Y-37566130D01*
X73179605Y-44920000D01*
X72820395Y-44920000D01*
X65466525Y-37566130D01*
X64280436Y-38741847D01*
X63242682Y-40561661D01*
X62579896Y-42548963D01*
X62531648Y-42931208D01*
X62495226Y-42748102D01*
X62417205Y-42559744D01*
X62303937Y-42390226D01*
X62159774Y-42246063D01*
X61990256Y-42132795D01*
X61801898Y-42054774D01*
X61601939Y-42015000D01*
X61398061Y-42015000D01*
X61321192Y-42030290D01*
X61289502Y-41925821D01*
X61230537Y-41815507D01*
X61151185Y-41718816D01*
X61054494Y-41639464D01*
X60944180Y-41580499D01*
X60824482Y-41544189D01*
X60700000Y-41531929D01*
X54700000Y-41531929D01*
X54575518Y-41544189D01*
X54455820Y-41580499D01*
X54345506Y-41639464D01*
X54248815Y-41718816D01*
X54169463Y-41815507D01*
X54110498Y-41925821D01*
X54074188Y-42045519D01*
X54061928Y-42170001D01*
X53087659Y-42170001D01*
X53087659Y-38802245D01*
X54516980Y-37637103D01*
X54872382Y-37386525D01*
X65646130Y-37386525D01*
X73000000Y-44740395D01*
X80353870Y-37386525D01*
X79178153Y-36200436D01*
X77358339Y-35162682D01*
X75371037Y-34499896D01*
X73292616Y-34237550D01*
X71202951Y-34385723D01*
X69182345Y-34938723D01*
X67308449Y-35875298D01*
X66821847Y-36200436D01*
X65646130Y-37386525D01*
X54872382Y-37386525D01*
X56261482Y-36407133D01*
X58087510Y-35301865D01*
X59986223Y-34326648D01*
X61948300Y-33486272D01*
X63964259Y-32784796D01*
X66024198Y-32225666D01*
X68118157Y-31811586D01*
X70235883Y-31544583D01*
X72367084Y-31425956D01*
X74501348Y-31456281D01*
X74501348Y-31456281D01*
G37*
X74501348Y-31456281D02*
X76628325Y-31635415D01*
X78737607Y-31962480D01*
X80818950Y-32435886D01*
X82862192Y-33053325D01*
X84857381Y-33811788D01*
X86794815Y-34707586D01*
X87918791Y-35325856D01*
X87639245Y-35359191D01*
X87327414Y-35460511D01*
X87041201Y-35620469D01*
X86791509Y-35832974D01*
X86587848Y-36089930D01*
X86437976Y-36381551D01*
X86347600Y-36696728D01*
X86320164Y-37023456D01*
X86356712Y-37349292D01*
X86455853Y-37661822D01*
X86613809Y-37949145D01*
X86824566Y-38200314D01*
X87080094Y-38405764D01*
X87370661Y-38557669D01*
X87685199Y-38650243D01*
X88011729Y-38679959D01*
X88337811Y-38645686D01*
X88651026Y-38548730D01*
X88939444Y-38392783D01*
X89192079Y-38183785D01*
X89399308Y-37929698D01*
X89553237Y-37640198D01*
X89648005Y-37326314D01*
X89680000Y-37000000D01*
X89679345Y-36953092D01*
X89638251Y-36627799D01*
X89534756Y-36316682D01*
X89517243Y-36285854D01*
X90458928Y-36893056D01*
X92174709Y-38177281D01*
X92340000Y-38312618D01*
X92340000Y-39843210D01*
X92330537Y-39825506D01*
X92251185Y-39728815D01*
X92154494Y-39649463D01*
X92044180Y-39590498D01*
X91924482Y-39554188D01*
X91800000Y-39541928D01*
X91285750Y-39545000D01*
X91127000Y-39703750D01*
X91127000Y-40553000D01*
X91147000Y-40553000D01*
X91147000Y-40807000D01*
X91127000Y-40807000D01*
X91127000Y-40827000D01*
X90873000Y-40827000D01*
X90873000Y-40807000D01*
X89723750Y-40807000D01*
X89565000Y-40965750D01*
X89561928Y-41180000D01*
X89574188Y-41304482D01*
X89610498Y-41424180D01*
X89668092Y-41531929D01*
X88531908Y-41531929D01*
X88589502Y-41424180D01*
X88625812Y-41304482D01*
X88638072Y-41180000D01*
X88635000Y-40965750D01*
X88476250Y-40807000D01*
X87327000Y-40807000D01*
X87327000Y-40827000D01*
X87073000Y-40827000D01*
X87073000Y-40807000D01*
X85923750Y-40807000D01*
X85765000Y-40965750D01*
X85761928Y-41180000D01*
X85774188Y-41304482D01*
X85810498Y-41424180D01*
X85868092Y-41531929D01*
X85300000Y-41531929D01*
X85175518Y-41544189D01*
X85055820Y-41580499D01*
X84945506Y-41639464D01*
X84848815Y-41718816D01*
X84769463Y-41815507D01*
X84710498Y-41925821D01*
X84674188Y-42045519D01*
X84661928Y-42170001D01*
X84661928Y-47669999D01*
X84674188Y-47794481D01*
X84710498Y-47914179D01*
X84769463Y-48024493D01*
X84848815Y-48121184D01*
X84945506Y-48200536D01*
X85055820Y-48259501D01*
X85175518Y-48295811D01*
X85300000Y-48308071D01*
X86022832Y-48308071D01*
X85948815Y-48368815D01*
X85869463Y-48465506D01*
X85810498Y-48575820D01*
X85774188Y-48695518D01*
X85761928Y-48820000D01*
X85765000Y-49034250D01*
X85923750Y-49193000D01*
X87073000Y-49193000D01*
X87073000Y-49173000D01*
X87327000Y-49173000D01*
X87327000Y-49193000D01*
X88476250Y-49193000D01*
X88635000Y-49034250D01*
X88638072Y-48820000D01*
X88625812Y-48695518D01*
X88589502Y-48575820D01*
X88530537Y-48465506D01*
X88451185Y-48368815D01*
X88377168Y-48308071D01*
X89822832Y-48308071D01*
X89748815Y-48368815D01*
X89669463Y-48465506D01*
X89610498Y-48575820D01*
X89574188Y-48695518D01*
X89561928Y-48820000D01*
X89565000Y-49034250D01*
X89723750Y-49193000D01*
X90873000Y-49193000D01*
X90873000Y-49173000D01*
X91127000Y-49173000D01*
X91127000Y-49193000D01*
X91147000Y-49193000D01*
X91147000Y-49447000D01*
X91127000Y-49447000D01*
X91127000Y-50296250D01*
X91285750Y-50455000D01*
X91800000Y-50458072D01*
X91924482Y-50445812D01*
X92044180Y-50409502D01*
X92154494Y-50350537D01*
X92251185Y-50271185D01*
X92330537Y-50174494D01*
X92340001Y-50156789D01*
X92340001Y-55092097D01*
X85045622Y-58739288D01*
X83688330Y-57881826D01*
X83688314Y-57881815D01*
X83654707Y-57862582D01*
X83638342Y-57853216D01*
X83638332Y-57853212D01*
X82024987Y-57021131D01*
X82024960Y-57021116D01*
X81986754Y-57003478D01*
X81972684Y-56996981D01*
X81972672Y-56996977D01*
X80292940Y-56308670D01*
X80292921Y-56308661D01*
X80258922Y-56296433D01*
X80238741Y-56289174D01*
X80238720Y-56289168D01*
X78505399Y-55749883D01*
X78505378Y-55749876D01*
X78477542Y-55742531D01*
X78449706Y-55735185D01*
X78449684Y-55735181D01*
X76675958Y-55349017D01*
X76675936Y-55349011D01*
X76649817Y-55344508D01*
X76619196Y-55339228D01*
X76619170Y-55339226D01*
X75663616Y-55217115D01*
X76817655Y-54901277D01*
X78691551Y-53964702D01*
X79178153Y-53639564D01*
X80353870Y-52453475D01*
X73000000Y-45099605D01*
X65646130Y-52453475D01*
X66821847Y-53639564D01*
X68641661Y-54677318D01*
X70279964Y-55223709D01*
X69220185Y-55367328D01*
X69163521Y-55377541D01*
X69163499Y-55377547D01*
X67392762Y-55777171D01*
X67392735Y-55777176D01*
X67337177Y-55792290D01*
X65607960Y-56344739D01*
X65553930Y-56364637D01*
X63879442Y-57065694D01*
X63827352Y-57090225D01*
X63827344Y-57090230D01*
X62220346Y-57934551D01*
X62220336Y-57934556D01*
X62202024Y-57945222D01*
X62170583Y-57963534D01*
X62170567Y-57963545D01*
X60949378Y-58748064D01*
X53087659Y-55079652D01*
X53087659Y-54023456D01*
X55320164Y-54023456D01*
X55356712Y-54349292D01*
X55455853Y-54661822D01*
X55613809Y-54949145D01*
X55824566Y-55200314D01*
X56080094Y-55405764D01*
X56370661Y-55557669D01*
X56685199Y-55650243D01*
X57011729Y-55679959D01*
X57337811Y-55645686D01*
X57651026Y-55548730D01*
X57939444Y-55392783D01*
X58192079Y-55183785D01*
X58399308Y-54929698D01*
X58553237Y-54640198D01*
X58648005Y-54326314D01*
X58680000Y-54000000D01*
X58679345Y-53953092D01*
X58638251Y-53627799D01*
X58534756Y-53316682D01*
X58372803Y-53031594D01*
X58158561Y-52783391D01*
X57900189Y-52581529D01*
X57607529Y-52433696D01*
X57291729Y-52345523D01*
X56964817Y-52320368D01*
X56639245Y-52359191D01*
X56327414Y-52460511D01*
X56041201Y-52620469D01*
X55791509Y-52832974D01*
X55587848Y-53089930D01*
X55437976Y-53381551D01*
X55347600Y-53696728D01*
X55320164Y-54023456D01*
X53087659Y-54023456D01*
X53087659Y-42170001D01*
X54061928Y-42170001D01*
X54061928Y-47669999D01*
X54074188Y-47794481D01*
X54110498Y-47914179D01*
X54169463Y-48024493D01*
X54248815Y-48121184D01*
X54345506Y-48200536D01*
X54455820Y-48259501D01*
X54575518Y-48295811D01*
X54700000Y-48308071D01*
X60700000Y-48308071D01*
X60740000Y-48304131D01*
X60740000Y-49486494D01*
X60648102Y-49504774D01*
X60459744Y-49582795D01*
X60290226Y-49696063D01*
X60146063Y-49840226D01*
X60032795Y-50009744D01*
X59954774Y-50198102D01*
X59915000Y-50398061D01*
X59915000Y-50601939D01*
X59954774Y-50801898D01*
X60032795Y-50990256D01*
X60146063Y-51159774D01*
X60290226Y-51303937D01*
X60459744Y-51417205D01*
X60648102Y-51495226D01*
X60848061Y-51535000D01*
X61051939Y-51535000D01*
X61251898Y-51495226D01*
X61440256Y-51417205D01*
X61609774Y-51303937D01*
X61753937Y-51159774D01*
X61867205Y-50990256D01*
X61945226Y-50801898D01*
X61985000Y-50601939D01*
X61985000Y-50539803D01*
X62011009Y-50513794D01*
X62040001Y-50490001D01*
X62063795Y-50461008D01*
X62063799Y-50461004D01*
X62134973Y-50374277D01*
X62134974Y-50374276D01*
X62205546Y-50242247D01*
X62249003Y-50098986D01*
X62260000Y-49987333D01*
X62260000Y-49987324D01*
X62263676Y-49950001D01*
X62260000Y-49912678D01*
X62260000Y-43753711D01*
X62303937Y-43709774D01*
X62417205Y-43540256D01*
X62471236Y-43409814D01*
X62317550Y-44627384D01*
X62465723Y-46717049D01*
X63018723Y-48737655D01*
X63955298Y-50611551D01*
X64280436Y-51098153D01*
X65466525Y-52273870D01*
X72820395Y-44920000D01*
X73179605Y-44920000D01*
X80533475Y-52273870D01*
X81719564Y-51098153D01*
X82448434Y-49820000D01*
X85761928Y-49820000D01*
X85774188Y-49944482D01*
X85810498Y-50064180D01*
X85869463Y-50174494D01*
X85948815Y-50271185D01*
X86045506Y-50350537D01*
X86155820Y-50409502D01*
X86275518Y-50445812D01*
X86400000Y-50458072D01*
X86914250Y-50455000D01*
X87073000Y-50296250D01*
X87073000Y-49447000D01*
X87327000Y-49447000D01*
X87327000Y-50296250D01*
X87485750Y-50455000D01*
X88000000Y-50458072D01*
X88124482Y-50445812D01*
X88244180Y-50409502D01*
X88354494Y-50350537D01*
X88451185Y-50271185D01*
X88530537Y-50174494D01*
X88589502Y-50064180D01*
X88625812Y-49944482D01*
X88638072Y-49820000D01*
X89561928Y-49820000D01*
X89574188Y-49944482D01*
X89610498Y-50064180D01*
X89669463Y-50174494D01*
X89748815Y-50271185D01*
X89845506Y-50350537D01*
X89955820Y-50409502D01*
X90075518Y-50445812D01*
X90200000Y-50458072D01*
X90714250Y-50455000D01*
X90873000Y-50296250D01*
X90873000Y-49447000D01*
X89723750Y-49447000D01*
X89565000Y-49605750D01*
X89561928Y-49820000D01*
X88638072Y-49820000D01*
X88635000Y-49605750D01*
X88476250Y-49447000D01*
X87327000Y-49447000D01*
X87073000Y-49447000D01*
X85923750Y-49447000D01*
X85765000Y-49605750D01*
X85761928Y-49820000D01*
X82448434Y-49820000D01*
X82757318Y-49278339D01*
X83420104Y-47291037D01*
X83682450Y-45212616D01*
X83534277Y-43122951D01*
X82981277Y-41102345D01*
X82520289Y-40180000D01*
X85761928Y-40180000D01*
X85765000Y-40394250D01*
X85923750Y-40553000D01*
X87073000Y-40553000D01*
X87073000Y-39703750D01*
X87327000Y-39703750D01*
X87327000Y-40553000D01*
X88476250Y-40553000D01*
X88635000Y-40394250D01*
X88638072Y-40180000D01*
X89561928Y-40180000D01*
X89565000Y-40394250D01*
X89723750Y-40553000D01*
X90873000Y-40553000D01*
X90873000Y-39703750D01*
X90714250Y-39545000D01*
X90200000Y-39541928D01*
X90075518Y-39554188D01*
X89955820Y-39590498D01*
X89845506Y-39649463D01*
X89748815Y-39728815D01*
X89669463Y-39825506D01*
X89610498Y-39935820D01*
X89574188Y-40055518D01*
X89561928Y-40180000D01*
X88638072Y-40180000D01*
X88625812Y-40055518D01*
X88589502Y-39935820D01*
X88530537Y-39825506D01*
X88451185Y-39728815D01*
X88354494Y-39649463D01*
X88244180Y-39590498D01*
X88124482Y-39554188D01*
X88000000Y-39541928D01*
X87485750Y-39545000D01*
X87327000Y-39703750D01*
X87073000Y-39703750D01*
X86914250Y-39545000D01*
X86400000Y-39541928D01*
X86275518Y-39554188D01*
X86155820Y-39590498D01*
X86045506Y-39649463D01*
X85948815Y-39728815D01*
X85869463Y-39825506D01*
X85810498Y-39935820D01*
X85774188Y-40055518D01*
X85761928Y-40180000D01*
X82520289Y-40180000D01*
X82044702Y-39228449D01*
X81719564Y-38741847D01*
X80533475Y-37566130D01*
X73179605Y-44920000D01*
X72820395Y-44920000D01*
X65466525Y-37566130D01*
X64280436Y-38741847D01*
X63242682Y-40561661D01*
X62579896Y-42548963D01*
X62531648Y-42931208D01*
X62495226Y-42748102D01*
X62417205Y-42559744D01*
X62303937Y-42390226D01*
X62159774Y-42246063D01*
X61990256Y-42132795D01*
X61801898Y-42054774D01*
X61601939Y-42015000D01*
X61398061Y-42015000D01*
X61321192Y-42030290D01*
X61289502Y-41925821D01*
X61230537Y-41815507D01*
X61151185Y-41718816D01*
X61054494Y-41639464D01*
X60944180Y-41580499D01*
X60824482Y-41544189D01*
X60700000Y-41531929D01*
X54700000Y-41531929D01*
X54575518Y-41544189D01*
X54455820Y-41580499D01*
X54345506Y-41639464D01*
X54248815Y-41718816D01*
X54169463Y-41815507D01*
X54110498Y-41925821D01*
X54074188Y-42045519D01*
X54061928Y-42170001D01*
X53087659Y-42170001D01*
X53087659Y-38802245D01*
X54516980Y-37637103D01*
X54872382Y-37386525D01*
X65646130Y-37386525D01*
X73000000Y-44740395D01*
X80353870Y-37386525D01*
X79178153Y-36200436D01*
X77358339Y-35162682D01*
X75371037Y-34499896D01*
X73292616Y-34237550D01*
X71202951Y-34385723D01*
X69182345Y-34938723D01*
X67308449Y-35875298D01*
X66821847Y-36200436D01*
X65646130Y-37386525D01*
X54872382Y-37386525D01*
X56261482Y-36407133D01*
X58087510Y-35301865D01*
X59986223Y-34326648D01*
X61948300Y-33486272D01*
X63964259Y-32784796D01*
X66024198Y-32225666D01*
X68118157Y-31811586D01*
X70235883Y-31544583D01*
X72367084Y-31425956D01*
X74501348Y-31456281D01*
M02*
