G04 #@! TF.GenerationSoftware,KiCad,Pcbnew,(5.1.2-1)-1*
G04 #@! TF.CreationDate,2021-02-06T10:00:37+01:00*
G04 #@! TF.ProjectId,lir2450-charger,6c697232-3435-4302-9d63-686172676572,1.0.0*
G04 #@! TF.SameCoordinates,Original*
G04 #@! TF.FileFunction,Legend,Bot*
G04 #@! TF.FilePolarity,Positive*
%FSLAX46Y46*%
G04 Gerber Fmt 4.6, Leading zero omitted, Abs format (unit mm)*
G04 Created by KiCad (PCBNEW (5.1.2-1)-1) date 2021-02-06 10:00:37*
%MOMM*%
%LPD*%
G04 APERTURE LIST*
%ADD10C,0.125000*%
%ADD11C,0.120000*%
%ADD12C,0.150000*%
G04 APERTURE END LIST*
D10*
X57171428Y-50488690D02*
X57457142Y-50488690D01*
X57314285Y-50488690D02*
X57314285Y-49988690D01*
X57361904Y-50060119D01*
X57409523Y-50107738D01*
X57457142Y-50131547D01*
X56957142Y-50441071D02*
X56933333Y-50464880D01*
X56957142Y-50488690D01*
X56980952Y-50464880D01*
X56957142Y-50441071D01*
X56957142Y-50488690D01*
X56623809Y-49988690D02*
X56576190Y-49988690D01*
X56528571Y-50012500D01*
X56504761Y-50036309D01*
X56480952Y-50083928D01*
X56457142Y-50179166D01*
X56457142Y-50298214D01*
X56480952Y-50393452D01*
X56504761Y-50441071D01*
X56528571Y-50464880D01*
X56576190Y-50488690D01*
X56623809Y-50488690D01*
X56671428Y-50464880D01*
X56695238Y-50441071D01*
X56719047Y-50393452D01*
X56742857Y-50298214D01*
X56742857Y-50179166D01*
X56719047Y-50083928D01*
X56695238Y-50036309D01*
X56671428Y-50012500D01*
X56623809Y-49988690D01*
X56242857Y-50441071D02*
X56219047Y-50464880D01*
X56242857Y-50488690D01*
X56266666Y-50464880D01*
X56242857Y-50441071D01*
X56242857Y-50488690D01*
X55909523Y-49988690D02*
X55861904Y-49988690D01*
X55814285Y-50012500D01*
X55790476Y-50036309D01*
X55766666Y-50083928D01*
X55742857Y-50179166D01*
X55742857Y-50298214D01*
X55766666Y-50393452D01*
X55790476Y-50441071D01*
X55814285Y-50464880D01*
X55861904Y-50488690D01*
X55909523Y-50488690D01*
X55957142Y-50464880D01*
X55980952Y-50441071D01*
X56004761Y-50393452D01*
X56028571Y-50298214D01*
X56028571Y-50179166D01*
X56004761Y-50083928D01*
X55980952Y-50036309D01*
X55957142Y-50012500D01*
X55909523Y-49988690D01*
X58397619Y-51363690D02*
X58397619Y-51030357D01*
X58397619Y-51125595D02*
X58373809Y-51077976D01*
X58350000Y-51054166D01*
X58302380Y-51030357D01*
X58254761Y-51030357D01*
X58088095Y-51363690D02*
X58088095Y-50863690D01*
X58088095Y-51054166D02*
X58040476Y-51030357D01*
X57945238Y-51030357D01*
X57897619Y-51054166D01*
X57873809Y-51077976D01*
X57850000Y-51125595D01*
X57850000Y-51268452D01*
X57873809Y-51316071D01*
X57897619Y-51339880D01*
X57945238Y-51363690D01*
X58040476Y-51363690D01*
X58088095Y-51339880D01*
X57421428Y-51363690D02*
X57421428Y-51101785D01*
X57445238Y-51054166D01*
X57492857Y-51030357D01*
X57588095Y-51030357D01*
X57635714Y-51054166D01*
X57421428Y-51339880D02*
X57469047Y-51363690D01*
X57588095Y-51363690D01*
X57635714Y-51339880D01*
X57659523Y-51292261D01*
X57659523Y-51244642D01*
X57635714Y-51197023D01*
X57588095Y-51173214D01*
X57469047Y-51173214D01*
X57421428Y-51149404D01*
X57183333Y-51363690D02*
X57183333Y-51030357D01*
X57183333Y-51125595D02*
X57159523Y-51077976D01*
X57135714Y-51054166D01*
X57088095Y-51030357D01*
X57040476Y-51030357D01*
X56802380Y-51363690D02*
X56850000Y-51339880D01*
X56873809Y-51316071D01*
X56897619Y-51268452D01*
X56897619Y-51125595D01*
X56873809Y-51077976D01*
X56850000Y-51054166D01*
X56802380Y-51030357D01*
X56730952Y-51030357D01*
X56683333Y-51054166D01*
X56659523Y-51077976D01*
X56635714Y-51125595D01*
X56635714Y-51268452D01*
X56659523Y-51316071D01*
X56683333Y-51339880D01*
X56730952Y-51363690D01*
X56802380Y-51363690D01*
X56421428Y-51030357D02*
X56421428Y-51363690D01*
X56421428Y-51077976D02*
X56397619Y-51054166D01*
X56350000Y-51030357D01*
X56278571Y-51030357D01*
X56230952Y-51054166D01*
X56207142Y-51101785D01*
X56207142Y-51363690D01*
X55969047Y-51316071D02*
X55945238Y-51339880D01*
X55969047Y-51363690D01*
X55992857Y-51339880D01*
X55969047Y-51316071D01*
X55969047Y-51363690D01*
X55730952Y-51030357D02*
X55730952Y-51363690D01*
X55730952Y-51077976D02*
X55707142Y-51054166D01*
X55659523Y-51030357D01*
X55588095Y-51030357D01*
X55540476Y-51054166D01*
X55516666Y-51101785D01*
X55516666Y-51363690D01*
X55088095Y-51339880D02*
X55135714Y-51363690D01*
X55230952Y-51363690D01*
X55278571Y-51339880D01*
X55302380Y-51292261D01*
X55302380Y-51101785D01*
X55278571Y-51054166D01*
X55230952Y-51030357D01*
X55135714Y-51030357D01*
X55088095Y-51054166D01*
X55064285Y-51101785D01*
X55064285Y-51149404D01*
X55302380Y-51197023D01*
X54921428Y-51030357D02*
X54730952Y-51030357D01*
X54850000Y-50863690D02*
X54850000Y-51292261D01*
X54826190Y-51339880D01*
X54778571Y-51363690D01*
X54730952Y-51363690D01*
X75616666Y-53026190D02*
X75854761Y-53026190D01*
X75854761Y-52526190D01*
X75450000Y-53026190D02*
X75450000Y-52526190D01*
X74926190Y-53026190D02*
X75092857Y-52788095D01*
X75211904Y-53026190D02*
X75211904Y-52526190D01*
X75021428Y-52526190D01*
X74973809Y-52550000D01*
X74950000Y-52573809D01*
X74926190Y-52621428D01*
X74926190Y-52692857D01*
X74950000Y-52740476D01*
X74973809Y-52764285D01*
X75021428Y-52788095D01*
X75211904Y-52788095D01*
X74735714Y-52573809D02*
X74711904Y-52550000D01*
X74664285Y-52526190D01*
X74545238Y-52526190D01*
X74497619Y-52550000D01*
X74473809Y-52573809D01*
X74450000Y-52621428D01*
X74450000Y-52669047D01*
X74473809Y-52740476D01*
X74759523Y-53026190D01*
X74450000Y-53026190D01*
X74021428Y-52692857D02*
X74021428Y-53026190D01*
X74140476Y-52502380D02*
X74259523Y-52859523D01*
X73950000Y-52859523D01*
X73521428Y-52526190D02*
X73759523Y-52526190D01*
X73783333Y-52764285D01*
X73759523Y-52740476D01*
X73711904Y-52716666D01*
X73592857Y-52716666D01*
X73545238Y-52740476D01*
X73521428Y-52764285D01*
X73497619Y-52811904D01*
X73497619Y-52930952D01*
X73521428Y-52978571D01*
X73545238Y-53002380D01*
X73592857Y-53026190D01*
X73711904Y-53026190D01*
X73759523Y-53002380D01*
X73783333Y-52978571D01*
X73188095Y-52526190D02*
X73140476Y-52526190D01*
X73092857Y-52550000D01*
X73069047Y-52573809D01*
X73045238Y-52621428D01*
X73021428Y-52716666D01*
X73021428Y-52835714D01*
X73045238Y-52930952D01*
X73069047Y-52978571D01*
X73092857Y-53002380D01*
X73140476Y-53026190D01*
X73188095Y-53026190D01*
X73235714Y-53002380D01*
X73259523Y-52978571D01*
X73283333Y-52930952D01*
X73307142Y-52835714D01*
X73307142Y-52716666D01*
X73283333Y-52621428D01*
X73259523Y-52573809D01*
X73235714Y-52550000D01*
X73188095Y-52526190D01*
X72330952Y-52526190D02*
X72235714Y-52526190D01*
X72188095Y-52550000D01*
X72140476Y-52597619D01*
X72116666Y-52692857D01*
X72116666Y-52859523D01*
X72140476Y-52954761D01*
X72188095Y-53002380D01*
X72235714Y-53026190D01*
X72330952Y-53026190D01*
X72378571Y-53002380D01*
X72426190Y-52954761D01*
X72450000Y-52859523D01*
X72450000Y-52692857D01*
X72426190Y-52597619D01*
X72378571Y-52550000D01*
X72330952Y-52526190D01*
X71902380Y-53026190D02*
X71902380Y-52526190D01*
X71616666Y-53026190D01*
X71616666Y-52526190D01*
X71140476Y-53026190D02*
X71378571Y-53026190D01*
X71378571Y-52526190D01*
X70878571Y-52788095D02*
X70878571Y-53026190D01*
X71045238Y-52526190D02*
X70878571Y-52788095D01*
X70711904Y-52526190D01*
X70545238Y-52978571D02*
X70521428Y-53002380D01*
X70545238Y-53026190D01*
X70569047Y-53002380D01*
X70545238Y-52978571D01*
X70545238Y-53026190D01*
X70545238Y-52835714D02*
X70569047Y-52550000D01*
X70545238Y-52526190D01*
X70521428Y-52550000D01*
X70545238Y-52835714D01*
X70545238Y-52526190D01*
D11*
X85850000Y-38520000D02*
X85850000Y-41820000D01*
X76950000Y-32670000D02*
X85850000Y-38520000D01*
X76950000Y-31870000D02*
X76950000Y-32670000D01*
X76950000Y-31870000D02*
X69050000Y-31870000D01*
X69050000Y-31870000D02*
X69050000Y-32670000D01*
X69050000Y-32670000D02*
X60150000Y-38520000D01*
X60150000Y-38520000D02*
X60150000Y-41820000D01*
X85850000Y-48020000D02*
X85850000Y-52220000D01*
X60150000Y-48020000D02*
X60150000Y-52220000D01*
X60150000Y-52170000D02*
G75*
G03X62850000Y-54870000I2700000J0D01*
G01*
X85850000Y-52170000D02*
G75*
G02X83150000Y-54870000I-2700000J0D01*
G01*
X82478249Y-54591751D02*
G75*
G03X83150000Y-54870000I671751J671751D01*
G01*
X63521751Y-54591751D02*
G75*
G02X62850000Y-54870000I-671751J671751D01*
G01*
X63559556Y-54558071D02*
G75*
G02X82550000Y-54650000I9440444J-11361929D01*
G01*
D10*
X73607142Y-30484285D02*
X73535714Y-30508095D01*
X73511904Y-30531904D01*
X73488095Y-30579523D01*
X73488095Y-30650952D01*
X73511904Y-30698571D01*
X73535714Y-30722380D01*
X73583333Y-30746190D01*
X73773809Y-30746190D01*
X73773809Y-30246190D01*
X73607142Y-30246190D01*
X73559523Y-30270000D01*
X73535714Y-30293809D01*
X73511904Y-30341428D01*
X73511904Y-30389047D01*
X73535714Y-30436666D01*
X73559523Y-30460476D01*
X73607142Y-30484285D01*
X73773809Y-30484285D01*
X73297619Y-30603333D02*
X73059523Y-30603333D01*
X73345238Y-30746190D02*
X73178571Y-30246190D01*
X73011904Y-30746190D01*
X72916666Y-30246190D02*
X72630952Y-30246190D01*
X72773809Y-30746190D02*
X72773809Y-30246190D01*
X72202380Y-30746190D02*
X72488095Y-30746190D01*
X72345238Y-30746190D02*
X72345238Y-30246190D01*
X72392857Y-30317619D01*
X72440476Y-30365238D01*
X72488095Y-30389047D01*
D12*
M02*
