G04 #@! TF.GenerationSoftware,KiCad,Pcbnew,(5.1.2-1)-1*
G04 #@! TF.CreationDate,2021-02-06T10:00:37+01:00*
G04 #@! TF.ProjectId,lir2450-charger,6c697232-3435-4302-9d63-686172676572,1.0.0*
G04 #@! TF.SameCoordinates,Original*
G04 #@! TF.FileFunction,Soldermask,Bot*
G04 #@! TF.FilePolarity,Negative*
%FSLAX46Y46*%
G04 Gerber Fmt 4.6, Leading zero omitted, Abs format (unit mm)*
G04 Created by KiCad (PCBNEW (5.1.2-1)-1) date 2021-02-06 10:00:37*
%MOMM*%
%LPD*%
G04 APERTURE LIST*
%ADD10C,0.100000*%
G04 APERTURE END LIST*
D10*
G36*
X91407495Y-48779586D02*
G01*
X91510859Y-48810941D01*
X91606119Y-48861859D01*
X91689616Y-48930383D01*
X91758140Y-49013880D01*
X91809058Y-49109140D01*
X91840413Y-49212504D01*
X91851000Y-49319999D01*
X91851000Y-49320001D01*
X91840413Y-49427496D01*
X91809058Y-49530860D01*
X91758140Y-49626120D01*
X91689616Y-49709617D01*
X91606119Y-49778141D01*
X91510859Y-49829059D01*
X91407495Y-49860414D01*
X91300000Y-49871001D01*
X90700000Y-49871001D01*
X90592505Y-49860414D01*
X90489141Y-49829059D01*
X90393881Y-49778141D01*
X90310384Y-49709617D01*
X90241860Y-49626120D01*
X90190942Y-49530860D01*
X90159587Y-49427496D01*
X90149000Y-49320001D01*
X90149000Y-49319999D01*
X90159587Y-49212504D01*
X90190942Y-49109140D01*
X90241860Y-49013880D01*
X90310384Y-48930383D01*
X90393881Y-48861859D01*
X90489141Y-48810941D01*
X90592505Y-48779586D01*
X90700000Y-48768999D01*
X91300000Y-48768999D01*
X91407495Y-48779586D01*
X91407495Y-48779586D01*
G37*
G36*
X87607495Y-48779586D02*
G01*
X87710859Y-48810941D01*
X87806119Y-48861859D01*
X87889616Y-48930383D01*
X87958140Y-49013880D01*
X88009058Y-49109140D01*
X88040413Y-49212504D01*
X88051000Y-49319999D01*
X88051000Y-49320001D01*
X88040413Y-49427496D01*
X88009058Y-49530860D01*
X87958140Y-49626120D01*
X87889616Y-49709617D01*
X87806119Y-49778141D01*
X87710859Y-49829059D01*
X87607495Y-49860414D01*
X87500000Y-49871001D01*
X86900000Y-49871001D01*
X86792505Y-49860414D01*
X86689141Y-49829059D01*
X86593881Y-49778141D01*
X86510384Y-49709617D01*
X86441860Y-49626120D01*
X86390942Y-49530860D01*
X86359587Y-49427496D01*
X86349000Y-49320001D01*
X86349000Y-49319999D01*
X86359587Y-49212504D01*
X86390942Y-49109140D01*
X86441860Y-49013880D01*
X86510384Y-48930383D01*
X86593881Y-48861859D01*
X86689141Y-48810941D01*
X86792505Y-48779586D01*
X86900000Y-48768999D01*
X87500000Y-48768999D01*
X87607495Y-48779586D01*
X87607495Y-48779586D01*
G37*
G36*
X77050999Y-48970999D02*
G01*
X68949001Y-48970999D01*
X68949001Y-40869001D01*
X77050999Y-40869001D01*
X77050999Y-48970999D01*
X77050999Y-48970999D01*
G37*
G36*
X91351000Y-47720999D02*
G01*
X85249000Y-47720999D01*
X85249000Y-42119001D01*
X91351000Y-42119001D01*
X91351000Y-47720999D01*
X91351000Y-47720999D01*
G37*
G36*
X60751000Y-47720999D02*
G01*
X54649000Y-47720999D01*
X54649000Y-42119001D01*
X60751000Y-42119001D01*
X60751000Y-47720999D01*
X60751000Y-47720999D01*
G37*
G36*
X91407495Y-40139586D02*
G01*
X91510859Y-40170941D01*
X91606119Y-40221859D01*
X91689616Y-40290383D01*
X91758140Y-40373880D01*
X91809058Y-40469140D01*
X91840413Y-40572504D01*
X91851000Y-40679999D01*
X91851000Y-40680001D01*
X91840413Y-40787496D01*
X91809058Y-40890860D01*
X91758140Y-40986120D01*
X91689616Y-41069617D01*
X91606119Y-41138141D01*
X91510859Y-41189059D01*
X91407495Y-41220414D01*
X91300000Y-41231001D01*
X90700000Y-41231001D01*
X90592505Y-41220414D01*
X90489141Y-41189059D01*
X90393881Y-41138141D01*
X90310384Y-41069617D01*
X90241860Y-40986120D01*
X90190942Y-40890860D01*
X90159587Y-40787496D01*
X90149000Y-40680001D01*
X90149000Y-40679999D01*
X90159587Y-40572504D01*
X90190942Y-40469140D01*
X90241860Y-40373880D01*
X90310384Y-40290383D01*
X90393881Y-40221859D01*
X90489141Y-40170941D01*
X90592505Y-40139586D01*
X90700000Y-40128999D01*
X91300000Y-40128999D01*
X91407495Y-40139586D01*
X91407495Y-40139586D01*
G37*
G36*
X87607495Y-40139586D02*
G01*
X87710859Y-40170941D01*
X87806119Y-40221859D01*
X87889616Y-40290383D01*
X87958140Y-40373880D01*
X88009058Y-40469140D01*
X88040413Y-40572504D01*
X88051000Y-40679999D01*
X88051000Y-40680001D01*
X88040413Y-40787496D01*
X88009058Y-40890860D01*
X87958140Y-40986120D01*
X87889616Y-41069617D01*
X87806119Y-41138141D01*
X87710859Y-41189059D01*
X87607495Y-41220414D01*
X87500000Y-41231001D01*
X86900000Y-41231001D01*
X86792505Y-41220414D01*
X86689141Y-41189059D01*
X86593881Y-41138141D01*
X86510384Y-41069617D01*
X86441860Y-40986120D01*
X86390942Y-40890860D01*
X86359587Y-40787496D01*
X86349000Y-40680001D01*
X86349000Y-40679999D01*
X86359587Y-40572504D01*
X86390942Y-40469140D01*
X86441860Y-40373880D01*
X86510384Y-40290383D01*
X86593881Y-40221859D01*
X86689141Y-40170941D01*
X86792505Y-40139586D01*
X86900000Y-40128999D01*
X87500000Y-40128999D01*
X87607495Y-40139586D01*
X87607495Y-40139586D01*
G37*
M02*
