G04 #@! TF.GenerationSoftware,KiCad,Pcbnew,(5.1.2-1)-1*
G04 #@! TF.CreationDate,2021-02-06T10:41:02+01:00*
G04 #@! TF.ProjectId,lir2450-charger,6c697232-3435-4302-9d63-686172676572,1.0.0*
G04 #@! TF.SameCoordinates,Original*
G04 #@! TF.FileFunction,Legend,Bot*
G04 #@! TF.FilePolarity,Positive*
%FSLAX46Y46*%
G04 Gerber Fmt 4.6, Leading zero omitted, Abs format (unit mm)*
G04 Created by KiCad (PCBNEW (5.1.2-1)-1) date 2021-02-06 10:41:02*
%MOMM*%
%LPD*%
G04 APERTURE LIST*
%ADD10C,0.125000*%
%ADD11C,0.120000*%
%ADD12C,0.150000*%
G04 APERTURE END LIST*
D10*
X57171428Y-50488690D02*
X57457142Y-50488690D01*
X57314285Y-50488690D02*
X57314285Y-49988690D01*
X57361904Y-50060119D01*
X57409523Y-50107738D01*
X57457142Y-50131547D01*
X56957142Y-50441071D02*
X56933333Y-50464880D01*
X56957142Y-50488690D01*
X56980952Y-50464880D01*
X56957142Y-50441071D01*
X56957142Y-50488690D01*
X56623809Y-49988690D02*
X56576190Y-49988690D01*
X56528571Y-50012500D01*
X56504761Y-50036309D01*
X56480952Y-50083928D01*
X56457142Y-50179166D01*
X56457142Y-50298214D01*
X56480952Y-50393452D01*
X56504761Y-50441071D01*
X56528571Y-50464880D01*
X56576190Y-50488690D01*
X56623809Y-50488690D01*
X56671428Y-50464880D01*
X56695238Y-50441071D01*
X56719047Y-50393452D01*
X56742857Y-50298214D01*
X56742857Y-50179166D01*
X56719047Y-50083928D01*
X56695238Y-50036309D01*
X56671428Y-50012500D01*
X56623809Y-49988690D01*
X56242857Y-50441071D02*
X56219047Y-50464880D01*
X56242857Y-50488690D01*
X56266666Y-50464880D01*
X56242857Y-50441071D01*
X56242857Y-50488690D01*
X55909523Y-49988690D02*
X55861904Y-49988690D01*
X55814285Y-50012500D01*
X55790476Y-50036309D01*
X55766666Y-50083928D01*
X55742857Y-50179166D01*
X55742857Y-50298214D01*
X55766666Y-50393452D01*
X55790476Y-50441071D01*
X55814285Y-50464880D01*
X55861904Y-50488690D01*
X55909523Y-50488690D01*
X55957142Y-50464880D01*
X55980952Y-50441071D01*
X56004761Y-50393452D01*
X56028571Y-50298214D01*
X56028571Y-50179166D01*
X56004761Y-50083928D01*
X55980952Y-50036309D01*
X55957142Y-50012500D01*
X55909523Y-49988690D01*
X58397619Y-51363690D02*
X58397619Y-51030357D01*
X58397619Y-51125595D02*
X58373809Y-51077976D01*
X58350000Y-51054166D01*
X58302380Y-51030357D01*
X58254761Y-51030357D01*
X58088095Y-51363690D02*
X58088095Y-50863690D01*
X58088095Y-51054166D02*
X58040476Y-51030357D01*
X57945238Y-51030357D01*
X57897619Y-51054166D01*
X57873809Y-51077976D01*
X57850000Y-51125595D01*
X57850000Y-51268452D01*
X57873809Y-51316071D01*
X57897619Y-51339880D01*
X57945238Y-51363690D01*
X58040476Y-51363690D01*
X58088095Y-51339880D01*
X57421428Y-51363690D02*
X57421428Y-51101785D01*
X57445238Y-51054166D01*
X57492857Y-51030357D01*
X57588095Y-51030357D01*
X57635714Y-51054166D01*
X57421428Y-51339880D02*
X57469047Y-51363690D01*
X57588095Y-51363690D01*
X57635714Y-51339880D01*
X57659523Y-51292261D01*
X57659523Y-51244642D01*
X57635714Y-51197023D01*
X57588095Y-51173214D01*
X57469047Y-51173214D01*
X57421428Y-51149404D01*
X57183333Y-51363690D02*
X57183333Y-51030357D01*
X57183333Y-51125595D02*
X57159523Y-51077976D01*
X57135714Y-51054166D01*
X57088095Y-51030357D01*
X57040476Y-51030357D01*
X56802380Y-51363690D02*
X56850000Y-51339880D01*
X56873809Y-51316071D01*
X56897619Y-51268452D01*
X56897619Y-51125595D01*
X56873809Y-51077976D01*
X56850000Y-51054166D01*
X56802380Y-51030357D01*
X56730952Y-51030357D01*
X56683333Y-51054166D01*
X56659523Y-51077976D01*
X56635714Y-51125595D01*
X56635714Y-51268452D01*
X56659523Y-51316071D01*
X56683333Y-51339880D01*
X56730952Y-51363690D01*
X56802380Y-51363690D01*
X56421428Y-51030357D02*
X56421428Y-51363690D01*
X56421428Y-51077976D02*
X56397619Y-51054166D01*
X56350000Y-51030357D01*
X56278571Y-51030357D01*
X56230952Y-51054166D01*
X56207142Y-51101785D01*
X56207142Y-51363690D01*
X55969047Y-51316071D02*
X55945238Y-51339880D01*
X55969047Y-51363690D01*
X55992857Y-51339880D01*
X55969047Y-51316071D01*
X55969047Y-51363690D01*
X55730952Y-51030357D02*
X55730952Y-51363690D01*
X55730952Y-51077976D02*
X55707142Y-51054166D01*
X55659523Y-51030357D01*
X55588095Y-51030357D01*
X55540476Y-51054166D01*
X55516666Y-51101785D01*
X55516666Y-51363690D01*
X55088095Y-51339880D02*
X55135714Y-51363690D01*
X55230952Y-51363690D01*
X55278571Y-51339880D01*
X55302380Y-51292261D01*
X55302380Y-51101785D01*
X55278571Y-51054166D01*
X55230952Y-51030357D01*
X55135714Y-51030357D01*
X55088095Y-51054166D01*
X55064285Y-51101785D01*
X55064285Y-51149404D01*
X55302380Y-51197023D01*
X54921428Y-51030357D02*
X54730952Y-51030357D01*
X54850000Y-50863690D02*
X54850000Y-51292261D01*
X54826190Y-51339880D01*
X54778571Y-51363690D01*
X54730952Y-51363690D01*
D11*
X85850000Y-38520000D02*
X85850000Y-41820000D01*
X76950000Y-32670000D02*
X85850000Y-38520000D01*
X76950000Y-31870000D02*
X76950000Y-32670000D01*
X76950000Y-31870000D02*
X69050000Y-31870000D01*
X69050000Y-31870000D02*
X69050000Y-32670000D01*
X69050000Y-32670000D02*
X60150000Y-38520000D01*
X60150000Y-38520000D02*
X60150000Y-41820000D01*
X85850000Y-48020000D02*
X85850000Y-52220000D01*
X60150000Y-48020000D02*
X60150000Y-52220000D01*
X60150000Y-52170000D02*
G75*
G03X62850000Y-54870000I2700000J0D01*
G01*
X85850000Y-52170000D02*
G75*
G02X83150000Y-54870000I-2700000J0D01*
G01*
X82478249Y-54591751D02*
G75*
G03X83150000Y-54870000I671751J671751D01*
G01*
X63521751Y-54591751D02*
G75*
G02X62850000Y-54870000I-671751J671751D01*
G01*
D12*
X74214285Y-30448571D02*
X74071428Y-30496190D01*
X74023809Y-30543809D01*
X73976190Y-30639047D01*
X73976190Y-30781904D01*
X74023809Y-30877142D01*
X74071428Y-30924761D01*
X74166666Y-30972380D01*
X74547619Y-30972380D01*
X74547619Y-29972380D01*
X74214285Y-29972380D01*
X74119047Y-30020000D01*
X74071428Y-30067619D01*
X74023809Y-30162857D01*
X74023809Y-30258095D01*
X74071428Y-30353333D01*
X74119047Y-30400952D01*
X74214285Y-30448571D01*
X74547619Y-30448571D01*
X73595238Y-30686666D02*
X73119047Y-30686666D01*
X73690476Y-30972380D02*
X73357142Y-29972380D01*
X73023809Y-30972380D01*
X72833333Y-29972380D02*
X72261904Y-29972380D01*
X72547619Y-30972380D02*
X72547619Y-29972380D01*
X71404761Y-30972380D02*
X71976190Y-30972380D01*
X71690476Y-30972380D02*
X71690476Y-29972380D01*
X71785714Y-30115238D01*
X71880952Y-30210476D01*
X71976190Y-30258095D01*
M02*
