G04 #@! TF.GenerationSoftware,KiCad,Pcbnew,(5.1.2-1)-1*
G04 #@! TF.CreationDate,2021-02-06T10:41:02+01:00*
G04 #@! TF.ProjectId,lir2450-charger,6c697232-3435-4302-9d63-686172676572,1.0.0*
G04 #@! TF.SameCoordinates,Original*
G04 #@! TF.FileFunction,Copper,L1,Top*
G04 #@! TF.FilePolarity,Positive*
%FSLAX46Y46*%
G04 Gerber Fmt 4.6, Leading zero omitted, Abs format (unit mm)*
G04 Created by KiCad (PCBNEW (5.1.2-1)-1) date 2021-02-06 10:41:02*
%MOMM*%
%LPD*%
G04 APERTURE LIST*
%ADD10C,0.100000*%
%ADD11C,0.975000*%
%ADD12R,1.200000X0.800000*%
%ADD13C,1.000000*%
%ADD14R,1.060000X0.650000*%
%ADD15C,0.800000*%
%ADD16C,0.250000*%
%ADD17C,0.254000*%
G04 APERTURE END LIST*
D10*
G36*
X64767642Y-44001174D02*
G01*
X64791303Y-44004684D01*
X64814507Y-44010496D01*
X64837029Y-44018554D01*
X64858653Y-44028782D01*
X64879170Y-44041079D01*
X64898383Y-44055329D01*
X64916107Y-44071393D01*
X64932171Y-44089117D01*
X64946421Y-44108330D01*
X64958718Y-44128847D01*
X64968946Y-44150471D01*
X64977004Y-44172993D01*
X64982816Y-44196197D01*
X64986326Y-44219858D01*
X64987500Y-44243750D01*
X64987500Y-45156250D01*
X64986326Y-45180142D01*
X64982816Y-45203803D01*
X64977004Y-45227007D01*
X64968946Y-45249529D01*
X64958718Y-45271153D01*
X64946421Y-45291670D01*
X64932171Y-45310883D01*
X64916107Y-45328607D01*
X64898383Y-45344671D01*
X64879170Y-45358921D01*
X64858653Y-45371218D01*
X64837029Y-45381446D01*
X64814507Y-45389504D01*
X64791303Y-45395316D01*
X64767642Y-45398826D01*
X64743750Y-45400000D01*
X64256250Y-45400000D01*
X64232358Y-45398826D01*
X64208697Y-45395316D01*
X64185493Y-45389504D01*
X64162971Y-45381446D01*
X64141347Y-45371218D01*
X64120830Y-45358921D01*
X64101617Y-45344671D01*
X64083893Y-45328607D01*
X64067829Y-45310883D01*
X64053579Y-45291670D01*
X64041282Y-45271153D01*
X64031054Y-45249529D01*
X64022996Y-45227007D01*
X64017184Y-45203803D01*
X64013674Y-45180142D01*
X64012500Y-45156250D01*
X64012500Y-44243750D01*
X64013674Y-44219858D01*
X64017184Y-44196197D01*
X64022996Y-44172993D01*
X64031054Y-44150471D01*
X64041282Y-44128847D01*
X64053579Y-44108330D01*
X64067829Y-44089117D01*
X64083893Y-44071393D01*
X64101617Y-44055329D01*
X64120830Y-44041079D01*
X64141347Y-44028782D01*
X64162971Y-44018554D01*
X64185493Y-44010496D01*
X64208697Y-44004684D01*
X64232358Y-44001174D01*
X64256250Y-44000000D01*
X64743750Y-44000000D01*
X64767642Y-44001174D01*
X64767642Y-44001174D01*
G37*
D11*
X64500000Y-44700000D03*
D10*
G36*
X62892642Y-44001174D02*
G01*
X62916303Y-44004684D01*
X62939507Y-44010496D01*
X62962029Y-44018554D01*
X62983653Y-44028782D01*
X63004170Y-44041079D01*
X63023383Y-44055329D01*
X63041107Y-44071393D01*
X63057171Y-44089117D01*
X63071421Y-44108330D01*
X63083718Y-44128847D01*
X63093946Y-44150471D01*
X63102004Y-44172993D01*
X63107816Y-44196197D01*
X63111326Y-44219858D01*
X63112500Y-44243750D01*
X63112500Y-45156250D01*
X63111326Y-45180142D01*
X63107816Y-45203803D01*
X63102004Y-45227007D01*
X63093946Y-45249529D01*
X63083718Y-45271153D01*
X63071421Y-45291670D01*
X63057171Y-45310883D01*
X63041107Y-45328607D01*
X63023383Y-45344671D01*
X63004170Y-45358921D01*
X62983653Y-45371218D01*
X62962029Y-45381446D01*
X62939507Y-45389504D01*
X62916303Y-45395316D01*
X62892642Y-45398826D01*
X62868750Y-45400000D01*
X62381250Y-45400000D01*
X62357358Y-45398826D01*
X62333697Y-45395316D01*
X62310493Y-45389504D01*
X62287971Y-45381446D01*
X62266347Y-45371218D01*
X62245830Y-45358921D01*
X62226617Y-45344671D01*
X62208893Y-45328607D01*
X62192829Y-45310883D01*
X62178579Y-45291670D01*
X62166282Y-45271153D01*
X62156054Y-45249529D01*
X62147996Y-45227007D01*
X62142184Y-45203803D01*
X62138674Y-45180142D01*
X62137500Y-45156250D01*
X62137500Y-44243750D01*
X62138674Y-44219858D01*
X62142184Y-44196197D01*
X62147996Y-44172993D01*
X62156054Y-44150471D01*
X62166282Y-44128847D01*
X62178579Y-44108330D01*
X62192829Y-44089117D01*
X62208893Y-44071393D01*
X62226617Y-44055329D01*
X62245830Y-44041079D01*
X62266347Y-44028782D01*
X62287971Y-44018554D01*
X62310493Y-44010496D01*
X62333697Y-44004684D01*
X62357358Y-44001174D01*
X62381250Y-44000000D01*
X62868750Y-44000000D01*
X62892642Y-44001174D01*
X62892642Y-44001174D01*
G37*
D11*
X62625000Y-44700000D03*
D10*
G36*
X72492642Y-44201174D02*
G01*
X72516303Y-44204684D01*
X72539507Y-44210496D01*
X72562029Y-44218554D01*
X72583653Y-44228782D01*
X72604170Y-44241079D01*
X72623383Y-44255329D01*
X72641107Y-44271393D01*
X72657171Y-44289117D01*
X72671421Y-44308330D01*
X72683718Y-44328847D01*
X72693946Y-44350471D01*
X72702004Y-44372993D01*
X72707816Y-44396197D01*
X72711326Y-44419858D01*
X72712500Y-44443750D01*
X72712500Y-45356250D01*
X72711326Y-45380142D01*
X72707816Y-45403803D01*
X72702004Y-45427007D01*
X72693946Y-45449529D01*
X72683718Y-45471153D01*
X72671421Y-45491670D01*
X72657171Y-45510883D01*
X72641107Y-45528607D01*
X72623383Y-45544671D01*
X72604170Y-45558921D01*
X72583653Y-45571218D01*
X72562029Y-45581446D01*
X72539507Y-45589504D01*
X72516303Y-45595316D01*
X72492642Y-45598826D01*
X72468750Y-45600000D01*
X71981250Y-45600000D01*
X71957358Y-45598826D01*
X71933697Y-45595316D01*
X71910493Y-45589504D01*
X71887971Y-45581446D01*
X71866347Y-45571218D01*
X71845830Y-45558921D01*
X71826617Y-45544671D01*
X71808893Y-45528607D01*
X71792829Y-45510883D01*
X71778579Y-45491670D01*
X71766282Y-45471153D01*
X71756054Y-45449529D01*
X71747996Y-45427007D01*
X71742184Y-45403803D01*
X71738674Y-45380142D01*
X71737500Y-45356250D01*
X71737500Y-44443750D01*
X71738674Y-44419858D01*
X71742184Y-44396197D01*
X71747996Y-44372993D01*
X71756054Y-44350471D01*
X71766282Y-44328847D01*
X71778579Y-44308330D01*
X71792829Y-44289117D01*
X71808893Y-44271393D01*
X71826617Y-44255329D01*
X71845830Y-44241079D01*
X71866347Y-44228782D01*
X71887971Y-44218554D01*
X71910493Y-44210496D01*
X71933697Y-44204684D01*
X71957358Y-44201174D01*
X71981250Y-44200000D01*
X72468750Y-44200000D01*
X72492642Y-44201174D01*
X72492642Y-44201174D01*
G37*
D11*
X72225000Y-44900000D03*
D10*
G36*
X74367642Y-44201174D02*
G01*
X74391303Y-44204684D01*
X74414507Y-44210496D01*
X74437029Y-44218554D01*
X74458653Y-44228782D01*
X74479170Y-44241079D01*
X74498383Y-44255329D01*
X74516107Y-44271393D01*
X74532171Y-44289117D01*
X74546421Y-44308330D01*
X74558718Y-44328847D01*
X74568946Y-44350471D01*
X74577004Y-44372993D01*
X74582816Y-44396197D01*
X74586326Y-44419858D01*
X74587500Y-44443750D01*
X74587500Y-45356250D01*
X74586326Y-45380142D01*
X74582816Y-45403803D01*
X74577004Y-45427007D01*
X74568946Y-45449529D01*
X74558718Y-45471153D01*
X74546421Y-45491670D01*
X74532171Y-45510883D01*
X74516107Y-45528607D01*
X74498383Y-45544671D01*
X74479170Y-45558921D01*
X74458653Y-45571218D01*
X74437029Y-45581446D01*
X74414507Y-45589504D01*
X74391303Y-45595316D01*
X74367642Y-45598826D01*
X74343750Y-45600000D01*
X73856250Y-45600000D01*
X73832358Y-45598826D01*
X73808697Y-45595316D01*
X73785493Y-45589504D01*
X73762971Y-45581446D01*
X73741347Y-45571218D01*
X73720830Y-45558921D01*
X73701617Y-45544671D01*
X73683893Y-45528607D01*
X73667829Y-45510883D01*
X73653579Y-45491670D01*
X73641282Y-45471153D01*
X73631054Y-45449529D01*
X73622996Y-45427007D01*
X73617184Y-45403803D01*
X73613674Y-45380142D01*
X73612500Y-45356250D01*
X73612500Y-44443750D01*
X73613674Y-44419858D01*
X73617184Y-44396197D01*
X73622996Y-44372993D01*
X73631054Y-44350471D01*
X73641282Y-44328847D01*
X73653579Y-44308330D01*
X73667829Y-44289117D01*
X73683893Y-44271393D01*
X73701617Y-44255329D01*
X73720830Y-44241079D01*
X73741347Y-44228782D01*
X73762971Y-44218554D01*
X73785493Y-44210496D01*
X73808697Y-44204684D01*
X73832358Y-44201174D01*
X73856250Y-44200000D01*
X74343750Y-44200000D01*
X74367642Y-44201174D01*
X74367642Y-44201174D01*
G37*
D11*
X74100000Y-44900000D03*
D12*
X87200000Y-42250000D03*
X87200000Y-43480000D03*
X87200000Y-44500000D03*
X87200000Y-45500000D03*
X87200000Y-46520000D03*
X87200000Y-47750000D03*
D10*
G36*
X87549009Y-48822407D02*
G01*
X87597545Y-48829606D01*
X87645142Y-48841529D01*
X87691342Y-48858059D01*
X87735698Y-48879038D01*
X87777785Y-48904264D01*
X87817197Y-48933494D01*
X87853553Y-48966446D01*
X87886505Y-49002802D01*
X87915735Y-49042214D01*
X87940961Y-49084301D01*
X87961940Y-49128657D01*
X87978470Y-49174857D01*
X87990393Y-49222454D01*
X87997592Y-49270990D01*
X88000000Y-49319999D01*
X88000000Y-49320001D01*
X87997592Y-49369010D01*
X87990393Y-49417546D01*
X87978470Y-49465143D01*
X87961940Y-49511343D01*
X87940961Y-49555699D01*
X87915735Y-49597786D01*
X87886505Y-49637198D01*
X87853553Y-49673554D01*
X87817197Y-49706506D01*
X87777785Y-49735736D01*
X87735698Y-49760962D01*
X87691342Y-49781941D01*
X87645142Y-49798471D01*
X87597545Y-49810394D01*
X87549009Y-49817593D01*
X87500000Y-49820001D01*
X86900000Y-49820001D01*
X86850991Y-49817593D01*
X86802455Y-49810394D01*
X86754858Y-49798471D01*
X86708658Y-49781941D01*
X86664302Y-49760962D01*
X86622215Y-49735736D01*
X86582803Y-49706506D01*
X86546447Y-49673554D01*
X86513495Y-49637198D01*
X86484265Y-49597786D01*
X86459039Y-49555699D01*
X86438060Y-49511343D01*
X86421530Y-49465143D01*
X86409607Y-49417546D01*
X86402408Y-49369010D01*
X86400000Y-49320001D01*
X86400000Y-49319999D01*
X86402408Y-49270990D01*
X86409607Y-49222454D01*
X86421530Y-49174857D01*
X86438060Y-49128657D01*
X86459039Y-49084301D01*
X86484265Y-49042214D01*
X86513495Y-49002802D01*
X86546447Y-48966446D01*
X86582803Y-48933494D01*
X86622215Y-48904264D01*
X86664302Y-48879038D01*
X86708658Y-48858059D01*
X86754858Y-48841529D01*
X86802455Y-48829606D01*
X86850991Y-48822407D01*
X86900000Y-48819999D01*
X87500000Y-48819999D01*
X87549009Y-48822407D01*
X87549009Y-48822407D01*
G37*
D13*
X87200000Y-49320000D03*
D10*
G36*
X87549009Y-40182407D02*
G01*
X87597545Y-40189606D01*
X87645142Y-40201529D01*
X87691342Y-40218059D01*
X87735698Y-40239038D01*
X87777785Y-40264264D01*
X87817197Y-40293494D01*
X87853553Y-40326446D01*
X87886505Y-40362802D01*
X87915735Y-40402214D01*
X87940961Y-40444301D01*
X87961940Y-40488657D01*
X87978470Y-40534857D01*
X87990393Y-40582454D01*
X87997592Y-40630990D01*
X88000000Y-40679999D01*
X88000000Y-40680001D01*
X87997592Y-40729010D01*
X87990393Y-40777546D01*
X87978470Y-40825143D01*
X87961940Y-40871343D01*
X87940961Y-40915699D01*
X87915735Y-40957786D01*
X87886505Y-40997198D01*
X87853553Y-41033554D01*
X87817197Y-41066506D01*
X87777785Y-41095736D01*
X87735698Y-41120962D01*
X87691342Y-41141941D01*
X87645142Y-41158471D01*
X87597545Y-41170394D01*
X87549009Y-41177593D01*
X87500000Y-41180001D01*
X86900000Y-41180001D01*
X86850991Y-41177593D01*
X86802455Y-41170394D01*
X86754858Y-41158471D01*
X86708658Y-41141941D01*
X86664302Y-41120962D01*
X86622215Y-41095736D01*
X86582803Y-41066506D01*
X86546447Y-41033554D01*
X86513495Y-40997198D01*
X86484265Y-40957786D01*
X86459039Y-40915699D01*
X86438060Y-40871343D01*
X86421530Y-40825143D01*
X86409607Y-40777546D01*
X86402408Y-40729010D01*
X86400000Y-40680001D01*
X86400000Y-40679999D01*
X86402408Y-40630990D01*
X86409607Y-40582454D01*
X86421530Y-40534857D01*
X86438060Y-40488657D01*
X86459039Y-40444301D01*
X86484265Y-40402214D01*
X86513495Y-40362802D01*
X86546447Y-40326446D01*
X86582803Y-40293494D01*
X86622215Y-40264264D01*
X86664302Y-40239038D01*
X86708658Y-40218059D01*
X86754858Y-40201529D01*
X86802455Y-40189606D01*
X86850991Y-40182407D01*
X86900000Y-40179999D01*
X87500000Y-40179999D01*
X87549009Y-40182407D01*
X87549009Y-40182407D01*
G37*
D13*
X87200000Y-40680000D03*
D10*
G36*
X91349009Y-40182407D02*
G01*
X91397545Y-40189606D01*
X91445142Y-40201529D01*
X91491342Y-40218059D01*
X91535698Y-40239038D01*
X91577785Y-40264264D01*
X91617197Y-40293494D01*
X91653553Y-40326446D01*
X91686505Y-40362802D01*
X91715735Y-40402214D01*
X91740961Y-40444301D01*
X91761940Y-40488657D01*
X91778470Y-40534857D01*
X91790393Y-40582454D01*
X91797592Y-40630990D01*
X91800000Y-40679999D01*
X91800000Y-40680001D01*
X91797592Y-40729010D01*
X91790393Y-40777546D01*
X91778470Y-40825143D01*
X91761940Y-40871343D01*
X91740961Y-40915699D01*
X91715735Y-40957786D01*
X91686505Y-40997198D01*
X91653553Y-41033554D01*
X91617197Y-41066506D01*
X91577785Y-41095736D01*
X91535698Y-41120962D01*
X91491342Y-41141941D01*
X91445142Y-41158471D01*
X91397545Y-41170394D01*
X91349009Y-41177593D01*
X91300000Y-41180001D01*
X90700000Y-41180001D01*
X90650991Y-41177593D01*
X90602455Y-41170394D01*
X90554858Y-41158471D01*
X90508658Y-41141941D01*
X90464302Y-41120962D01*
X90422215Y-41095736D01*
X90382803Y-41066506D01*
X90346447Y-41033554D01*
X90313495Y-40997198D01*
X90284265Y-40957786D01*
X90259039Y-40915699D01*
X90238060Y-40871343D01*
X90221530Y-40825143D01*
X90209607Y-40777546D01*
X90202408Y-40729010D01*
X90200000Y-40680001D01*
X90200000Y-40679999D01*
X90202408Y-40630990D01*
X90209607Y-40582454D01*
X90221530Y-40534857D01*
X90238060Y-40488657D01*
X90259039Y-40444301D01*
X90284265Y-40402214D01*
X90313495Y-40362802D01*
X90346447Y-40326446D01*
X90382803Y-40293494D01*
X90422215Y-40264264D01*
X90464302Y-40239038D01*
X90508658Y-40218059D01*
X90554858Y-40201529D01*
X90602455Y-40189606D01*
X90650991Y-40182407D01*
X90700000Y-40179999D01*
X91300000Y-40179999D01*
X91349009Y-40182407D01*
X91349009Y-40182407D01*
G37*
D13*
X91000000Y-40680000D03*
D10*
G36*
X91349009Y-48822407D02*
G01*
X91397545Y-48829606D01*
X91445142Y-48841529D01*
X91491342Y-48858059D01*
X91535698Y-48879038D01*
X91577785Y-48904264D01*
X91617197Y-48933494D01*
X91653553Y-48966446D01*
X91686505Y-49002802D01*
X91715735Y-49042214D01*
X91740961Y-49084301D01*
X91761940Y-49128657D01*
X91778470Y-49174857D01*
X91790393Y-49222454D01*
X91797592Y-49270990D01*
X91800000Y-49319999D01*
X91800000Y-49320001D01*
X91797592Y-49369010D01*
X91790393Y-49417546D01*
X91778470Y-49465143D01*
X91761940Y-49511343D01*
X91740961Y-49555699D01*
X91715735Y-49597786D01*
X91686505Y-49637198D01*
X91653553Y-49673554D01*
X91617197Y-49706506D01*
X91577785Y-49735736D01*
X91535698Y-49760962D01*
X91491342Y-49781941D01*
X91445142Y-49798471D01*
X91397545Y-49810394D01*
X91349009Y-49817593D01*
X91300000Y-49820001D01*
X90700000Y-49820001D01*
X90650991Y-49817593D01*
X90602455Y-49810394D01*
X90554858Y-49798471D01*
X90508658Y-49781941D01*
X90464302Y-49760962D01*
X90422215Y-49735736D01*
X90382803Y-49706506D01*
X90346447Y-49673554D01*
X90313495Y-49637198D01*
X90284265Y-49597786D01*
X90259039Y-49555699D01*
X90238060Y-49511343D01*
X90221530Y-49465143D01*
X90209607Y-49417546D01*
X90202408Y-49369010D01*
X90200000Y-49320001D01*
X90200000Y-49319999D01*
X90202408Y-49270990D01*
X90209607Y-49222454D01*
X90221530Y-49174857D01*
X90238060Y-49128657D01*
X90259039Y-49084301D01*
X90284265Y-49042214D01*
X90313495Y-49002802D01*
X90346447Y-48966446D01*
X90382803Y-48933494D01*
X90422215Y-48904264D01*
X90464302Y-48879038D01*
X90508658Y-48858059D01*
X90554858Y-48841529D01*
X90602455Y-48829606D01*
X90650991Y-48822407D01*
X90700000Y-48819999D01*
X91300000Y-48819999D01*
X91349009Y-48822407D01*
X91349009Y-48822407D01*
G37*
D13*
X91000000Y-49320000D03*
D14*
X56900000Y-49200000D03*
X56900000Y-47300000D03*
X59100000Y-47300000D03*
X59100000Y-48250000D03*
X59100000Y-49200000D03*
D10*
G36*
X81980142Y-48113674D02*
G01*
X82003803Y-48117184D01*
X82027007Y-48122996D01*
X82049529Y-48131054D01*
X82071153Y-48141282D01*
X82091670Y-48153579D01*
X82110883Y-48167829D01*
X82128607Y-48183893D01*
X82144671Y-48201617D01*
X82158921Y-48220830D01*
X82171218Y-48241347D01*
X82181446Y-48262971D01*
X82189504Y-48285493D01*
X82195316Y-48308697D01*
X82198826Y-48332358D01*
X82200000Y-48356250D01*
X82200000Y-48843750D01*
X82198826Y-48867642D01*
X82195316Y-48891303D01*
X82189504Y-48914507D01*
X82181446Y-48937029D01*
X82171218Y-48958653D01*
X82158921Y-48979170D01*
X82144671Y-48998383D01*
X82128607Y-49016107D01*
X82110883Y-49032171D01*
X82091670Y-49046421D01*
X82071153Y-49058718D01*
X82049529Y-49068946D01*
X82027007Y-49077004D01*
X82003803Y-49082816D01*
X81980142Y-49086326D01*
X81956250Y-49087500D01*
X81043750Y-49087500D01*
X81019858Y-49086326D01*
X80996197Y-49082816D01*
X80972993Y-49077004D01*
X80950471Y-49068946D01*
X80928847Y-49058718D01*
X80908330Y-49046421D01*
X80889117Y-49032171D01*
X80871393Y-49016107D01*
X80855329Y-48998383D01*
X80841079Y-48979170D01*
X80828782Y-48958653D01*
X80818554Y-48937029D01*
X80810496Y-48914507D01*
X80804684Y-48891303D01*
X80801174Y-48867642D01*
X80800000Y-48843750D01*
X80800000Y-48356250D01*
X80801174Y-48332358D01*
X80804684Y-48308697D01*
X80810496Y-48285493D01*
X80818554Y-48262971D01*
X80828782Y-48241347D01*
X80841079Y-48220830D01*
X80855329Y-48201617D01*
X80871393Y-48183893D01*
X80889117Y-48167829D01*
X80908330Y-48153579D01*
X80928847Y-48141282D01*
X80950471Y-48131054D01*
X80972993Y-48122996D01*
X80996197Y-48117184D01*
X81019858Y-48113674D01*
X81043750Y-48112500D01*
X81956250Y-48112500D01*
X81980142Y-48113674D01*
X81980142Y-48113674D01*
G37*
D11*
X81500000Y-48600000D03*
D10*
G36*
X81980142Y-46238674D02*
G01*
X82003803Y-46242184D01*
X82027007Y-46247996D01*
X82049529Y-46256054D01*
X82071153Y-46266282D01*
X82091670Y-46278579D01*
X82110883Y-46292829D01*
X82128607Y-46308893D01*
X82144671Y-46326617D01*
X82158921Y-46345830D01*
X82171218Y-46366347D01*
X82181446Y-46387971D01*
X82189504Y-46410493D01*
X82195316Y-46433697D01*
X82198826Y-46457358D01*
X82200000Y-46481250D01*
X82200000Y-46968750D01*
X82198826Y-46992642D01*
X82195316Y-47016303D01*
X82189504Y-47039507D01*
X82181446Y-47062029D01*
X82171218Y-47083653D01*
X82158921Y-47104170D01*
X82144671Y-47123383D01*
X82128607Y-47141107D01*
X82110883Y-47157171D01*
X82091670Y-47171421D01*
X82071153Y-47183718D01*
X82049529Y-47193946D01*
X82027007Y-47202004D01*
X82003803Y-47207816D01*
X81980142Y-47211326D01*
X81956250Y-47212500D01*
X81043750Y-47212500D01*
X81019858Y-47211326D01*
X80996197Y-47207816D01*
X80972993Y-47202004D01*
X80950471Y-47193946D01*
X80928847Y-47183718D01*
X80908330Y-47171421D01*
X80889117Y-47157171D01*
X80871393Y-47141107D01*
X80855329Y-47123383D01*
X80841079Y-47104170D01*
X80828782Y-47083653D01*
X80818554Y-47062029D01*
X80810496Y-47039507D01*
X80804684Y-47016303D01*
X80801174Y-46992642D01*
X80800000Y-46968750D01*
X80800000Y-46481250D01*
X80801174Y-46457358D01*
X80804684Y-46433697D01*
X80810496Y-46410493D01*
X80818554Y-46387971D01*
X80828782Y-46366347D01*
X80841079Y-46345830D01*
X80855329Y-46326617D01*
X80871393Y-46308893D01*
X80889117Y-46292829D01*
X80908330Y-46278579D01*
X80928847Y-46266282D01*
X80950471Y-46256054D01*
X80972993Y-46247996D01*
X80996197Y-46242184D01*
X81019858Y-46238674D01*
X81043750Y-46237500D01*
X81956250Y-46237500D01*
X81980142Y-46238674D01*
X81980142Y-46238674D01*
G37*
D11*
X81500000Y-46725000D03*
D10*
G36*
X81980142Y-40638674D02*
G01*
X82003803Y-40642184D01*
X82027007Y-40647996D01*
X82049529Y-40656054D01*
X82071153Y-40666282D01*
X82091670Y-40678579D01*
X82110883Y-40692829D01*
X82128607Y-40708893D01*
X82144671Y-40726617D01*
X82158921Y-40745830D01*
X82171218Y-40766347D01*
X82181446Y-40787971D01*
X82189504Y-40810493D01*
X82195316Y-40833697D01*
X82198826Y-40857358D01*
X82200000Y-40881250D01*
X82200000Y-41368750D01*
X82198826Y-41392642D01*
X82195316Y-41416303D01*
X82189504Y-41439507D01*
X82181446Y-41462029D01*
X82171218Y-41483653D01*
X82158921Y-41504170D01*
X82144671Y-41523383D01*
X82128607Y-41541107D01*
X82110883Y-41557171D01*
X82091670Y-41571421D01*
X82071153Y-41583718D01*
X82049529Y-41593946D01*
X82027007Y-41602004D01*
X82003803Y-41607816D01*
X81980142Y-41611326D01*
X81956250Y-41612500D01*
X81043750Y-41612500D01*
X81019858Y-41611326D01*
X80996197Y-41607816D01*
X80972993Y-41602004D01*
X80950471Y-41593946D01*
X80928847Y-41583718D01*
X80908330Y-41571421D01*
X80889117Y-41557171D01*
X80871393Y-41541107D01*
X80855329Y-41523383D01*
X80841079Y-41504170D01*
X80828782Y-41483653D01*
X80818554Y-41462029D01*
X80810496Y-41439507D01*
X80804684Y-41416303D01*
X80801174Y-41392642D01*
X80800000Y-41368750D01*
X80800000Y-40881250D01*
X80801174Y-40857358D01*
X80804684Y-40833697D01*
X80810496Y-40810493D01*
X80818554Y-40787971D01*
X80828782Y-40766347D01*
X80841079Y-40745830D01*
X80855329Y-40726617D01*
X80871393Y-40708893D01*
X80889117Y-40692829D01*
X80908330Y-40678579D01*
X80928847Y-40666282D01*
X80950471Y-40656054D01*
X80972993Y-40647996D01*
X80996197Y-40642184D01*
X81019858Y-40638674D01*
X81043750Y-40637500D01*
X81956250Y-40637500D01*
X81980142Y-40638674D01*
X81980142Y-40638674D01*
G37*
D11*
X81500000Y-41125000D03*
D10*
G36*
X81980142Y-42513674D02*
G01*
X82003803Y-42517184D01*
X82027007Y-42522996D01*
X82049529Y-42531054D01*
X82071153Y-42541282D01*
X82091670Y-42553579D01*
X82110883Y-42567829D01*
X82128607Y-42583893D01*
X82144671Y-42601617D01*
X82158921Y-42620830D01*
X82171218Y-42641347D01*
X82181446Y-42662971D01*
X82189504Y-42685493D01*
X82195316Y-42708697D01*
X82198826Y-42732358D01*
X82200000Y-42756250D01*
X82200000Y-43243750D01*
X82198826Y-43267642D01*
X82195316Y-43291303D01*
X82189504Y-43314507D01*
X82181446Y-43337029D01*
X82171218Y-43358653D01*
X82158921Y-43379170D01*
X82144671Y-43398383D01*
X82128607Y-43416107D01*
X82110883Y-43432171D01*
X82091670Y-43446421D01*
X82071153Y-43458718D01*
X82049529Y-43468946D01*
X82027007Y-43477004D01*
X82003803Y-43482816D01*
X81980142Y-43486326D01*
X81956250Y-43487500D01*
X81043750Y-43487500D01*
X81019858Y-43486326D01*
X80996197Y-43482816D01*
X80972993Y-43477004D01*
X80950471Y-43468946D01*
X80928847Y-43458718D01*
X80908330Y-43446421D01*
X80889117Y-43432171D01*
X80871393Y-43416107D01*
X80855329Y-43398383D01*
X80841079Y-43379170D01*
X80828782Y-43358653D01*
X80818554Y-43337029D01*
X80810496Y-43314507D01*
X80804684Y-43291303D01*
X80801174Y-43267642D01*
X80800000Y-43243750D01*
X80800000Y-42756250D01*
X80801174Y-42732358D01*
X80804684Y-42708697D01*
X80810496Y-42685493D01*
X80818554Y-42662971D01*
X80828782Y-42641347D01*
X80841079Y-42620830D01*
X80855329Y-42601617D01*
X80871393Y-42583893D01*
X80889117Y-42567829D01*
X80908330Y-42553579D01*
X80928847Y-42541282D01*
X80950471Y-42531054D01*
X80972993Y-42522996D01*
X80996197Y-42517184D01*
X81019858Y-42513674D01*
X81043750Y-42512500D01*
X81956250Y-42512500D01*
X81980142Y-42513674D01*
X81980142Y-42513674D01*
G37*
D11*
X81500000Y-43000000D03*
D10*
G36*
X62892642Y-40301174D02*
G01*
X62916303Y-40304684D01*
X62939507Y-40310496D01*
X62962029Y-40318554D01*
X62983653Y-40328782D01*
X63004170Y-40341079D01*
X63023383Y-40355329D01*
X63041107Y-40371393D01*
X63057171Y-40389117D01*
X63071421Y-40408330D01*
X63083718Y-40428847D01*
X63093946Y-40450471D01*
X63102004Y-40472993D01*
X63107816Y-40496197D01*
X63111326Y-40519858D01*
X63112500Y-40543750D01*
X63112500Y-41456250D01*
X63111326Y-41480142D01*
X63107816Y-41503803D01*
X63102004Y-41527007D01*
X63093946Y-41549529D01*
X63083718Y-41571153D01*
X63071421Y-41591670D01*
X63057171Y-41610883D01*
X63041107Y-41628607D01*
X63023383Y-41644671D01*
X63004170Y-41658921D01*
X62983653Y-41671218D01*
X62962029Y-41681446D01*
X62939507Y-41689504D01*
X62916303Y-41695316D01*
X62892642Y-41698826D01*
X62868750Y-41700000D01*
X62381250Y-41700000D01*
X62357358Y-41698826D01*
X62333697Y-41695316D01*
X62310493Y-41689504D01*
X62287971Y-41681446D01*
X62266347Y-41671218D01*
X62245830Y-41658921D01*
X62226617Y-41644671D01*
X62208893Y-41628607D01*
X62192829Y-41610883D01*
X62178579Y-41591670D01*
X62166282Y-41571153D01*
X62156054Y-41549529D01*
X62147996Y-41527007D01*
X62142184Y-41503803D01*
X62138674Y-41480142D01*
X62137500Y-41456250D01*
X62137500Y-40543750D01*
X62138674Y-40519858D01*
X62142184Y-40496197D01*
X62147996Y-40472993D01*
X62156054Y-40450471D01*
X62166282Y-40428847D01*
X62178579Y-40408330D01*
X62192829Y-40389117D01*
X62208893Y-40371393D01*
X62226617Y-40355329D01*
X62245830Y-40341079D01*
X62266347Y-40328782D01*
X62287971Y-40318554D01*
X62310493Y-40310496D01*
X62333697Y-40304684D01*
X62357358Y-40301174D01*
X62381250Y-40300000D01*
X62868750Y-40300000D01*
X62892642Y-40301174D01*
X62892642Y-40301174D01*
G37*
D11*
X62625000Y-41000000D03*
D10*
G36*
X64767642Y-40301174D02*
G01*
X64791303Y-40304684D01*
X64814507Y-40310496D01*
X64837029Y-40318554D01*
X64858653Y-40328782D01*
X64879170Y-40341079D01*
X64898383Y-40355329D01*
X64916107Y-40371393D01*
X64932171Y-40389117D01*
X64946421Y-40408330D01*
X64958718Y-40428847D01*
X64968946Y-40450471D01*
X64977004Y-40472993D01*
X64982816Y-40496197D01*
X64986326Y-40519858D01*
X64987500Y-40543750D01*
X64987500Y-41456250D01*
X64986326Y-41480142D01*
X64982816Y-41503803D01*
X64977004Y-41527007D01*
X64968946Y-41549529D01*
X64958718Y-41571153D01*
X64946421Y-41591670D01*
X64932171Y-41610883D01*
X64916107Y-41628607D01*
X64898383Y-41644671D01*
X64879170Y-41658921D01*
X64858653Y-41671218D01*
X64837029Y-41681446D01*
X64814507Y-41689504D01*
X64791303Y-41695316D01*
X64767642Y-41698826D01*
X64743750Y-41700000D01*
X64256250Y-41700000D01*
X64232358Y-41698826D01*
X64208697Y-41695316D01*
X64185493Y-41689504D01*
X64162971Y-41681446D01*
X64141347Y-41671218D01*
X64120830Y-41658921D01*
X64101617Y-41644671D01*
X64083893Y-41628607D01*
X64067829Y-41610883D01*
X64053579Y-41591670D01*
X64041282Y-41571153D01*
X64031054Y-41549529D01*
X64022996Y-41527007D01*
X64017184Y-41503803D01*
X64013674Y-41480142D01*
X64012500Y-41456250D01*
X64012500Y-40543750D01*
X64013674Y-40519858D01*
X64017184Y-40496197D01*
X64022996Y-40472993D01*
X64031054Y-40450471D01*
X64041282Y-40428847D01*
X64053579Y-40408330D01*
X64067829Y-40389117D01*
X64083893Y-40371393D01*
X64101617Y-40355329D01*
X64120830Y-40341079D01*
X64141347Y-40328782D01*
X64162971Y-40318554D01*
X64185493Y-40310496D01*
X64208697Y-40304684D01*
X64232358Y-40301174D01*
X64256250Y-40300000D01*
X64743750Y-40300000D01*
X64767642Y-40301174D01*
X64767642Y-40301174D01*
G37*
D11*
X64500000Y-41000000D03*
D10*
G36*
X57580142Y-40613674D02*
G01*
X57603803Y-40617184D01*
X57627007Y-40622996D01*
X57649529Y-40631054D01*
X57671153Y-40641282D01*
X57691670Y-40653579D01*
X57710883Y-40667829D01*
X57728607Y-40683893D01*
X57744671Y-40701617D01*
X57758921Y-40720830D01*
X57771218Y-40741347D01*
X57781446Y-40762971D01*
X57789504Y-40785493D01*
X57795316Y-40808697D01*
X57798826Y-40832358D01*
X57800000Y-40856250D01*
X57800000Y-41343750D01*
X57798826Y-41367642D01*
X57795316Y-41391303D01*
X57789504Y-41414507D01*
X57781446Y-41437029D01*
X57771218Y-41458653D01*
X57758921Y-41479170D01*
X57744671Y-41498383D01*
X57728607Y-41516107D01*
X57710883Y-41532171D01*
X57691670Y-41546421D01*
X57671153Y-41558718D01*
X57649529Y-41568946D01*
X57627007Y-41577004D01*
X57603803Y-41582816D01*
X57580142Y-41586326D01*
X57556250Y-41587500D01*
X56643750Y-41587500D01*
X56619858Y-41586326D01*
X56596197Y-41582816D01*
X56572993Y-41577004D01*
X56550471Y-41568946D01*
X56528847Y-41558718D01*
X56508330Y-41546421D01*
X56489117Y-41532171D01*
X56471393Y-41516107D01*
X56455329Y-41498383D01*
X56441079Y-41479170D01*
X56428782Y-41458653D01*
X56418554Y-41437029D01*
X56410496Y-41414507D01*
X56404684Y-41391303D01*
X56401174Y-41367642D01*
X56400000Y-41343750D01*
X56400000Y-40856250D01*
X56401174Y-40832358D01*
X56404684Y-40808697D01*
X56410496Y-40785493D01*
X56418554Y-40762971D01*
X56428782Y-40741347D01*
X56441079Y-40720830D01*
X56455329Y-40701617D01*
X56471393Y-40683893D01*
X56489117Y-40667829D01*
X56508330Y-40653579D01*
X56528847Y-40641282D01*
X56550471Y-40631054D01*
X56572993Y-40622996D01*
X56596197Y-40617184D01*
X56619858Y-40613674D01*
X56643750Y-40612500D01*
X57556250Y-40612500D01*
X57580142Y-40613674D01*
X57580142Y-40613674D01*
G37*
D11*
X57100000Y-41100000D03*
D10*
G36*
X57580142Y-42488674D02*
G01*
X57603803Y-42492184D01*
X57627007Y-42497996D01*
X57649529Y-42506054D01*
X57671153Y-42516282D01*
X57691670Y-42528579D01*
X57710883Y-42542829D01*
X57728607Y-42558893D01*
X57744671Y-42576617D01*
X57758921Y-42595830D01*
X57771218Y-42616347D01*
X57781446Y-42637971D01*
X57789504Y-42660493D01*
X57795316Y-42683697D01*
X57798826Y-42707358D01*
X57800000Y-42731250D01*
X57800000Y-43218750D01*
X57798826Y-43242642D01*
X57795316Y-43266303D01*
X57789504Y-43289507D01*
X57781446Y-43312029D01*
X57771218Y-43333653D01*
X57758921Y-43354170D01*
X57744671Y-43373383D01*
X57728607Y-43391107D01*
X57710883Y-43407171D01*
X57691670Y-43421421D01*
X57671153Y-43433718D01*
X57649529Y-43443946D01*
X57627007Y-43452004D01*
X57603803Y-43457816D01*
X57580142Y-43461326D01*
X57556250Y-43462500D01*
X56643750Y-43462500D01*
X56619858Y-43461326D01*
X56596197Y-43457816D01*
X56572993Y-43452004D01*
X56550471Y-43443946D01*
X56528847Y-43433718D01*
X56508330Y-43421421D01*
X56489117Y-43407171D01*
X56471393Y-43391107D01*
X56455329Y-43373383D01*
X56441079Y-43354170D01*
X56428782Y-43333653D01*
X56418554Y-43312029D01*
X56410496Y-43289507D01*
X56404684Y-43266303D01*
X56401174Y-43242642D01*
X56400000Y-43218750D01*
X56400000Y-42731250D01*
X56401174Y-42707358D01*
X56404684Y-42683697D01*
X56410496Y-42660493D01*
X56418554Y-42637971D01*
X56428782Y-42616347D01*
X56441079Y-42595830D01*
X56455329Y-42576617D01*
X56471393Y-42558893D01*
X56489117Y-42542829D01*
X56508330Y-42528579D01*
X56528847Y-42516282D01*
X56550471Y-42506054D01*
X56572993Y-42497996D01*
X56596197Y-42492184D01*
X56619858Y-42488674D01*
X56643750Y-42487500D01*
X57556250Y-42487500D01*
X57580142Y-42488674D01*
X57580142Y-42488674D01*
G37*
D11*
X57100000Y-42975000D03*
D10*
G36*
X74367642Y-39301174D02*
G01*
X74391303Y-39304684D01*
X74414507Y-39310496D01*
X74437029Y-39318554D01*
X74458653Y-39328782D01*
X74479170Y-39341079D01*
X74498383Y-39355329D01*
X74516107Y-39371393D01*
X74532171Y-39389117D01*
X74546421Y-39408330D01*
X74558718Y-39428847D01*
X74568946Y-39450471D01*
X74577004Y-39472993D01*
X74582816Y-39496197D01*
X74586326Y-39519858D01*
X74587500Y-39543750D01*
X74587500Y-40456250D01*
X74586326Y-40480142D01*
X74582816Y-40503803D01*
X74577004Y-40527007D01*
X74568946Y-40549529D01*
X74558718Y-40571153D01*
X74546421Y-40591670D01*
X74532171Y-40610883D01*
X74516107Y-40628607D01*
X74498383Y-40644671D01*
X74479170Y-40658921D01*
X74458653Y-40671218D01*
X74437029Y-40681446D01*
X74414507Y-40689504D01*
X74391303Y-40695316D01*
X74367642Y-40698826D01*
X74343750Y-40700000D01*
X73856250Y-40700000D01*
X73832358Y-40698826D01*
X73808697Y-40695316D01*
X73785493Y-40689504D01*
X73762971Y-40681446D01*
X73741347Y-40671218D01*
X73720830Y-40658921D01*
X73701617Y-40644671D01*
X73683893Y-40628607D01*
X73667829Y-40610883D01*
X73653579Y-40591670D01*
X73641282Y-40571153D01*
X73631054Y-40549529D01*
X73622996Y-40527007D01*
X73617184Y-40503803D01*
X73613674Y-40480142D01*
X73612500Y-40456250D01*
X73612500Y-39543750D01*
X73613674Y-39519858D01*
X73617184Y-39496197D01*
X73622996Y-39472993D01*
X73631054Y-39450471D01*
X73641282Y-39428847D01*
X73653579Y-39408330D01*
X73667829Y-39389117D01*
X73683893Y-39371393D01*
X73701617Y-39355329D01*
X73720830Y-39341079D01*
X73741347Y-39328782D01*
X73762971Y-39318554D01*
X73785493Y-39310496D01*
X73808697Y-39304684D01*
X73832358Y-39301174D01*
X73856250Y-39300000D01*
X74343750Y-39300000D01*
X74367642Y-39301174D01*
X74367642Y-39301174D01*
G37*
D11*
X74100000Y-40000000D03*
D10*
G36*
X72492642Y-39301174D02*
G01*
X72516303Y-39304684D01*
X72539507Y-39310496D01*
X72562029Y-39318554D01*
X72583653Y-39328782D01*
X72604170Y-39341079D01*
X72623383Y-39355329D01*
X72641107Y-39371393D01*
X72657171Y-39389117D01*
X72671421Y-39408330D01*
X72683718Y-39428847D01*
X72693946Y-39450471D01*
X72702004Y-39472993D01*
X72707816Y-39496197D01*
X72711326Y-39519858D01*
X72712500Y-39543750D01*
X72712500Y-40456250D01*
X72711326Y-40480142D01*
X72707816Y-40503803D01*
X72702004Y-40527007D01*
X72693946Y-40549529D01*
X72683718Y-40571153D01*
X72671421Y-40591670D01*
X72657171Y-40610883D01*
X72641107Y-40628607D01*
X72623383Y-40644671D01*
X72604170Y-40658921D01*
X72583653Y-40671218D01*
X72562029Y-40681446D01*
X72539507Y-40689504D01*
X72516303Y-40695316D01*
X72492642Y-40698826D01*
X72468750Y-40700000D01*
X71981250Y-40700000D01*
X71957358Y-40698826D01*
X71933697Y-40695316D01*
X71910493Y-40689504D01*
X71887971Y-40681446D01*
X71866347Y-40671218D01*
X71845830Y-40658921D01*
X71826617Y-40644671D01*
X71808893Y-40628607D01*
X71792829Y-40610883D01*
X71778579Y-40591670D01*
X71766282Y-40571153D01*
X71756054Y-40549529D01*
X71747996Y-40527007D01*
X71742184Y-40503803D01*
X71738674Y-40480142D01*
X71737500Y-40456250D01*
X71737500Y-39543750D01*
X71738674Y-39519858D01*
X71742184Y-39496197D01*
X71747996Y-39472993D01*
X71756054Y-39450471D01*
X71766282Y-39428847D01*
X71778579Y-39408330D01*
X71792829Y-39389117D01*
X71808893Y-39371393D01*
X71826617Y-39355329D01*
X71845830Y-39341079D01*
X71866347Y-39328782D01*
X71887971Y-39318554D01*
X71910493Y-39310496D01*
X71933697Y-39304684D01*
X71957358Y-39301174D01*
X71981250Y-39300000D01*
X72468750Y-39300000D01*
X72492642Y-39301174D01*
X72492642Y-39301174D01*
G37*
D11*
X72225000Y-40000000D03*
D10*
G36*
X74267642Y-51301174D02*
G01*
X74291303Y-51304684D01*
X74314507Y-51310496D01*
X74337029Y-51318554D01*
X74358653Y-51328782D01*
X74379170Y-51341079D01*
X74398383Y-51355329D01*
X74416107Y-51371393D01*
X74432171Y-51389117D01*
X74446421Y-51408330D01*
X74458718Y-51428847D01*
X74468946Y-51450471D01*
X74477004Y-51472993D01*
X74482816Y-51496197D01*
X74486326Y-51519858D01*
X74487500Y-51543750D01*
X74487500Y-52456250D01*
X74486326Y-52480142D01*
X74482816Y-52503803D01*
X74477004Y-52527007D01*
X74468946Y-52549529D01*
X74458718Y-52571153D01*
X74446421Y-52591670D01*
X74432171Y-52610883D01*
X74416107Y-52628607D01*
X74398383Y-52644671D01*
X74379170Y-52658921D01*
X74358653Y-52671218D01*
X74337029Y-52681446D01*
X74314507Y-52689504D01*
X74291303Y-52695316D01*
X74267642Y-52698826D01*
X74243750Y-52700000D01*
X73756250Y-52700000D01*
X73732358Y-52698826D01*
X73708697Y-52695316D01*
X73685493Y-52689504D01*
X73662971Y-52681446D01*
X73641347Y-52671218D01*
X73620830Y-52658921D01*
X73601617Y-52644671D01*
X73583893Y-52628607D01*
X73567829Y-52610883D01*
X73553579Y-52591670D01*
X73541282Y-52571153D01*
X73531054Y-52549529D01*
X73522996Y-52527007D01*
X73517184Y-52503803D01*
X73513674Y-52480142D01*
X73512500Y-52456250D01*
X73512500Y-51543750D01*
X73513674Y-51519858D01*
X73517184Y-51496197D01*
X73522996Y-51472993D01*
X73531054Y-51450471D01*
X73541282Y-51428847D01*
X73553579Y-51408330D01*
X73567829Y-51389117D01*
X73583893Y-51371393D01*
X73601617Y-51355329D01*
X73620830Y-51341079D01*
X73641347Y-51328782D01*
X73662971Y-51318554D01*
X73685493Y-51310496D01*
X73708697Y-51304684D01*
X73732358Y-51301174D01*
X73756250Y-51300000D01*
X74243750Y-51300000D01*
X74267642Y-51301174D01*
X74267642Y-51301174D01*
G37*
D11*
X74000000Y-52000000D03*
D10*
G36*
X72392642Y-51301174D02*
G01*
X72416303Y-51304684D01*
X72439507Y-51310496D01*
X72462029Y-51318554D01*
X72483653Y-51328782D01*
X72504170Y-51341079D01*
X72523383Y-51355329D01*
X72541107Y-51371393D01*
X72557171Y-51389117D01*
X72571421Y-51408330D01*
X72583718Y-51428847D01*
X72593946Y-51450471D01*
X72602004Y-51472993D01*
X72607816Y-51496197D01*
X72611326Y-51519858D01*
X72612500Y-51543750D01*
X72612500Y-52456250D01*
X72611326Y-52480142D01*
X72607816Y-52503803D01*
X72602004Y-52527007D01*
X72593946Y-52549529D01*
X72583718Y-52571153D01*
X72571421Y-52591670D01*
X72557171Y-52610883D01*
X72541107Y-52628607D01*
X72523383Y-52644671D01*
X72504170Y-52658921D01*
X72483653Y-52671218D01*
X72462029Y-52681446D01*
X72439507Y-52689504D01*
X72416303Y-52695316D01*
X72392642Y-52698826D01*
X72368750Y-52700000D01*
X71881250Y-52700000D01*
X71857358Y-52698826D01*
X71833697Y-52695316D01*
X71810493Y-52689504D01*
X71787971Y-52681446D01*
X71766347Y-52671218D01*
X71745830Y-52658921D01*
X71726617Y-52644671D01*
X71708893Y-52628607D01*
X71692829Y-52610883D01*
X71678579Y-52591670D01*
X71666282Y-52571153D01*
X71656054Y-52549529D01*
X71647996Y-52527007D01*
X71642184Y-52503803D01*
X71638674Y-52480142D01*
X71637500Y-52456250D01*
X71637500Y-51543750D01*
X71638674Y-51519858D01*
X71642184Y-51496197D01*
X71647996Y-51472993D01*
X71656054Y-51450471D01*
X71666282Y-51428847D01*
X71678579Y-51408330D01*
X71692829Y-51389117D01*
X71708893Y-51371393D01*
X71726617Y-51355329D01*
X71745830Y-51341079D01*
X71766347Y-51328782D01*
X71787971Y-51318554D01*
X71810493Y-51310496D01*
X71833697Y-51304684D01*
X71857358Y-51301174D01*
X71881250Y-51300000D01*
X72368750Y-51300000D01*
X72392642Y-51301174D01*
X72392642Y-51301174D01*
G37*
D11*
X72125000Y-52000000D03*
D10*
G36*
X62992642Y-49001174D02*
G01*
X63016303Y-49004684D01*
X63039507Y-49010496D01*
X63062029Y-49018554D01*
X63083653Y-49028782D01*
X63104170Y-49041079D01*
X63123383Y-49055329D01*
X63141107Y-49071393D01*
X63157171Y-49089117D01*
X63171421Y-49108330D01*
X63183718Y-49128847D01*
X63193946Y-49150471D01*
X63202004Y-49172993D01*
X63207816Y-49196197D01*
X63211326Y-49219858D01*
X63212500Y-49243750D01*
X63212500Y-50156250D01*
X63211326Y-50180142D01*
X63207816Y-50203803D01*
X63202004Y-50227007D01*
X63193946Y-50249529D01*
X63183718Y-50271153D01*
X63171421Y-50291670D01*
X63157171Y-50310883D01*
X63141107Y-50328607D01*
X63123383Y-50344671D01*
X63104170Y-50358921D01*
X63083653Y-50371218D01*
X63062029Y-50381446D01*
X63039507Y-50389504D01*
X63016303Y-50395316D01*
X62992642Y-50398826D01*
X62968750Y-50400000D01*
X62481250Y-50400000D01*
X62457358Y-50398826D01*
X62433697Y-50395316D01*
X62410493Y-50389504D01*
X62387971Y-50381446D01*
X62366347Y-50371218D01*
X62345830Y-50358921D01*
X62326617Y-50344671D01*
X62308893Y-50328607D01*
X62292829Y-50310883D01*
X62278579Y-50291670D01*
X62266282Y-50271153D01*
X62256054Y-50249529D01*
X62247996Y-50227007D01*
X62242184Y-50203803D01*
X62238674Y-50180142D01*
X62237500Y-50156250D01*
X62237500Y-49243750D01*
X62238674Y-49219858D01*
X62242184Y-49196197D01*
X62247996Y-49172993D01*
X62256054Y-49150471D01*
X62266282Y-49128847D01*
X62278579Y-49108330D01*
X62292829Y-49089117D01*
X62308893Y-49071393D01*
X62326617Y-49055329D01*
X62345830Y-49041079D01*
X62366347Y-49028782D01*
X62387971Y-49018554D01*
X62410493Y-49010496D01*
X62433697Y-49004684D01*
X62457358Y-49001174D01*
X62481250Y-49000000D01*
X62968750Y-49000000D01*
X62992642Y-49001174D01*
X62992642Y-49001174D01*
G37*
D11*
X62725000Y-49700000D03*
D10*
G36*
X64867642Y-49001174D02*
G01*
X64891303Y-49004684D01*
X64914507Y-49010496D01*
X64937029Y-49018554D01*
X64958653Y-49028782D01*
X64979170Y-49041079D01*
X64998383Y-49055329D01*
X65016107Y-49071393D01*
X65032171Y-49089117D01*
X65046421Y-49108330D01*
X65058718Y-49128847D01*
X65068946Y-49150471D01*
X65077004Y-49172993D01*
X65082816Y-49196197D01*
X65086326Y-49219858D01*
X65087500Y-49243750D01*
X65087500Y-50156250D01*
X65086326Y-50180142D01*
X65082816Y-50203803D01*
X65077004Y-50227007D01*
X65068946Y-50249529D01*
X65058718Y-50271153D01*
X65046421Y-50291670D01*
X65032171Y-50310883D01*
X65016107Y-50328607D01*
X64998383Y-50344671D01*
X64979170Y-50358921D01*
X64958653Y-50371218D01*
X64937029Y-50381446D01*
X64914507Y-50389504D01*
X64891303Y-50395316D01*
X64867642Y-50398826D01*
X64843750Y-50400000D01*
X64356250Y-50400000D01*
X64332358Y-50398826D01*
X64308697Y-50395316D01*
X64285493Y-50389504D01*
X64262971Y-50381446D01*
X64241347Y-50371218D01*
X64220830Y-50358921D01*
X64201617Y-50344671D01*
X64183893Y-50328607D01*
X64167829Y-50310883D01*
X64153579Y-50291670D01*
X64141282Y-50271153D01*
X64131054Y-50249529D01*
X64122996Y-50227007D01*
X64117184Y-50203803D01*
X64113674Y-50180142D01*
X64112500Y-50156250D01*
X64112500Y-49243750D01*
X64113674Y-49219858D01*
X64117184Y-49196197D01*
X64122996Y-49172993D01*
X64131054Y-49150471D01*
X64141282Y-49128847D01*
X64153579Y-49108330D01*
X64167829Y-49089117D01*
X64183893Y-49071393D01*
X64201617Y-49055329D01*
X64220830Y-49041079D01*
X64241347Y-49028782D01*
X64262971Y-49018554D01*
X64285493Y-49010496D01*
X64308697Y-49004684D01*
X64332358Y-49001174D01*
X64356250Y-49000000D01*
X64843750Y-49000000D01*
X64867642Y-49001174D01*
X64867642Y-49001174D01*
G37*
D11*
X64600000Y-49700000D03*
D15*
X89850000Y-45400000D03*
X57700000Y-44920000D03*
X60950000Y-50500000D03*
X61500000Y-43050000D03*
D16*
X58320000Y-47300000D02*
X59100000Y-47300000D01*
X58244999Y-49785001D02*
X58244999Y-47375001D01*
X60459998Y-52000000D02*
X58244999Y-49785001D01*
X58244999Y-47375001D02*
X58320000Y-47300000D01*
X72125000Y-52000000D02*
X60459998Y-52000000D01*
X72681237Y-52556237D02*
X72681237Y-53031237D01*
X72125000Y-52000000D02*
X72681237Y-52556237D01*
X72681237Y-53031237D02*
X73450000Y-53800000D01*
X73450000Y-53800000D02*
X85950000Y-53800000D01*
X85950000Y-53800000D02*
X89850000Y-49900000D01*
X89850000Y-49900000D02*
X89850000Y-45400000D01*
X59100000Y-46320000D02*
X57700000Y-44920000D01*
X59100000Y-47300000D02*
X59100000Y-46320000D01*
X61275000Y-48250000D02*
X59100000Y-48250000D01*
X62725000Y-49700000D02*
X61275000Y-48250000D01*
X88050000Y-43480000D02*
X89050000Y-44480000D01*
X87200000Y-43480000D02*
X88050000Y-43480000D01*
X88050000Y-46520000D02*
X87200000Y-46520000D01*
X89050000Y-45520000D02*
X88050000Y-46520000D01*
X89050000Y-44480000D02*
X89050000Y-45520000D01*
X64600000Y-49700000D02*
X76300000Y-49700000D01*
X76300000Y-49700000D02*
X77700000Y-48300000D01*
X77700000Y-43600000D02*
X74100000Y-40000000D01*
X77700000Y-48300000D02*
X77700000Y-43600000D01*
X74687500Y-40000000D02*
X74100000Y-40000000D01*
X86350000Y-43480000D02*
X82870000Y-40000000D01*
X82870000Y-40000000D02*
X74687500Y-40000000D01*
X87200000Y-43480000D02*
X86350000Y-43480000D01*
X57351999Y-44194999D02*
X59094999Y-44194999D01*
X56900000Y-44646998D02*
X57351999Y-44194999D01*
X64600000Y-49700000D02*
X61750000Y-46850000D01*
X59094999Y-44194999D02*
X61750000Y-46850000D01*
X56900000Y-47300000D02*
X56900000Y-44646998D01*
X61750000Y-46850000D02*
X61549999Y-46649999D01*
X71225000Y-41000000D02*
X72225000Y-40000000D01*
X64500000Y-41000000D02*
X71225000Y-41000000D01*
X83000000Y-44500000D02*
X81500000Y-43000000D01*
X87200000Y-44500000D02*
X83000000Y-44500000D01*
X82725000Y-45500000D02*
X81500000Y-46725000D01*
X87200000Y-45500000D02*
X82725000Y-45500000D01*
X56900000Y-48625000D02*
X56900000Y-49200000D01*
X56044999Y-47769999D02*
X56900000Y-48625000D01*
X56044999Y-44030001D02*
X56044999Y-47769999D01*
X57100000Y-42975000D02*
X56044999Y-44030001D01*
X62625000Y-41000000D02*
X62625000Y-44700000D01*
X59650000Y-49200000D02*
X60950000Y-50500000D01*
X59100000Y-49200000D02*
X59650000Y-49200000D01*
X61500000Y-43575000D02*
X62625000Y-44700000D01*
X61500000Y-43050000D02*
X61500000Y-43575000D01*
X64700000Y-44900000D02*
X64500000Y-44700000D01*
X72225000Y-44900000D02*
X64700000Y-44900000D01*
D17*
G36*
X74501348Y-31456281D02*
G01*
X76628325Y-31635415D01*
X78737607Y-31962480D01*
X80818950Y-32435886D01*
X82862192Y-33053325D01*
X84857381Y-33811788D01*
X86794815Y-34707586D01*
X87918791Y-35325856D01*
X87639245Y-35359191D01*
X87327414Y-35460511D01*
X87041201Y-35620469D01*
X86791509Y-35832974D01*
X86587848Y-36089930D01*
X86437976Y-36381551D01*
X86347600Y-36696728D01*
X86320164Y-37023456D01*
X86356712Y-37349292D01*
X86455853Y-37661822D01*
X86613809Y-37949145D01*
X86824566Y-38200314D01*
X87080094Y-38405764D01*
X87370661Y-38557669D01*
X87685199Y-38650243D01*
X88011729Y-38679959D01*
X88337811Y-38645686D01*
X88651026Y-38548730D01*
X88939444Y-38392783D01*
X89192079Y-38183785D01*
X89399308Y-37929698D01*
X89553237Y-37640198D01*
X89648005Y-37326314D01*
X89680000Y-37000000D01*
X89679345Y-36953092D01*
X89638251Y-36627799D01*
X89534756Y-36316682D01*
X89517243Y-36285854D01*
X90458928Y-36893056D01*
X92174709Y-38177281D01*
X92340000Y-38312618D01*
X92340000Y-39843210D01*
X92330537Y-39825506D01*
X92251185Y-39728815D01*
X92154494Y-39649463D01*
X92044180Y-39590498D01*
X91924482Y-39554188D01*
X91800000Y-39541928D01*
X91285750Y-39545000D01*
X91127000Y-39703750D01*
X91127000Y-40553000D01*
X91147000Y-40553000D01*
X91147000Y-40807000D01*
X91127000Y-40807000D01*
X91127000Y-41656250D01*
X91285750Y-41815000D01*
X91800000Y-41818072D01*
X91924482Y-41805812D01*
X92044180Y-41769502D01*
X92154494Y-41710537D01*
X92251185Y-41631185D01*
X92330537Y-41534494D01*
X92340000Y-41516790D01*
X92340001Y-48483211D01*
X92330537Y-48465506D01*
X92251185Y-48368815D01*
X92154494Y-48289463D01*
X92044180Y-48230498D01*
X91924482Y-48194188D01*
X91800000Y-48181928D01*
X91285750Y-48185000D01*
X91127000Y-48343750D01*
X91127000Y-49193000D01*
X91147000Y-49193000D01*
X91147000Y-49447000D01*
X91127000Y-49447000D01*
X91127000Y-50296250D01*
X91285750Y-50455000D01*
X91800000Y-50458072D01*
X91924482Y-50445812D01*
X92044180Y-50409502D01*
X92154494Y-50350537D01*
X92251185Y-50271185D01*
X92330537Y-50174494D01*
X92340001Y-50156789D01*
X92340001Y-55092097D01*
X85045622Y-58739288D01*
X83688330Y-57881826D01*
X83688314Y-57881815D01*
X83654707Y-57862582D01*
X83638342Y-57853216D01*
X83638332Y-57853212D01*
X82024987Y-57021131D01*
X82024960Y-57021116D01*
X81986754Y-57003478D01*
X81972684Y-56996981D01*
X81972672Y-56996977D01*
X80292940Y-56308670D01*
X80292921Y-56308661D01*
X80258922Y-56296433D01*
X80238741Y-56289174D01*
X80238720Y-56289168D01*
X78505399Y-55749883D01*
X78505378Y-55749876D01*
X78477542Y-55742531D01*
X78449706Y-55735185D01*
X78449684Y-55735181D01*
X76675958Y-55349017D01*
X76675936Y-55349011D01*
X76649817Y-55344508D01*
X76619196Y-55339228D01*
X76619170Y-55339226D01*
X74818540Y-55109122D01*
X74818518Y-55109118D01*
X74788577Y-55106614D01*
X74761140Y-55104318D01*
X74761118Y-55104318D01*
X72947283Y-55032024D01*
X72947260Y-55032022D01*
X72889682Y-55032241D01*
X71076403Y-55118312D01*
X71026226Y-55122894D01*
X71019064Y-55123548D01*
X69220185Y-55367328D01*
X69163521Y-55377541D01*
X69163499Y-55377547D01*
X67392762Y-55777171D01*
X67392735Y-55777176D01*
X67337177Y-55792290D01*
X65607960Y-56344739D01*
X65553930Y-56364637D01*
X63879442Y-57065694D01*
X63827352Y-57090225D01*
X63827344Y-57090230D01*
X62220346Y-57934551D01*
X62220336Y-57934556D01*
X62202024Y-57945222D01*
X62170583Y-57963534D01*
X62170567Y-57963545D01*
X60949378Y-58748064D01*
X53087659Y-55079652D01*
X53087659Y-54023456D01*
X55320164Y-54023456D01*
X55356712Y-54349292D01*
X55455853Y-54661822D01*
X55613809Y-54949145D01*
X55824566Y-55200314D01*
X56080094Y-55405764D01*
X56370661Y-55557669D01*
X56685199Y-55650243D01*
X57011729Y-55679959D01*
X57337811Y-55645686D01*
X57651026Y-55548730D01*
X57939444Y-55392783D01*
X58192079Y-55183785D01*
X58399308Y-54929698D01*
X58553237Y-54640198D01*
X58648005Y-54326314D01*
X58680000Y-54000000D01*
X58679345Y-53953092D01*
X58638251Y-53627799D01*
X58534756Y-53316682D01*
X58372803Y-53031594D01*
X58158561Y-52783391D01*
X57900189Y-52581529D01*
X57607529Y-52433696D01*
X57291729Y-52345523D01*
X56964817Y-52320368D01*
X56639245Y-52359191D01*
X56327414Y-52460511D01*
X56041201Y-52620469D01*
X55791509Y-52832974D01*
X55587848Y-53089930D01*
X55437976Y-53381551D01*
X55347600Y-53696728D01*
X55320164Y-54023456D01*
X53087659Y-54023456D01*
X53087659Y-44030001D01*
X55281323Y-44030001D01*
X55284999Y-44067324D01*
X55285000Y-47732667D01*
X55281323Y-47769999D01*
X55285000Y-47807332D01*
X55295997Y-47918985D01*
X55297822Y-47925000D01*
X55339453Y-48062245D01*
X55410025Y-48194275D01*
X55466486Y-48263072D01*
X55504999Y-48310000D01*
X55533997Y-48333798D01*
X55798096Y-48597897D01*
X55780498Y-48630820D01*
X55744188Y-48750518D01*
X55731928Y-48875000D01*
X55731928Y-49525000D01*
X55744188Y-49649482D01*
X55780498Y-49769180D01*
X55839463Y-49879494D01*
X55918815Y-49976185D01*
X56015506Y-50055537D01*
X56125820Y-50114502D01*
X56245518Y-50150812D01*
X56370000Y-50163072D01*
X57430000Y-50163072D01*
X57554482Y-50150812D01*
X57575385Y-50144471D01*
X57610025Y-50209277D01*
X57635240Y-50240001D01*
X57704998Y-50325002D01*
X57734002Y-50348805D01*
X59896198Y-52511002D01*
X59919997Y-52540001D01*
X59948995Y-52563799D01*
X60035722Y-52634974D01*
X60167751Y-52705546D01*
X60311012Y-52749003D01*
X60459998Y-52763677D01*
X60497331Y-52760000D01*
X71056327Y-52760000D01*
X71066553Y-52793709D01*
X71148042Y-52946164D01*
X71257708Y-53079792D01*
X71391336Y-53189458D01*
X71543791Y-53270947D01*
X71709215Y-53321128D01*
X71881250Y-53338072D01*
X71983489Y-53338072D01*
X72046263Y-53455513D01*
X72141237Y-53571238D01*
X72170235Y-53595036D01*
X72886201Y-54311002D01*
X72909999Y-54340001D01*
X72938997Y-54363799D01*
X73025723Y-54434974D01*
X73157753Y-54505546D01*
X73301014Y-54549003D01*
X73412667Y-54560000D01*
X73412676Y-54560000D01*
X73449999Y-54563676D01*
X73487322Y-54560000D01*
X85912678Y-54560000D01*
X85950000Y-54563676D01*
X85987322Y-54560000D01*
X85987333Y-54560000D01*
X86098986Y-54549003D01*
X86242247Y-54505546D01*
X86374276Y-54434974D01*
X86490001Y-54340001D01*
X86513804Y-54310997D01*
X90361004Y-50463798D01*
X90369213Y-50457061D01*
X90714250Y-50455000D01*
X90873000Y-50296250D01*
X90873000Y-49447000D01*
X90853000Y-49447000D01*
X90853000Y-49193000D01*
X90873000Y-49193000D01*
X90873000Y-48343750D01*
X90714250Y-48185000D01*
X90610000Y-48184377D01*
X90610000Y-46103711D01*
X90653937Y-46059774D01*
X90767205Y-45890256D01*
X90845226Y-45701898D01*
X90885000Y-45501939D01*
X90885000Y-45298061D01*
X90845226Y-45098102D01*
X90767205Y-44909744D01*
X90653937Y-44740226D01*
X90509774Y-44596063D01*
X90340256Y-44482795D01*
X90151898Y-44404774D01*
X89951939Y-44365000D01*
X89802350Y-44365000D01*
X89799003Y-44331014D01*
X89755546Y-44187753D01*
X89684974Y-44055724D01*
X89613799Y-43968997D01*
X89590001Y-43939999D01*
X89561004Y-43916202D01*
X88613804Y-42969002D01*
X88590001Y-42939999D01*
X88474276Y-42845026D01*
X88414160Y-42812893D01*
X88425812Y-42774482D01*
X88438072Y-42650000D01*
X88435000Y-42535750D01*
X88276250Y-42377000D01*
X87327000Y-42377000D01*
X87327000Y-42397000D01*
X87073000Y-42397000D01*
X87073000Y-42377000D01*
X87053000Y-42377000D01*
X87053000Y-42123000D01*
X87073000Y-42123000D01*
X87073000Y-40807000D01*
X87327000Y-40807000D01*
X87327000Y-42123000D01*
X88276250Y-42123000D01*
X88435000Y-41964250D01*
X88438072Y-41850000D01*
X88425812Y-41725518D01*
X88407958Y-41666661D01*
X88451185Y-41631185D01*
X88530537Y-41534494D01*
X88589502Y-41424180D01*
X88625812Y-41304482D01*
X88638072Y-41180000D01*
X89561928Y-41180000D01*
X89574188Y-41304482D01*
X89610498Y-41424180D01*
X89669463Y-41534494D01*
X89748815Y-41631185D01*
X89845506Y-41710537D01*
X89955820Y-41769502D01*
X90075518Y-41805812D01*
X90200000Y-41818072D01*
X90714250Y-41815000D01*
X90873000Y-41656250D01*
X90873000Y-40807000D01*
X89723750Y-40807000D01*
X89565000Y-40965750D01*
X89561928Y-41180000D01*
X88638072Y-41180000D01*
X88635000Y-40965750D01*
X88476250Y-40807000D01*
X87327000Y-40807000D01*
X87073000Y-40807000D01*
X85923750Y-40807000D01*
X85765000Y-40965750D01*
X85761928Y-41180000D01*
X85774188Y-41304482D01*
X85810498Y-41424180D01*
X85869463Y-41534494D01*
X85948815Y-41631185D01*
X85992042Y-41666661D01*
X85974188Y-41725518D01*
X85961928Y-41850000D01*
X85965000Y-41964250D01*
X86123748Y-42122998D01*
X86067800Y-42122998D01*
X84124802Y-40180000D01*
X85761928Y-40180000D01*
X85765000Y-40394250D01*
X85923750Y-40553000D01*
X87073000Y-40553000D01*
X87073000Y-39703750D01*
X87327000Y-39703750D01*
X87327000Y-40553000D01*
X88476250Y-40553000D01*
X88635000Y-40394250D01*
X88638072Y-40180000D01*
X89561928Y-40180000D01*
X89565000Y-40394250D01*
X89723750Y-40553000D01*
X90873000Y-40553000D01*
X90873000Y-39703750D01*
X90714250Y-39545000D01*
X90200000Y-39541928D01*
X90075518Y-39554188D01*
X89955820Y-39590498D01*
X89845506Y-39649463D01*
X89748815Y-39728815D01*
X89669463Y-39825506D01*
X89610498Y-39935820D01*
X89574188Y-40055518D01*
X89561928Y-40180000D01*
X88638072Y-40180000D01*
X88625812Y-40055518D01*
X88589502Y-39935820D01*
X88530537Y-39825506D01*
X88451185Y-39728815D01*
X88354494Y-39649463D01*
X88244180Y-39590498D01*
X88124482Y-39554188D01*
X88000000Y-39541928D01*
X87485750Y-39545000D01*
X87327000Y-39703750D01*
X87073000Y-39703750D01*
X86914250Y-39545000D01*
X86400000Y-39541928D01*
X86275518Y-39554188D01*
X86155820Y-39590498D01*
X86045506Y-39649463D01*
X85948815Y-39728815D01*
X85869463Y-39825506D01*
X85810498Y-39935820D01*
X85774188Y-40055518D01*
X85761928Y-40180000D01*
X84124802Y-40180000D01*
X83433804Y-39489003D01*
X83410001Y-39459999D01*
X83294276Y-39365026D01*
X83162247Y-39294454D01*
X83018986Y-39250997D01*
X82907333Y-39240000D01*
X82907322Y-39240000D01*
X82870000Y-39236324D01*
X82832678Y-39240000D01*
X75168673Y-39240000D01*
X75158447Y-39206291D01*
X75076958Y-39053836D01*
X74967292Y-38920208D01*
X74833664Y-38810542D01*
X74681209Y-38729053D01*
X74515785Y-38678872D01*
X74343750Y-38661928D01*
X73856250Y-38661928D01*
X73684215Y-38678872D01*
X73518791Y-38729053D01*
X73366336Y-38810542D01*
X73232708Y-38920208D01*
X73162500Y-39005756D01*
X73092292Y-38920208D01*
X72958664Y-38810542D01*
X72806209Y-38729053D01*
X72640785Y-38678872D01*
X72468750Y-38661928D01*
X71981250Y-38661928D01*
X71809215Y-38678872D01*
X71643791Y-38729053D01*
X71491336Y-38810542D01*
X71357708Y-38920208D01*
X71248042Y-39053836D01*
X71166553Y-39206291D01*
X71116372Y-39371715D01*
X71099428Y-39543750D01*
X71099428Y-40050771D01*
X70910199Y-40240000D01*
X65568673Y-40240000D01*
X65558447Y-40206291D01*
X65476958Y-40053836D01*
X65367292Y-39920208D01*
X65233664Y-39810542D01*
X65081209Y-39729053D01*
X64915785Y-39678872D01*
X64743750Y-39661928D01*
X64256250Y-39661928D01*
X64084215Y-39678872D01*
X63918791Y-39729053D01*
X63766336Y-39810542D01*
X63632708Y-39920208D01*
X63562500Y-40005756D01*
X63492292Y-39920208D01*
X63358664Y-39810542D01*
X63206209Y-39729053D01*
X63040785Y-39678872D01*
X62868750Y-39661928D01*
X62381250Y-39661928D01*
X62209215Y-39678872D01*
X62043791Y-39729053D01*
X61891336Y-39810542D01*
X61757708Y-39920208D01*
X61648042Y-40053836D01*
X61566553Y-40206291D01*
X61516372Y-40371715D01*
X61499428Y-40543750D01*
X61499428Y-41456250D01*
X61516372Y-41628285D01*
X61566553Y-41793709D01*
X61648042Y-41946164D01*
X61724550Y-42039389D01*
X61601939Y-42015000D01*
X61398061Y-42015000D01*
X61198102Y-42054774D01*
X61009744Y-42132795D01*
X60840226Y-42246063D01*
X60696063Y-42390226D01*
X60582795Y-42559744D01*
X60504774Y-42748102D01*
X60465000Y-42948061D01*
X60465000Y-43151939D01*
X60504774Y-43351898D01*
X60582795Y-43540256D01*
X60696063Y-43709774D01*
X60768728Y-43782439D01*
X60794454Y-43867247D01*
X60865026Y-43999276D01*
X60960000Y-44115001D01*
X60988998Y-44138799D01*
X61499428Y-44649229D01*
X61499428Y-45156250D01*
X61516372Y-45328285D01*
X61566553Y-45493709D01*
X61648042Y-45646164D01*
X61757708Y-45779792D01*
X61891336Y-45889458D01*
X62043791Y-45970947D01*
X62209215Y-46021128D01*
X62381250Y-46038072D01*
X62868750Y-46038072D01*
X63040785Y-46021128D01*
X63206209Y-45970947D01*
X63358664Y-45889458D01*
X63492292Y-45779792D01*
X63562500Y-45694244D01*
X63632708Y-45779792D01*
X63766336Y-45889458D01*
X63918791Y-45970947D01*
X64084215Y-46021128D01*
X64256250Y-46038072D01*
X64743750Y-46038072D01*
X64915785Y-46021128D01*
X65081209Y-45970947D01*
X65233664Y-45889458D01*
X65367292Y-45779792D01*
X65465603Y-45660000D01*
X71156327Y-45660000D01*
X71166553Y-45693709D01*
X71248042Y-45846164D01*
X71357708Y-45979792D01*
X71491336Y-46089458D01*
X71643791Y-46170947D01*
X71809215Y-46221128D01*
X71981250Y-46238072D01*
X72468750Y-46238072D01*
X72640785Y-46221128D01*
X72806209Y-46170947D01*
X72958664Y-46089458D01*
X73092292Y-45979792D01*
X73097508Y-45973436D01*
X73161315Y-46051185D01*
X73258006Y-46130537D01*
X73368320Y-46189502D01*
X73488018Y-46225812D01*
X73612500Y-46238072D01*
X73814250Y-46235000D01*
X73973000Y-46076250D01*
X73973000Y-45027000D01*
X74227000Y-45027000D01*
X74227000Y-46076250D01*
X74385750Y-46235000D01*
X74587500Y-46238072D01*
X74711982Y-46225812D01*
X74831680Y-46189502D01*
X74941994Y-46130537D01*
X75038685Y-46051185D01*
X75118037Y-45954494D01*
X75177002Y-45844180D01*
X75213312Y-45724482D01*
X75225572Y-45600000D01*
X75222500Y-45185750D01*
X75063750Y-45027000D01*
X74227000Y-45027000D01*
X73973000Y-45027000D01*
X73953000Y-45027000D01*
X73953000Y-44773000D01*
X73973000Y-44773000D01*
X73973000Y-43723750D01*
X74227000Y-43723750D01*
X74227000Y-44773000D01*
X75063750Y-44773000D01*
X75222500Y-44614250D01*
X75225572Y-44200000D01*
X75213312Y-44075518D01*
X75177002Y-43955820D01*
X75118037Y-43845506D01*
X75038685Y-43748815D01*
X74941994Y-43669463D01*
X74831680Y-43610498D01*
X74711982Y-43574188D01*
X74587500Y-43561928D01*
X74385750Y-43565000D01*
X74227000Y-43723750D01*
X73973000Y-43723750D01*
X73814250Y-43565000D01*
X73612500Y-43561928D01*
X73488018Y-43574188D01*
X73368320Y-43610498D01*
X73258006Y-43669463D01*
X73161315Y-43748815D01*
X73097508Y-43826564D01*
X73092292Y-43820208D01*
X72958664Y-43710542D01*
X72806209Y-43629053D01*
X72640785Y-43578872D01*
X72468750Y-43561928D01*
X71981250Y-43561928D01*
X71809215Y-43578872D01*
X71643791Y-43629053D01*
X71491336Y-43710542D01*
X71357708Y-43820208D01*
X71248042Y-43953836D01*
X71166553Y-44106291D01*
X71156327Y-44140000D01*
X65615353Y-44140000D01*
X65608628Y-44071715D01*
X65558447Y-43906291D01*
X65476958Y-43753836D01*
X65367292Y-43620208D01*
X65233664Y-43510542D01*
X65081209Y-43429053D01*
X64915785Y-43378872D01*
X64743750Y-43361928D01*
X64256250Y-43361928D01*
X64084215Y-43378872D01*
X63918791Y-43429053D01*
X63766336Y-43510542D01*
X63632708Y-43620208D01*
X63562500Y-43705756D01*
X63492292Y-43620208D01*
X63385000Y-43532155D01*
X63385000Y-42167845D01*
X63492292Y-42079792D01*
X63562500Y-41994244D01*
X63632708Y-42079792D01*
X63766336Y-42189458D01*
X63918791Y-42270947D01*
X64084215Y-42321128D01*
X64256250Y-42338072D01*
X64743750Y-42338072D01*
X64915785Y-42321128D01*
X65081209Y-42270947D01*
X65233664Y-42189458D01*
X65367292Y-42079792D01*
X65476958Y-41946164D01*
X65558447Y-41793709D01*
X65568673Y-41760000D01*
X71187678Y-41760000D01*
X71225000Y-41763676D01*
X71262322Y-41760000D01*
X71262333Y-41760000D01*
X71373986Y-41749003D01*
X71517247Y-41705546D01*
X71649276Y-41634974D01*
X71765001Y-41540001D01*
X71788804Y-41510998D01*
X71963479Y-41336322D01*
X71981250Y-41338072D01*
X72468750Y-41338072D01*
X72640785Y-41321128D01*
X72806209Y-41270947D01*
X72958664Y-41189458D01*
X73092292Y-41079792D01*
X73162500Y-40994244D01*
X73232708Y-41079792D01*
X73366336Y-41189458D01*
X73518791Y-41270947D01*
X73684215Y-41321128D01*
X73856250Y-41338072D01*
X74343750Y-41338072D01*
X74361521Y-41336322D01*
X76940001Y-43914803D01*
X76940000Y-47985198D01*
X75985199Y-48940000D01*
X65668673Y-48940000D01*
X65658447Y-48906291D01*
X65576958Y-48753836D01*
X65467292Y-48620208D01*
X65333664Y-48510542D01*
X65181209Y-48429053D01*
X65015785Y-48378872D01*
X64843750Y-48361928D01*
X64356250Y-48361928D01*
X64338480Y-48363678D01*
X62313808Y-46339007D01*
X62313799Y-46338996D01*
X59658803Y-43684002D01*
X59635000Y-43654998D01*
X59519275Y-43560025D01*
X59387246Y-43489453D01*
X59243985Y-43445996D01*
X59132332Y-43434999D01*
X59132321Y-43434999D01*
X59094999Y-43431323D01*
X59057677Y-43434999D01*
X58407716Y-43434999D01*
X58421128Y-43390785D01*
X58438072Y-43218750D01*
X58438072Y-42731250D01*
X58421128Y-42559215D01*
X58370947Y-42393791D01*
X58289458Y-42241336D01*
X58179792Y-42107708D01*
X58173436Y-42102492D01*
X58251185Y-42038685D01*
X58330537Y-41941994D01*
X58389502Y-41831680D01*
X58425812Y-41711982D01*
X58438072Y-41587500D01*
X58435000Y-41385750D01*
X58276250Y-41227000D01*
X57227000Y-41227000D01*
X57227000Y-41247000D01*
X56973000Y-41247000D01*
X56973000Y-41227000D01*
X55923750Y-41227000D01*
X55765000Y-41385750D01*
X55761928Y-41587500D01*
X55774188Y-41711982D01*
X55810498Y-41831680D01*
X55869463Y-41941994D01*
X55948815Y-42038685D01*
X56026564Y-42102492D01*
X56020208Y-42107708D01*
X55910542Y-42241336D01*
X55829053Y-42393791D01*
X55778872Y-42559215D01*
X55761928Y-42731250D01*
X55761928Y-43218750D01*
X55763678Y-43236521D01*
X55534001Y-43466197D01*
X55504998Y-43490000D01*
X55450662Y-43556209D01*
X55410025Y-43605725D01*
X55386993Y-43648815D01*
X55339453Y-43737755D01*
X55295996Y-43881016D01*
X55284999Y-43992669D01*
X55284999Y-43992679D01*
X55281323Y-44030001D01*
X53087659Y-44030001D01*
X53087659Y-40612500D01*
X55761928Y-40612500D01*
X55765000Y-40814250D01*
X55923750Y-40973000D01*
X56973000Y-40973000D01*
X56973000Y-40136250D01*
X57227000Y-40136250D01*
X57227000Y-40973000D01*
X58276250Y-40973000D01*
X58435000Y-40814250D01*
X58438072Y-40612500D01*
X58425812Y-40488018D01*
X58389502Y-40368320D01*
X58330537Y-40258006D01*
X58251185Y-40161315D01*
X58154494Y-40081963D01*
X58044180Y-40022998D01*
X57924482Y-39986688D01*
X57800000Y-39974428D01*
X57385750Y-39977500D01*
X57227000Y-40136250D01*
X56973000Y-40136250D01*
X56814250Y-39977500D01*
X56400000Y-39974428D01*
X56275518Y-39986688D01*
X56155820Y-40022998D01*
X56045506Y-40081963D01*
X55948815Y-40161315D01*
X55869463Y-40258006D01*
X55810498Y-40368320D01*
X55774188Y-40488018D01*
X55761928Y-40612500D01*
X53087659Y-40612500D01*
X53087659Y-38802245D01*
X54516980Y-37637103D01*
X56261482Y-36407133D01*
X58087510Y-35301865D01*
X59986223Y-34326648D01*
X61948300Y-33486272D01*
X63964259Y-32784796D01*
X66024198Y-32225666D01*
X68118157Y-31811586D01*
X70235883Y-31544583D01*
X72367084Y-31425956D01*
X74501348Y-31456281D01*
X74501348Y-31456281D01*
G37*
X74501348Y-31456281D02*
X76628325Y-31635415D01*
X78737607Y-31962480D01*
X80818950Y-32435886D01*
X82862192Y-33053325D01*
X84857381Y-33811788D01*
X86794815Y-34707586D01*
X87918791Y-35325856D01*
X87639245Y-35359191D01*
X87327414Y-35460511D01*
X87041201Y-35620469D01*
X86791509Y-35832974D01*
X86587848Y-36089930D01*
X86437976Y-36381551D01*
X86347600Y-36696728D01*
X86320164Y-37023456D01*
X86356712Y-37349292D01*
X86455853Y-37661822D01*
X86613809Y-37949145D01*
X86824566Y-38200314D01*
X87080094Y-38405764D01*
X87370661Y-38557669D01*
X87685199Y-38650243D01*
X88011729Y-38679959D01*
X88337811Y-38645686D01*
X88651026Y-38548730D01*
X88939444Y-38392783D01*
X89192079Y-38183785D01*
X89399308Y-37929698D01*
X89553237Y-37640198D01*
X89648005Y-37326314D01*
X89680000Y-37000000D01*
X89679345Y-36953092D01*
X89638251Y-36627799D01*
X89534756Y-36316682D01*
X89517243Y-36285854D01*
X90458928Y-36893056D01*
X92174709Y-38177281D01*
X92340000Y-38312618D01*
X92340000Y-39843210D01*
X92330537Y-39825506D01*
X92251185Y-39728815D01*
X92154494Y-39649463D01*
X92044180Y-39590498D01*
X91924482Y-39554188D01*
X91800000Y-39541928D01*
X91285750Y-39545000D01*
X91127000Y-39703750D01*
X91127000Y-40553000D01*
X91147000Y-40553000D01*
X91147000Y-40807000D01*
X91127000Y-40807000D01*
X91127000Y-41656250D01*
X91285750Y-41815000D01*
X91800000Y-41818072D01*
X91924482Y-41805812D01*
X92044180Y-41769502D01*
X92154494Y-41710537D01*
X92251185Y-41631185D01*
X92330537Y-41534494D01*
X92340000Y-41516790D01*
X92340001Y-48483211D01*
X92330537Y-48465506D01*
X92251185Y-48368815D01*
X92154494Y-48289463D01*
X92044180Y-48230498D01*
X91924482Y-48194188D01*
X91800000Y-48181928D01*
X91285750Y-48185000D01*
X91127000Y-48343750D01*
X91127000Y-49193000D01*
X91147000Y-49193000D01*
X91147000Y-49447000D01*
X91127000Y-49447000D01*
X91127000Y-50296250D01*
X91285750Y-50455000D01*
X91800000Y-50458072D01*
X91924482Y-50445812D01*
X92044180Y-50409502D01*
X92154494Y-50350537D01*
X92251185Y-50271185D01*
X92330537Y-50174494D01*
X92340001Y-50156789D01*
X92340001Y-55092097D01*
X85045622Y-58739288D01*
X83688330Y-57881826D01*
X83688314Y-57881815D01*
X83654707Y-57862582D01*
X83638342Y-57853216D01*
X83638332Y-57853212D01*
X82024987Y-57021131D01*
X82024960Y-57021116D01*
X81986754Y-57003478D01*
X81972684Y-56996981D01*
X81972672Y-56996977D01*
X80292940Y-56308670D01*
X80292921Y-56308661D01*
X80258922Y-56296433D01*
X80238741Y-56289174D01*
X80238720Y-56289168D01*
X78505399Y-55749883D01*
X78505378Y-55749876D01*
X78477542Y-55742531D01*
X78449706Y-55735185D01*
X78449684Y-55735181D01*
X76675958Y-55349017D01*
X76675936Y-55349011D01*
X76649817Y-55344508D01*
X76619196Y-55339228D01*
X76619170Y-55339226D01*
X74818540Y-55109122D01*
X74818518Y-55109118D01*
X74788577Y-55106614D01*
X74761140Y-55104318D01*
X74761118Y-55104318D01*
X72947283Y-55032024D01*
X72947260Y-55032022D01*
X72889682Y-55032241D01*
X71076403Y-55118312D01*
X71026226Y-55122894D01*
X71019064Y-55123548D01*
X69220185Y-55367328D01*
X69163521Y-55377541D01*
X69163499Y-55377547D01*
X67392762Y-55777171D01*
X67392735Y-55777176D01*
X67337177Y-55792290D01*
X65607960Y-56344739D01*
X65553930Y-56364637D01*
X63879442Y-57065694D01*
X63827352Y-57090225D01*
X63827344Y-57090230D01*
X62220346Y-57934551D01*
X62220336Y-57934556D01*
X62202024Y-57945222D01*
X62170583Y-57963534D01*
X62170567Y-57963545D01*
X60949378Y-58748064D01*
X53087659Y-55079652D01*
X53087659Y-54023456D01*
X55320164Y-54023456D01*
X55356712Y-54349292D01*
X55455853Y-54661822D01*
X55613809Y-54949145D01*
X55824566Y-55200314D01*
X56080094Y-55405764D01*
X56370661Y-55557669D01*
X56685199Y-55650243D01*
X57011729Y-55679959D01*
X57337811Y-55645686D01*
X57651026Y-55548730D01*
X57939444Y-55392783D01*
X58192079Y-55183785D01*
X58399308Y-54929698D01*
X58553237Y-54640198D01*
X58648005Y-54326314D01*
X58680000Y-54000000D01*
X58679345Y-53953092D01*
X58638251Y-53627799D01*
X58534756Y-53316682D01*
X58372803Y-53031594D01*
X58158561Y-52783391D01*
X57900189Y-52581529D01*
X57607529Y-52433696D01*
X57291729Y-52345523D01*
X56964817Y-52320368D01*
X56639245Y-52359191D01*
X56327414Y-52460511D01*
X56041201Y-52620469D01*
X55791509Y-52832974D01*
X55587848Y-53089930D01*
X55437976Y-53381551D01*
X55347600Y-53696728D01*
X55320164Y-54023456D01*
X53087659Y-54023456D01*
X53087659Y-44030001D01*
X55281323Y-44030001D01*
X55284999Y-44067324D01*
X55285000Y-47732667D01*
X55281323Y-47769999D01*
X55285000Y-47807332D01*
X55295997Y-47918985D01*
X55297822Y-47925000D01*
X55339453Y-48062245D01*
X55410025Y-48194275D01*
X55466486Y-48263072D01*
X55504999Y-48310000D01*
X55533997Y-48333798D01*
X55798096Y-48597897D01*
X55780498Y-48630820D01*
X55744188Y-48750518D01*
X55731928Y-48875000D01*
X55731928Y-49525000D01*
X55744188Y-49649482D01*
X55780498Y-49769180D01*
X55839463Y-49879494D01*
X55918815Y-49976185D01*
X56015506Y-50055537D01*
X56125820Y-50114502D01*
X56245518Y-50150812D01*
X56370000Y-50163072D01*
X57430000Y-50163072D01*
X57554482Y-50150812D01*
X57575385Y-50144471D01*
X57610025Y-50209277D01*
X57635240Y-50240001D01*
X57704998Y-50325002D01*
X57734002Y-50348805D01*
X59896198Y-52511002D01*
X59919997Y-52540001D01*
X59948995Y-52563799D01*
X60035722Y-52634974D01*
X60167751Y-52705546D01*
X60311012Y-52749003D01*
X60459998Y-52763677D01*
X60497331Y-52760000D01*
X71056327Y-52760000D01*
X71066553Y-52793709D01*
X71148042Y-52946164D01*
X71257708Y-53079792D01*
X71391336Y-53189458D01*
X71543791Y-53270947D01*
X71709215Y-53321128D01*
X71881250Y-53338072D01*
X71983489Y-53338072D01*
X72046263Y-53455513D01*
X72141237Y-53571238D01*
X72170235Y-53595036D01*
X72886201Y-54311002D01*
X72909999Y-54340001D01*
X72938997Y-54363799D01*
X73025723Y-54434974D01*
X73157753Y-54505546D01*
X73301014Y-54549003D01*
X73412667Y-54560000D01*
X73412676Y-54560000D01*
X73449999Y-54563676D01*
X73487322Y-54560000D01*
X85912678Y-54560000D01*
X85950000Y-54563676D01*
X85987322Y-54560000D01*
X85987333Y-54560000D01*
X86098986Y-54549003D01*
X86242247Y-54505546D01*
X86374276Y-54434974D01*
X86490001Y-54340001D01*
X86513804Y-54310997D01*
X90361004Y-50463798D01*
X90369213Y-50457061D01*
X90714250Y-50455000D01*
X90873000Y-50296250D01*
X90873000Y-49447000D01*
X90853000Y-49447000D01*
X90853000Y-49193000D01*
X90873000Y-49193000D01*
X90873000Y-48343750D01*
X90714250Y-48185000D01*
X90610000Y-48184377D01*
X90610000Y-46103711D01*
X90653937Y-46059774D01*
X90767205Y-45890256D01*
X90845226Y-45701898D01*
X90885000Y-45501939D01*
X90885000Y-45298061D01*
X90845226Y-45098102D01*
X90767205Y-44909744D01*
X90653937Y-44740226D01*
X90509774Y-44596063D01*
X90340256Y-44482795D01*
X90151898Y-44404774D01*
X89951939Y-44365000D01*
X89802350Y-44365000D01*
X89799003Y-44331014D01*
X89755546Y-44187753D01*
X89684974Y-44055724D01*
X89613799Y-43968997D01*
X89590001Y-43939999D01*
X89561004Y-43916202D01*
X88613804Y-42969002D01*
X88590001Y-42939999D01*
X88474276Y-42845026D01*
X88414160Y-42812893D01*
X88425812Y-42774482D01*
X88438072Y-42650000D01*
X88435000Y-42535750D01*
X88276250Y-42377000D01*
X87327000Y-42377000D01*
X87327000Y-42397000D01*
X87073000Y-42397000D01*
X87073000Y-42377000D01*
X87053000Y-42377000D01*
X87053000Y-42123000D01*
X87073000Y-42123000D01*
X87073000Y-40807000D01*
X87327000Y-40807000D01*
X87327000Y-42123000D01*
X88276250Y-42123000D01*
X88435000Y-41964250D01*
X88438072Y-41850000D01*
X88425812Y-41725518D01*
X88407958Y-41666661D01*
X88451185Y-41631185D01*
X88530537Y-41534494D01*
X88589502Y-41424180D01*
X88625812Y-41304482D01*
X88638072Y-41180000D01*
X89561928Y-41180000D01*
X89574188Y-41304482D01*
X89610498Y-41424180D01*
X89669463Y-41534494D01*
X89748815Y-41631185D01*
X89845506Y-41710537D01*
X89955820Y-41769502D01*
X90075518Y-41805812D01*
X90200000Y-41818072D01*
X90714250Y-41815000D01*
X90873000Y-41656250D01*
X90873000Y-40807000D01*
X89723750Y-40807000D01*
X89565000Y-40965750D01*
X89561928Y-41180000D01*
X88638072Y-41180000D01*
X88635000Y-40965750D01*
X88476250Y-40807000D01*
X87327000Y-40807000D01*
X87073000Y-40807000D01*
X85923750Y-40807000D01*
X85765000Y-40965750D01*
X85761928Y-41180000D01*
X85774188Y-41304482D01*
X85810498Y-41424180D01*
X85869463Y-41534494D01*
X85948815Y-41631185D01*
X85992042Y-41666661D01*
X85974188Y-41725518D01*
X85961928Y-41850000D01*
X85965000Y-41964250D01*
X86123748Y-42122998D01*
X86067800Y-42122998D01*
X84124802Y-40180000D01*
X85761928Y-40180000D01*
X85765000Y-40394250D01*
X85923750Y-40553000D01*
X87073000Y-40553000D01*
X87073000Y-39703750D01*
X87327000Y-39703750D01*
X87327000Y-40553000D01*
X88476250Y-40553000D01*
X88635000Y-40394250D01*
X88638072Y-40180000D01*
X89561928Y-40180000D01*
X89565000Y-40394250D01*
X89723750Y-40553000D01*
X90873000Y-40553000D01*
X90873000Y-39703750D01*
X90714250Y-39545000D01*
X90200000Y-39541928D01*
X90075518Y-39554188D01*
X89955820Y-39590498D01*
X89845506Y-39649463D01*
X89748815Y-39728815D01*
X89669463Y-39825506D01*
X89610498Y-39935820D01*
X89574188Y-40055518D01*
X89561928Y-40180000D01*
X88638072Y-40180000D01*
X88625812Y-40055518D01*
X88589502Y-39935820D01*
X88530537Y-39825506D01*
X88451185Y-39728815D01*
X88354494Y-39649463D01*
X88244180Y-39590498D01*
X88124482Y-39554188D01*
X88000000Y-39541928D01*
X87485750Y-39545000D01*
X87327000Y-39703750D01*
X87073000Y-39703750D01*
X86914250Y-39545000D01*
X86400000Y-39541928D01*
X86275518Y-39554188D01*
X86155820Y-39590498D01*
X86045506Y-39649463D01*
X85948815Y-39728815D01*
X85869463Y-39825506D01*
X85810498Y-39935820D01*
X85774188Y-40055518D01*
X85761928Y-40180000D01*
X84124802Y-40180000D01*
X83433804Y-39489003D01*
X83410001Y-39459999D01*
X83294276Y-39365026D01*
X83162247Y-39294454D01*
X83018986Y-39250997D01*
X82907333Y-39240000D01*
X82907322Y-39240000D01*
X82870000Y-39236324D01*
X82832678Y-39240000D01*
X75168673Y-39240000D01*
X75158447Y-39206291D01*
X75076958Y-39053836D01*
X74967292Y-38920208D01*
X74833664Y-38810542D01*
X74681209Y-38729053D01*
X74515785Y-38678872D01*
X74343750Y-38661928D01*
X73856250Y-38661928D01*
X73684215Y-38678872D01*
X73518791Y-38729053D01*
X73366336Y-38810542D01*
X73232708Y-38920208D01*
X73162500Y-39005756D01*
X73092292Y-38920208D01*
X72958664Y-38810542D01*
X72806209Y-38729053D01*
X72640785Y-38678872D01*
X72468750Y-38661928D01*
X71981250Y-38661928D01*
X71809215Y-38678872D01*
X71643791Y-38729053D01*
X71491336Y-38810542D01*
X71357708Y-38920208D01*
X71248042Y-39053836D01*
X71166553Y-39206291D01*
X71116372Y-39371715D01*
X71099428Y-39543750D01*
X71099428Y-40050771D01*
X70910199Y-40240000D01*
X65568673Y-40240000D01*
X65558447Y-40206291D01*
X65476958Y-40053836D01*
X65367292Y-39920208D01*
X65233664Y-39810542D01*
X65081209Y-39729053D01*
X64915785Y-39678872D01*
X64743750Y-39661928D01*
X64256250Y-39661928D01*
X64084215Y-39678872D01*
X63918791Y-39729053D01*
X63766336Y-39810542D01*
X63632708Y-39920208D01*
X63562500Y-40005756D01*
X63492292Y-39920208D01*
X63358664Y-39810542D01*
X63206209Y-39729053D01*
X63040785Y-39678872D01*
X62868750Y-39661928D01*
X62381250Y-39661928D01*
X62209215Y-39678872D01*
X62043791Y-39729053D01*
X61891336Y-39810542D01*
X61757708Y-39920208D01*
X61648042Y-40053836D01*
X61566553Y-40206291D01*
X61516372Y-40371715D01*
X61499428Y-40543750D01*
X61499428Y-41456250D01*
X61516372Y-41628285D01*
X61566553Y-41793709D01*
X61648042Y-41946164D01*
X61724550Y-42039389D01*
X61601939Y-42015000D01*
X61398061Y-42015000D01*
X61198102Y-42054774D01*
X61009744Y-42132795D01*
X60840226Y-42246063D01*
X60696063Y-42390226D01*
X60582795Y-42559744D01*
X60504774Y-42748102D01*
X60465000Y-42948061D01*
X60465000Y-43151939D01*
X60504774Y-43351898D01*
X60582795Y-43540256D01*
X60696063Y-43709774D01*
X60768728Y-43782439D01*
X60794454Y-43867247D01*
X60865026Y-43999276D01*
X60960000Y-44115001D01*
X60988998Y-44138799D01*
X61499428Y-44649229D01*
X61499428Y-45156250D01*
X61516372Y-45328285D01*
X61566553Y-45493709D01*
X61648042Y-45646164D01*
X61757708Y-45779792D01*
X61891336Y-45889458D01*
X62043791Y-45970947D01*
X62209215Y-46021128D01*
X62381250Y-46038072D01*
X62868750Y-46038072D01*
X63040785Y-46021128D01*
X63206209Y-45970947D01*
X63358664Y-45889458D01*
X63492292Y-45779792D01*
X63562500Y-45694244D01*
X63632708Y-45779792D01*
X63766336Y-45889458D01*
X63918791Y-45970947D01*
X64084215Y-46021128D01*
X64256250Y-46038072D01*
X64743750Y-46038072D01*
X64915785Y-46021128D01*
X65081209Y-45970947D01*
X65233664Y-45889458D01*
X65367292Y-45779792D01*
X65465603Y-45660000D01*
X71156327Y-45660000D01*
X71166553Y-45693709D01*
X71248042Y-45846164D01*
X71357708Y-45979792D01*
X71491336Y-46089458D01*
X71643791Y-46170947D01*
X71809215Y-46221128D01*
X71981250Y-46238072D01*
X72468750Y-46238072D01*
X72640785Y-46221128D01*
X72806209Y-46170947D01*
X72958664Y-46089458D01*
X73092292Y-45979792D01*
X73097508Y-45973436D01*
X73161315Y-46051185D01*
X73258006Y-46130537D01*
X73368320Y-46189502D01*
X73488018Y-46225812D01*
X73612500Y-46238072D01*
X73814250Y-46235000D01*
X73973000Y-46076250D01*
X73973000Y-45027000D01*
X74227000Y-45027000D01*
X74227000Y-46076250D01*
X74385750Y-46235000D01*
X74587500Y-46238072D01*
X74711982Y-46225812D01*
X74831680Y-46189502D01*
X74941994Y-46130537D01*
X75038685Y-46051185D01*
X75118037Y-45954494D01*
X75177002Y-45844180D01*
X75213312Y-45724482D01*
X75225572Y-45600000D01*
X75222500Y-45185750D01*
X75063750Y-45027000D01*
X74227000Y-45027000D01*
X73973000Y-45027000D01*
X73953000Y-45027000D01*
X73953000Y-44773000D01*
X73973000Y-44773000D01*
X73973000Y-43723750D01*
X74227000Y-43723750D01*
X74227000Y-44773000D01*
X75063750Y-44773000D01*
X75222500Y-44614250D01*
X75225572Y-44200000D01*
X75213312Y-44075518D01*
X75177002Y-43955820D01*
X75118037Y-43845506D01*
X75038685Y-43748815D01*
X74941994Y-43669463D01*
X74831680Y-43610498D01*
X74711982Y-43574188D01*
X74587500Y-43561928D01*
X74385750Y-43565000D01*
X74227000Y-43723750D01*
X73973000Y-43723750D01*
X73814250Y-43565000D01*
X73612500Y-43561928D01*
X73488018Y-43574188D01*
X73368320Y-43610498D01*
X73258006Y-43669463D01*
X73161315Y-43748815D01*
X73097508Y-43826564D01*
X73092292Y-43820208D01*
X72958664Y-43710542D01*
X72806209Y-43629053D01*
X72640785Y-43578872D01*
X72468750Y-43561928D01*
X71981250Y-43561928D01*
X71809215Y-43578872D01*
X71643791Y-43629053D01*
X71491336Y-43710542D01*
X71357708Y-43820208D01*
X71248042Y-43953836D01*
X71166553Y-44106291D01*
X71156327Y-44140000D01*
X65615353Y-44140000D01*
X65608628Y-44071715D01*
X65558447Y-43906291D01*
X65476958Y-43753836D01*
X65367292Y-43620208D01*
X65233664Y-43510542D01*
X65081209Y-43429053D01*
X64915785Y-43378872D01*
X64743750Y-43361928D01*
X64256250Y-43361928D01*
X64084215Y-43378872D01*
X63918791Y-43429053D01*
X63766336Y-43510542D01*
X63632708Y-43620208D01*
X63562500Y-43705756D01*
X63492292Y-43620208D01*
X63385000Y-43532155D01*
X63385000Y-42167845D01*
X63492292Y-42079792D01*
X63562500Y-41994244D01*
X63632708Y-42079792D01*
X63766336Y-42189458D01*
X63918791Y-42270947D01*
X64084215Y-42321128D01*
X64256250Y-42338072D01*
X64743750Y-42338072D01*
X64915785Y-42321128D01*
X65081209Y-42270947D01*
X65233664Y-42189458D01*
X65367292Y-42079792D01*
X65476958Y-41946164D01*
X65558447Y-41793709D01*
X65568673Y-41760000D01*
X71187678Y-41760000D01*
X71225000Y-41763676D01*
X71262322Y-41760000D01*
X71262333Y-41760000D01*
X71373986Y-41749003D01*
X71517247Y-41705546D01*
X71649276Y-41634974D01*
X71765001Y-41540001D01*
X71788804Y-41510998D01*
X71963479Y-41336322D01*
X71981250Y-41338072D01*
X72468750Y-41338072D01*
X72640785Y-41321128D01*
X72806209Y-41270947D01*
X72958664Y-41189458D01*
X73092292Y-41079792D01*
X73162500Y-40994244D01*
X73232708Y-41079792D01*
X73366336Y-41189458D01*
X73518791Y-41270947D01*
X73684215Y-41321128D01*
X73856250Y-41338072D01*
X74343750Y-41338072D01*
X74361521Y-41336322D01*
X76940001Y-43914803D01*
X76940000Y-47985198D01*
X75985199Y-48940000D01*
X65668673Y-48940000D01*
X65658447Y-48906291D01*
X65576958Y-48753836D01*
X65467292Y-48620208D01*
X65333664Y-48510542D01*
X65181209Y-48429053D01*
X65015785Y-48378872D01*
X64843750Y-48361928D01*
X64356250Y-48361928D01*
X64338480Y-48363678D01*
X62313808Y-46339007D01*
X62313799Y-46338996D01*
X59658803Y-43684002D01*
X59635000Y-43654998D01*
X59519275Y-43560025D01*
X59387246Y-43489453D01*
X59243985Y-43445996D01*
X59132332Y-43434999D01*
X59132321Y-43434999D01*
X59094999Y-43431323D01*
X59057677Y-43434999D01*
X58407716Y-43434999D01*
X58421128Y-43390785D01*
X58438072Y-43218750D01*
X58438072Y-42731250D01*
X58421128Y-42559215D01*
X58370947Y-42393791D01*
X58289458Y-42241336D01*
X58179792Y-42107708D01*
X58173436Y-42102492D01*
X58251185Y-42038685D01*
X58330537Y-41941994D01*
X58389502Y-41831680D01*
X58425812Y-41711982D01*
X58438072Y-41587500D01*
X58435000Y-41385750D01*
X58276250Y-41227000D01*
X57227000Y-41227000D01*
X57227000Y-41247000D01*
X56973000Y-41247000D01*
X56973000Y-41227000D01*
X55923750Y-41227000D01*
X55765000Y-41385750D01*
X55761928Y-41587500D01*
X55774188Y-41711982D01*
X55810498Y-41831680D01*
X55869463Y-41941994D01*
X55948815Y-42038685D01*
X56026564Y-42102492D01*
X56020208Y-42107708D01*
X55910542Y-42241336D01*
X55829053Y-42393791D01*
X55778872Y-42559215D01*
X55761928Y-42731250D01*
X55761928Y-43218750D01*
X55763678Y-43236521D01*
X55534001Y-43466197D01*
X55504998Y-43490000D01*
X55450662Y-43556209D01*
X55410025Y-43605725D01*
X55386993Y-43648815D01*
X55339453Y-43737755D01*
X55295996Y-43881016D01*
X55284999Y-43992669D01*
X55284999Y-43992679D01*
X55281323Y-44030001D01*
X53087659Y-44030001D01*
X53087659Y-40612500D01*
X55761928Y-40612500D01*
X55765000Y-40814250D01*
X55923750Y-40973000D01*
X56973000Y-40973000D01*
X56973000Y-40136250D01*
X57227000Y-40136250D01*
X57227000Y-40973000D01*
X58276250Y-40973000D01*
X58435000Y-40814250D01*
X58438072Y-40612500D01*
X58425812Y-40488018D01*
X58389502Y-40368320D01*
X58330537Y-40258006D01*
X58251185Y-40161315D01*
X58154494Y-40081963D01*
X58044180Y-40022998D01*
X57924482Y-39986688D01*
X57800000Y-39974428D01*
X57385750Y-39977500D01*
X57227000Y-40136250D01*
X56973000Y-40136250D01*
X56814250Y-39977500D01*
X56400000Y-39974428D01*
X56275518Y-39986688D01*
X56155820Y-40022998D01*
X56045506Y-40081963D01*
X55948815Y-40161315D01*
X55869463Y-40258006D01*
X55810498Y-40368320D01*
X55774188Y-40488018D01*
X55761928Y-40612500D01*
X53087659Y-40612500D01*
X53087659Y-38802245D01*
X54516980Y-37637103D01*
X56261482Y-36407133D01*
X58087510Y-35301865D01*
X59986223Y-34326648D01*
X61948300Y-33486272D01*
X63964259Y-32784796D01*
X66024198Y-32225666D01*
X68118157Y-31811586D01*
X70235883Y-31544583D01*
X72367084Y-31425956D01*
X74501348Y-31456281D01*
G36*
X80165000Y-40839250D02*
G01*
X80323750Y-40998000D01*
X81373000Y-40998000D01*
X81373000Y-40978000D01*
X81627000Y-40978000D01*
X81627000Y-40998000D01*
X82676250Y-40998000D01*
X82734724Y-40939526D01*
X85535198Y-43740000D01*
X83314802Y-43740000D01*
X82836322Y-43261520D01*
X82838072Y-43243750D01*
X82838072Y-42756250D01*
X82821128Y-42584215D01*
X82770947Y-42418791D01*
X82689458Y-42266336D01*
X82579792Y-42132708D01*
X82573436Y-42127492D01*
X82651185Y-42063685D01*
X82730537Y-41966994D01*
X82789502Y-41856680D01*
X82825812Y-41736982D01*
X82838072Y-41612500D01*
X82835000Y-41410750D01*
X82676250Y-41252000D01*
X81627000Y-41252000D01*
X81627000Y-41272000D01*
X81373000Y-41272000D01*
X81373000Y-41252000D01*
X80323750Y-41252000D01*
X80165000Y-41410750D01*
X80161928Y-41612500D01*
X80174188Y-41736982D01*
X80210498Y-41856680D01*
X80269463Y-41966994D01*
X80348815Y-42063685D01*
X80426564Y-42127492D01*
X80420208Y-42132708D01*
X80310542Y-42266336D01*
X80229053Y-42418791D01*
X80178872Y-42584215D01*
X80161928Y-42756250D01*
X80161928Y-43243750D01*
X80178872Y-43415785D01*
X80229053Y-43581209D01*
X80310542Y-43733664D01*
X80420208Y-43867292D01*
X80553836Y-43976958D01*
X80706291Y-44058447D01*
X80871715Y-44108628D01*
X81043750Y-44125572D01*
X81550771Y-44125572D01*
X82294957Y-44869759D01*
X82184999Y-44959999D01*
X82161201Y-44988997D01*
X81550771Y-45599428D01*
X81043750Y-45599428D01*
X80871715Y-45616372D01*
X80706291Y-45666553D01*
X80553836Y-45748042D01*
X80420208Y-45857708D01*
X80310542Y-45991336D01*
X80229053Y-46143791D01*
X80178872Y-46309215D01*
X80161928Y-46481250D01*
X80161928Y-46968750D01*
X80178872Y-47140785D01*
X80229053Y-47306209D01*
X80310542Y-47458664D01*
X80420208Y-47592292D01*
X80426564Y-47597508D01*
X80348815Y-47661315D01*
X80269463Y-47758006D01*
X80210498Y-47868320D01*
X80174188Y-47988018D01*
X80161928Y-48112500D01*
X80165000Y-48314250D01*
X80323750Y-48473000D01*
X81373000Y-48473000D01*
X81373000Y-48453000D01*
X81627000Y-48453000D01*
X81627000Y-48473000D01*
X82676250Y-48473000D01*
X82835000Y-48314250D01*
X82838072Y-48112500D01*
X82825812Y-47988018D01*
X82789502Y-47868320D01*
X82730537Y-47758006D01*
X82651185Y-47661315D01*
X82573436Y-47597508D01*
X82579792Y-47592292D01*
X82689458Y-47458664D01*
X82770947Y-47306209D01*
X82821128Y-47140785D01*
X82838072Y-46968750D01*
X82838072Y-46481250D01*
X82836322Y-46463480D01*
X83039802Y-46260000D01*
X85961928Y-46260000D01*
X85961928Y-46920000D01*
X85974188Y-47044482D01*
X86001646Y-47135000D01*
X85974188Y-47225518D01*
X85961928Y-47350000D01*
X85965000Y-47464250D01*
X86123750Y-47623000D01*
X87073000Y-47623000D01*
X87073000Y-47603000D01*
X87327000Y-47603000D01*
X87327000Y-47623000D01*
X88276250Y-47623000D01*
X88435000Y-47464250D01*
X88438072Y-47350000D01*
X88425812Y-47225518D01*
X88414160Y-47187107D01*
X88474276Y-47154974D01*
X88590001Y-47060001D01*
X88613804Y-47030998D01*
X89090001Y-46554801D01*
X89090000Y-49585198D01*
X88564795Y-50110404D01*
X88589502Y-50064180D01*
X88625812Y-49944482D01*
X88638072Y-49820000D01*
X88635000Y-49605750D01*
X88476250Y-49447000D01*
X87327000Y-49447000D01*
X87327000Y-50296250D01*
X87485750Y-50455000D01*
X88000000Y-50458072D01*
X88124482Y-50445812D01*
X88244180Y-50409502D01*
X88290404Y-50384794D01*
X85635199Y-53040000D01*
X75025784Y-53040000D01*
X75077002Y-52944180D01*
X75113312Y-52824482D01*
X75125572Y-52700000D01*
X75122500Y-52285750D01*
X74963750Y-52127000D01*
X74127000Y-52127000D01*
X74127000Y-52147000D01*
X73873000Y-52147000D01*
X73873000Y-52127000D01*
X73853000Y-52127000D01*
X73853000Y-51873000D01*
X73873000Y-51873000D01*
X73873000Y-50823750D01*
X74127000Y-50823750D01*
X74127000Y-51873000D01*
X74963750Y-51873000D01*
X75122500Y-51714250D01*
X75125572Y-51300000D01*
X75113312Y-51175518D01*
X75077002Y-51055820D01*
X75018037Y-50945506D01*
X74938685Y-50848815D01*
X74841994Y-50769463D01*
X74731680Y-50710498D01*
X74611982Y-50674188D01*
X74487500Y-50661928D01*
X74285750Y-50665000D01*
X74127000Y-50823750D01*
X73873000Y-50823750D01*
X73714250Y-50665000D01*
X73512500Y-50661928D01*
X73388018Y-50674188D01*
X73268320Y-50710498D01*
X73158006Y-50769463D01*
X73061315Y-50848815D01*
X72997508Y-50926564D01*
X72992292Y-50920208D01*
X72858664Y-50810542D01*
X72706209Y-50729053D01*
X72540785Y-50678872D01*
X72368750Y-50661928D01*
X71881250Y-50661928D01*
X71709215Y-50678872D01*
X71543791Y-50729053D01*
X71391336Y-50810542D01*
X71257708Y-50920208D01*
X71148042Y-51053836D01*
X71066553Y-51206291D01*
X71056327Y-51240000D01*
X61673711Y-51240000D01*
X61753937Y-51159774D01*
X61867205Y-50990256D01*
X61890322Y-50934447D01*
X61993320Y-50989502D01*
X62113018Y-51025812D01*
X62237500Y-51038072D01*
X62439250Y-51035000D01*
X62598000Y-50876250D01*
X62598000Y-49827000D01*
X62578000Y-49827000D01*
X62578000Y-49573000D01*
X62598000Y-49573000D01*
X62598000Y-49553000D01*
X62852000Y-49553000D01*
X62852000Y-49573000D01*
X62872000Y-49573000D01*
X62872000Y-49827000D01*
X62852000Y-49827000D01*
X62852000Y-50876250D01*
X63010750Y-51035000D01*
X63212500Y-51038072D01*
X63336982Y-51025812D01*
X63456680Y-50989502D01*
X63566994Y-50930537D01*
X63663685Y-50851185D01*
X63727492Y-50773436D01*
X63732708Y-50779792D01*
X63866336Y-50889458D01*
X64018791Y-50970947D01*
X64184215Y-51021128D01*
X64356250Y-51038072D01*
X64843750Y-51038072D01*
X65015785Y-51021128D01*
X65181209Y-50970947D01*
X65333664Y-50889458D01*
X65467292Y-50779792D01*
X65576958Y-50646164D01*
X65658447Y-50493709D01*
X65668673Y-50460000D01*
X76262678Y-50460000D01*
X76300000Y-50463676D01*
X76337322Y-50460000D01*
X76337333Y-50460000D01*
X76448986Y-50449003D01*
X76592247Y-50405546D01*
X76724276Y-50334974D01*
X76840001Y-50240001D01*
X76863804Y-50210997D01*
X77254801Y-49820000D01*
X85761928Y-49820000D01*
X85774188Y-49944482D01*
X85810498Y-50064180D01*
X85869463Y-50174494D01*
X85948815Y-50271185D01*
X86045506Y-50350537D01*
X86155820Y-50409502D01*
X86275518Y-50445812D01*
X86400000Y-50458072D01*
X86914250Y-50455000D01*
X87073000Y-50296250D01*
X87073000Y-49447000D01*
X85923750Y-49447000D01*
X85765000Y-49605750D01*
X85761928Y-49820000D01*
X77254801Y-49820000D01*
X77987301Y-49087500D01*
X80161928Y-49087500D01*
X80174188Y-49211982D01*
X80210498Y-49331680D01*
X80269463Y-49441994D01*
X80348815Y-49538685D01*
X80445506Y-49618037D01*
X80555820Y-49677002D01*
X80675518Y-49713312D01*
X80800000Y-49725572D01*
X81214250Y-49722500D01*
X81373000Y-49563750D01*
X81373000Y-48727000D01*
X81627000Y-48727000D01*
X81627000Y-49563750D01*
X81785750Y-49722500D01*
X82200000Y-49725572D01*
X82324482Y-49713312D01*
X82444180Y-49677002D01*
X82554494Y-49618037D01*
X82651185Y-49538685D01*
X82730537Y-49441994D01*
X82789502Y-49331680D01*
X82825812Y-49211982D01*
X82838072Y-49087500D01*
X82835000Y-48885750D01*
X82769250Y-48820000D01*
X85761928Y-48820000D01*
X85765000Y-49034250D01*
X85923750Y-49193000D01*
X87073000Y-49193000D01*
X87073000Y-47877000D01*
X87327000Y-47877000D01*
X87327000Y-49193000D01*
X88476250Y-49193000D01*
X88635000Y-49034250D01*
X88638072Y-48820000D01*
X88625812Y-48695518D01*
X88589502Y-48575820D01*
X88530537Y-48465506D01*
X88451185Y-48368815D01*
X88407958Y-48333339D01*
X88425812Y-48274482D01*
X88438072Y-48150000D01*
X88435000Y-48035750D01*
X88276250Y-47877000D01*
X87327000Y-47877000D01*
X87073000Y-47877000D01*
X86123750Y-47877000D01*
X85965000Y-48035750D01*
X85961928Y-48150000D01*
X85974188Y-48274482D01*
X85992042Y-48333339D01*
X85948815Y-48368815D01*
X85869463Y-48465506D01*
X85810498Y-48575820D01*
X85774188Y-48695518D01*
X85761928Y-48820000D01*
X82769250Y-48820000D01*
X82676250Y-48727000D01*
X81627000Y-48727000D01*
X81373000Y-48727000D01*
X80323750Y-48727000D01*
X80165000Y-48885750D01*
X80161928Y-49087500D01*
X77987301Y-49087500D01*
X78211004Y-48863798D01*
X78240001Y-48840001D01*
X78313438Y-48750518D01*
X78334974Y-48724277D01*
X78405546Y-48592247D01*
X78413803Y-48565026D01*
X78449003Y-48448986D01*
X78460000Y-48337333D01*
X78460000Y-48337323D01*
X78463676Y-48300000D01*
X78460000Y-48262678D01*
X78460000Y-43637323D01*
X78463676Y-43600000D01*
X78460000Y-43562677D01*
X78460000Y-43562667D01*
X78449003Y-43451014D01*
X78405546Y-43307753D01*
X78334974Y-43175724D01*
X78240001Y-43059999D01*
X78211003Y-43036201D01*
X75934801Y-40760000D01*
X80163793Y-40760000D01*
X80165000Y-40839250D01*
X80165000Y-40839250D01*
G37*
X80165000Y-40839250D02*
X80323750Y-40998000D01*
X81373000Y-40998000D01*
X81373000Y-40978000D01*
X81627000Y-40978000D01*
X81627000Y-40998000D01*
X82676250Y-40998000D01*
X82734724Y-40939526D01*
X85535198Y-43740000D01*
X83314802Y-43740000D01*
X82836322Y-43261520D01*
X82838072Y-43243750D01*
X82838072Y-42756250D01*
X82821128Y-42584215D01*
X82770947Y-42418791D01*
X82689458Y-42266336D01*
X82579792Y-42132708D01*
X82573436Y-42127492D01*
X82651185Y-42063685D01*
X82730537Y-41966994D01*
X82789502Y-41856680D01*
X82825812Y-41736982D01*
X82838072Y-41612500D01*
X82835000Y-41410750D01*
X82676250Y-41252000D01*
X81627000Y-41252000D01*
X81627000Y-41272000D01*
X81373000Y-41272000D01*
X81373000Y-41252000D01*
X80323750Y-41252000D01*
X80165000Y-41410750D01*
X80161928Y-41612500D01*
X80174188Y-41736982D01*
X80210498Y-41856680D01*
X80269463Y-41966994D01*
X80348815Y-42063685D01*
X80426564Y-42127492D01*
X80420208Y-42132708D01*
X80310542Y-42266336D01*
X80229053Y-42418791D01*
X80178872Y-42584215D01*
X80161928Y-42756250D01*
X80161928Y-43243750D01*
X80178872Y-43415785D01*
X80229053Y-43581209D01*
X80310542Y-43733664D01*
X80420208Y-43867292D01*
X80553836Y-43976958D01*
X80706291Y-44058447D01*
X80871715Y-44108628D01*
X81043750Y-44125572D01*
X81550771Y-44125572D01*
X82294957Y-44869759D01*
X82184999Y-44959999D01*
X82161201Y-44988997D01*
X81550771Y-45599428D01*
X81043750Y-45599428D01*
X80871715Y-45616372D01*
X80706291Y-45666553D01*
X80553836Y-45748042D01*
X80420208Y-45857708D01*
X80310542Y-45991336D01*
X80229053Y-46143791D01*
X80178872Y-46309215D01*
X80161928Y-46481250D01*
X80161928Y-46968750D01*
X80178872Y-47140785D01*
X80229053Y-47306209D01*
X80310542Y-47458664D01*
X80420208Y-47592292D01*
X80426564Y-47597508D01*
X80348815Y-47661315D01*
X80269463Y-47758006D01*
X80210498Y-47868320D01*
X80174188Y-47988018D01*
X80161928Y-48112500D01*
X80165000Y-48314250D01*
X80323750Y-48473000D01*
X81373000Y-48473000D01*
X81373000Y-48453000D01*
X81627000Y-48453000D01*
X81627000Y-48473000D01*
X82676250Y-48473000D01*
X82835000Y-48314250D01*
X82838072Y-48112500D01*
X82825812Y-47988018D01*
X82789502Y-47868320D01*
X82730537Y-47758006D01*
X82651185Y-47661315D01*
X82573436Y-47597508D01*
X82579792Y-47592292D01*
X82689458Y-47458664D01*
X82770947Y-47306209D01*
X82821128Y-47140785D01*
X82838072Y-46968750D01*
X82838072Y-46481250D01*
X82836322Y-46463480D01*
X83039802Y-46260000D01*
X85961928Y-46260000D01*
X85961928Y-46920000D01*
X85974188Y-47044482D01*
X86001646Y-47135000D01*
X85974188Y-47225518D01*
X85961928Y-47350000D01*
X85965000Y-47464250D01*
X86123750Y-47623000D01*
X87073000Y-47623000D01*
X87073000Y-47603000D01*
X87327000Y-47603000D01*
X87327000Y-47623000D01*
X88276250Y-47623000D01*
X88435000Y-47464250D01*
X88438072Y-47350000D01*
X88425812Y-47225518D01*
X88414160Y-47187107D01*
X88474276Y-47154974D01*
X88590001Y-47060001D01*
X88613804Y-47030998D01*
X89090001Y-46554801D01*
X89090000Y-49585198D01*
X88564795Y-50110404D01*
X88589502Y-50064180D01*
X88625812Y-49944482D01*
X88638072Y-49820000D01*
X88635000Y-49605750D01*
X88476250Y-49447000D01*
X87327000Y-49447000D01*
X87327000Y-50296250D01*
X87485750Y-50455000D01*
X88000000Y-50458072D01*
X88124482Y-50445812D01*
X88244180Y-50409502D01*
X88290404Y-50384794D01*
X85635199Y-53040000D01*
X75025784Y-53040000D01*
X75077002Y-52944180D01*
X75113312Y-52824482D01*
X75125572Y-52700000D01*
X75122500Y-52285750D01*
X74963750Y-52127000D01*
X74127000Y-52127000D01*
X74127000Y-52147000D01*
X73873000Y-52147000D01*
X73873000Y-52127000D01*
X73853000Y-52127000D01*
X73853000Y-51873000D01*
X73873000Y-51873000D01*
X73873000Y-50823750D01*
X74127000Y-50823750D01*
X74127000Y-51873000D01*
X74963750Y-51873000D01*
X75122500Y-51714250D01*
X75125572Y-51300000D01*
X75113312Y-51175518D01*
X75077002Y-51055820D01*
X75018037Y-50945506D01*
X74938685Y-50848815D01*
X74841994Y-50769463D01*
X74731680Y-50710498D01*
X74611982Y-50674188D01*
X74487500Y-50661928D01*
X74285750Y-50665000D01*
X74127000Y-50823750D01*
X73873000Y-50823750D01*
X73714250Y-50665000D01*
X73512500Y-50661928D01*
X73388018Y-50674188D01*
X73268320Y-50710498D01*
X73158006Y-50769463D01*
X73061315Y-50848815D01*
X72997508Y-50926564D01*
X72992292Y-50920208D01*
X72858664Y-50810542D01*
X72706209Y-50729053D01*
X72540785Y-50678872D01*
X72368750Y-50661928D01*
X71881250Y-50661928D01*
X71709215Y-50678872D01*
X71543791Y-50729053D01*
X71391336Y-50810542D01*
X71257708Y-50920208D01*
X71148042Y-51053836D01*
X71066553Y-51206291D01*
X71056327Y-51240000D01*
X61673711Y-51240000D01*
X61753937Y-51159774D01*
X61867205Y-50990256D01*
X61890322Y-50934447D01*
X61993320Y-50989502D01*
X62113018Y-51025812D01*
X62237500Y-51038072D01*
X62439250Y-51035000D01*
X62598000Y-50876250D01*
X62598000Y-49827000D01*
X62578000Y-49827000D01*
X62578000Y-49573000D01*
X62598000Y-49573000D01*
X62598000Y-49553000D01*
X62852000Y-49553000D01*
X62852000Y-49573000D01*
X62872000Y-49573000D01*
X62872000Y-49827000D01*
X62852000Y-49827000D01*
X62852000Y-50876250D01*
X63010750Y-51035000D01*
X63212500Y-51038072D01*
X63336982Y-51025812D01*
X63456680Y-50989502D01*
X63566994Y-50930537D01*
X63663685Y-50851185D01*
X63727492Y-50773436D01*
X63732708Y-50779792D01*
X63866336Y-50889458D01*
X64018791Y-50970947D01*
X64184215Y-51021128D01*
X64356250Y-51038072D01*
X64843750Y-51038072D01*
X65015785Y-51021128D01*
X65181209Y-50970947D01*
X65333664Y-50889458D01*
X65467292Y-50779792D01*
X65576958Y-50646164D01*
X65658447Y-50493709D01*
X65668673Y-50460000D01*
X76262678Y-50460000D01*
X76300000Y-50463676D01*
X76337322Y-50460000D01*
X76337333Y-50460000D01*
X76448986Y-50449003D01*
X76592247Y-50405546D01*
X76724276Y-50334974D01*
X76840001Y-50240001D01*
X76863804Y-50210997D01*
X77254801Y-49820000D01*
X85761928Y-49820000D01*
X85774188Y-49944482D01*
X85810498Y-50064180D01*
X85869463Y-50174494D01*
X85948815Y-50271185D01*
X86045506Y-50350537D01*
X86155820Y-50409502D01*
X86275518Y-50445812D01*
X86400000Y-50458072D01*
X86914250Y-50455000D01*
X87073000Y-50296250D01*
X87073000Y-49447000D01*
X85923750Y-49447000D01*
X85765000Y-49605750D01*
X85761928Y-49820000D01*
X77254801Y-49820000D01*
X77987301Y-49087500D01*
X80161928Y-49087500D01*
X80174188Y-49211982D01*
X80210498Y-49331680D01*
X80269463Y-49441994D01*
X80348815Y-49538685D01*
X80445506Y-49618037D01*
X80555820Y-49677002D01*
X80675518Y-49713312D01*
X80800000Y-49725572D01*
X81214250Y-49722500D01*
X81373000Y-49563750D01*
X81373000Y-48727000D01*
X81627000Y-48727000D01*
X81627000Y-49563750D01*
X81785750Y-49722500D01*
X82200000Y-49725572D01*
X82324482Y-49713312D01*
X82444180Y-49677002D01*
X82554494Y-49618037D01*
X82651185Y-49538685D01*
X82730537Y-49441994D01*
X82789502Y-49331680D01*
X82825812Y-49211982D01*
X82838072Y-49087500D01*
X82835000Y-48885750D01*
X82769250Y-48820000D01*
X85761928Y-48820000D01*
X85765000Y-49034250D01*
X85923750Y-49193000D01*
X87073000Y-49193000D01*
X87073000Y-47877000D01*
X87327000Y-47877000D01*
X87327000Y-49193000D01*
X88476250Y-49193000D01*
X88635000Y-49034250D01*
X88638072Y-48820000D01*
X88625812Y-48695518D01*
X88589502Y-48575820D01*
X88530537Y-48465506D01*
X88451185Y-48368815D01*
X88407958Y-48333339D01*
X88425812Y-48274482D01*
X88438072Y-48150000D01*
X88435000Y-48035750D01*
X88276250Y-47877000D01*
X87327000Y-47877000D01*
X87073000Y-47877000D01*
X86123750Y-47877000D01*
X85965000Y-48035750D01*
X85961928Y-48150000D01*
X85974188Y-48274482D01*
X85992042Y-48333339D01*
X85948815Y-48368815D01*
X85869463Y-48465506D01*
X85810498Y-48575820D01*
X85774188Y-48695518D01*
X85761928Y-48820000D01*
X82769250Y-48820000D01*
X82676250Y-48727000D01*
X81627000Y-48727000D01*
X81373000Y-48727000D01*
X80323750Y-48727000D01*
X80165000Y-48885750D01*
X80161928Y-49087500D01*
X77987301Y-49087500D01*
X78211004Y-48863798D01*
X78240001Y-48840001D01*
X78313438Y-48750518D01*
X78334974Y-48724277D01*
X78405546Y-48592247D01*
X78413803Y-48565026D01*
X78449003Y-48448986D01*
X78460000Y-48337333D01*
X78460000Y-48337323D01*
X78463676Y-48300000D01*
X78460000Y-48262678D01*
X78460000Y-43637323D01*
X78463676Y-43600000D01*
X78460000Y-43562677D01*
X78460000Y-43562667D01*
X78449003Y-43451014D01*
X78405546Y-43307753D01*
X78334974Y-43175724D01*
X78240001Y-43059999D01*
X78211003Y-43036201D01*
X75934801Y-40760000D01*
X80163793Y-40760000D01*
X80165000Y-40839250D01*
G36*
X61238996Y-47413799D02*
G01*
X61239007Y-47413808D01*
X62191643Y-48366444D01*
X62113018Y-48374188D01*
X61993320Y-48410498D01*
X61883006Y-48469463D01*
X61786315Y-48548815D01*
X61706963Y-48645506D01*
X61647998Y-48755820D01*
X61611688Y-48875518D01*
X61599428Y-49000000D01*
X61602500Y-49414250D01*
X61761248Y-49572998D01*
X61602500Y-49572998D01*
X61602500Y-49691203D01*
X61440256Y-49582795D01*
X61251898Y-49504774D01*
X61051939Y-49465000D01*
X60989802Y-49465000D01*
X60248474Y-48723673D01*
X60255812Y-48699482D01*
X60268072Y-48575000D01*
X60265000Y-48535750D01*
X60106250Y-48377000D01*
X60024141Y-48377000D01*
X59984494Y-48344463D01*
X59874180Y-48285498D01*
X59757159Y-48250000D01*
X59874180Y-48214502D01*
X59984494Y-48155537D01*
X60024141Y-48123000D01*
X60106250Y-48123000D01*
X60265000Y-47964250D01*
X60268072Y-47925000D01*
X60255812Y-47800518D01*
X60248071Y-47775000D01*
X60255812Y-47749482D01*
X60268072Y-47625000D01*
X60268072Y-46975000D01*
X60255812Y-46850518D01*
X60219502Y-46730820D01*
X60160537Y-46620506D01*
X60081185Y-46523815D01*
X59984494Y-46444463D01*
X59874180Y-46385498D01*
X59860000Y-46381197D01*
X59860000Y-46357322D01*
X59863676Y-46320000D01*
X59860000Y-46282677D01*
X59860000Y-46282667D01*
X59849003Y-46171014D01*
X59805546Y-46027753D01*
X59788316Y-45995518D01*
X59751111Y-45925913D01*
X61238996Y-47413799D01*
X61238996Y-47413799D01*
G37*
X61238996Y-47413799D02*
X61239007Y-47413808D01*
X62191643Y-48366444D01*
X62113018Y-48374188D01*
X61993320Y-48410498D01*
X61883006Y-48469463D01*
X61786315Y-48548815D01*
X61706963Y-48645506D01*
X61647998Y-48755820D01*
X61611688Y-48875518D01*
X61599428Y-49000000D01*
X61602500Y-49414250D01*
X61761248Y-49572998D01*
X61602500Y-49572998D01*
X61602500Y-49691203D01*
X61440256Y-49582795D01*
X61251898Y-49504774D01*
X61051939Y-49465000D01*
X60989802Y-49465000D01*
X60248474Y-48723673D01*
X60255812Y-48699482D01*
X60268072Y-48575000D01*
X60265000Y-48535750D01*
X60106250Y-48377000D01*
X60024141Y-48377000D01*
X59984494Y-48344463D01*
X59874180Y-48285498D01*
X59757159Y-48250000D01*
X59874180Y-48214502D01*
X59984494Y-48155537D01*
X60024141Y-48123000D01*
X60106250Y-48123000D01*
X60265000Y-47964250D01*
X60268072Y-47925000D01*
X60255812Y-47800518D01*
X60248071Y-47775000D01*
X60255812Y-47749482D01*
X60268072Y-47625000D01*
X60268072Y-46975000D01*
X60255812Y-46850518D01*
X60219502Y-46730820D01*
X60160537Y-46620506D01*
X60081185Y-46523815D01*
X59984494Y-46444463D01*
X59874180Y-46385498D01*
X59860000Y-46381197D01*
X59860000Y-46357322D01*
X59863676Y-46320000D01*
X59860000Y-46282677D01*
X59860000Y-46282667D01*
X59849003Y-46171014D01*
X59805546Y-46027753D01*
X59788316Y-45995518D01*
X59751111Y-45925913D01*
X61238996Y-47413799D01*
M02*
