<?xml version="1.0" encoding="utf-8"?><svg version="1.1" id="Layer_1" xmlns="http://www.w3.org/2000/svg" xmlns:xlink="http://www.w3.org/1999/xlink" x="0px" y="0px" width="122.88px" height="70.132px" viewBox="0 0 122.88 70.132" enable-background="new 0 0 122.88 70.132" xml:space="preserve"><g><path fill-rule="evenodd" clip-rule="evenodd" d="M72.906,11.423h19.71c1.631,0,2.965,1.38,2.965,2.971v41.312 c0,1.59-1.378,2.971-2.965,2.971h-19.71V11.423L72.906,11.423z M107.659,15.476h11.885c0.926,0,1.758,0.38,2.356,0.979 c0.604,0.604,0.979,1.447,0.979,2.357v32.508c0,0.916-0.383,1.756-0.981,2.354s-1.438,0.981-2.354,0.981h-11.885V64.4 c0,1.574-0.647,3.009-1.686,4.046c-1.037,1.038-2.472,1.686-4.046,1.686H5.731c-1.574,0-3.01-0.646-4.049-1.684 C0.646,67.412,0,65.979,0,64.4V5.731c0-1.579,0.644-3.013,1.681-4.05C2.718,0.644,4.152,0,5.731,0h96.196 c1.579,0,3.012,0.646,4.048,1.683c1.038,1.039,1.684,2.475,1.684,4.049V15.476L107.659,15.476z M117.22,21.136h-9.561v27.859h9.561 V21.136L117.22,21.136z M101.999,51.825v-33.52V5.731c0-0.014-0.01-0.031-0.025-0.047c-0.015-0.015-0.032-0.024-0.046-0.024H5.731 c-0.017,0-0.035,0.009-0.049,0.023S5.66,5.715,5.66,5.731V64.4c0,0.014,0.009,0.031,0.024,0.046 c0.016,0.016,0.033,0.025,0.047,0.025h96.196c0.012,0,0.028-0.01,0.045-0.026c0.016-0.017,0.026-0.033,0.026-0.045V51.825 L101.999,51.825z M14.947,11.423h19.137v47.253H14.947c-1.595,0-2.971-1.337-2.971-2.971V14.394 C11.976,12.759,13.313,11.423,14.947,11.423L14.947,11.423z M42.158,11.423h22.674v47.253H42.158V11.423L42.158,11.423z"/></g></svg>