<?xml version="1.0" encoding="utf-8"?><svg version="1.1" id="Layer_1" xmlns="http://www.w3.org/2000/svg" xmlns:xlink="http://www.w3.org/1999/xlink" x="0px" y="0px" width="122.88px" height="70.164px" viewBox="0 0 122.88 70.164" enable-background="new 0 0 122.88 70.164" xml:space="preserve"><g><path fill-rule="evenodd" clip-rule="evenodd" d="M107.681,15.544h11.891c0.938,0,1.748,0.374,2.342,0.967 c0.593,0.593,0.967,1.436,0.967,2.372v32.492c0,0.904-0.374,1.747-0.967,2.34c-0.594,0.594-1.436,0.968-2.342,0.968h-11.891v9.738 c0,1.561-0.656,2.996-1.686,4.058c-1.03,1.029-2.466,1.686-4.058,1.686H5.743c-1.561,0-2.996-0.656-4.058-1.686 C0.656,67.448,0,66.013,0,64.421V5.743c0-1.592,0.656-3.027,1.686-4.058C2.716,0.656,4.151,0,5.743,0h96.194 c1.592,0,2.996,0.656,4.058,1.686c1.029,1.03,1.686,2.466,1.686,4.058v9.738V15.544L107.681,15.544z M117.231,21.193h-9.551v27.872 h9.551V21.193L117.231,21.193z M102,51.874v-46.1c0,0,0-0.031-0.031-0.063l-0.031-0.031H5.743c-0.031,0-0.031,0-0.063,0.031 c0,0-0.031,0.031-0.031,0.063v58.678c0,0,0,0.031,0.031,0.031c0.031,0.031,0.031,0.031,0.063,0.031h96.194c0,0,0.031,0,0.031-0.031 L102,64.452V51.874L102,51.874L102,51.874z M14.951,11.486h19.133V58.74H14.951c-1.592,0-2.965-1.342-2.965-2.965V14.482 c0-1.623,1.342-2.965,2.965-2.965V11.486L14.951,11.486z M42.167,11.486h22.66V58.74h-22.66V11.486L42.167,11.486z"/></g></svg>