G04 #@! TF.GenerationSoftware,KiCad,Pcbnew,(5.1.2-1)-1*
G04 #@! TF.CreationDate,2021-02-06T10:41:02+01:00*
G04 #@! TF.ProjectId,lir2450-charger,6c697232-3435-4302-9d63-686172676572,1.0.0*
G04 #@! TF.SameCoordinates,Original*
G04 #@! TF.FileFunction,Legend,Top*
G04 #@! TF.FilePolarity,Positive*
%FSLAX46Y46*%
G04 Gerber Fmt 4.6, Leading zero omitted, Abs format (unit mm)*
G04 Created by KiCad (PCBNEW (5.1.2-1)-1) date 2021-02-06 10:41:02*
%MOMM*%
%LPD*%
G04 APERTURE LIST*
%ADD10C,0.150000*%
%ADD11C,0.120000*%
%ADD12C,0.200000*%
%ADD13C,0.010000*%
%ADD14C,0.100000*%
%ADD15C,0.125000*%
G04 APERTURE END LIST*
D10*
X69107142Y-37107142D02*
X69035714Y-37154761D01*
X68821428Y-37202380D01*
X68678571Y-37202380D01*
X68464285Y-37154761D01*
X68321428Y-37059523D01*
X68250000Y-36964285D01*
X68178571Y-36773809D01*
X68178571Y-36630952D01*
X68250000Y-36440476D01*
X68321428Y-36345238D01*
X68464285Y-36250000D01*
X68678571Y-36202380D01*
X68821428Y-36202380D01*
X69035714Y-36250000D01*
X69107142Y-36297619D01*
X69750000Y-37202380D02*
X69750000Y-36202380D01*
X69750000Y-36678571D02*
X70607142Y-36678571D01*
X70607142Y-37202380D02*
X70607142Y-36202380D01*
X71250000Y-36916666D02*
X71964285Y-36916666D01*
X71107142Y-37202380D02*
X71607142Y-36202380D01*
X72107142Y-37202380D01*
X73464285Y-37202380D02*
X72964285Y-36726190D01*
X72607142Y-37202380D02*
X72607142Y-36202380D01*
X73178571Y-36202380D01*
X73321428Y-36250000D01*
X73392857Y-36297619D01*
X73464285Y-36392857D01*
X73464285Y-36535714D01*
X73392857Y-36630952D01*
X73321428Y-36678571D01*
X73178571Y-36726190D01*
X72607142Y-36726190D01*
X74892857Y-36250000D02*
X74750000Y-36202380D01*
X74535714Y-36202380D01*
X74321428Y-36250000D01*
X74178571Y-36345238D01*
X74107142Y-36440476D01*
X74035714Y-36630952D01*
X74035714Y-36773809D01*
X74107142Y-36964285D01*
X74178571Y-37059523D01*
X74321428Y-37154761D01*
X74535714Y-37202380D01*
X74678571Y-37202380D01*
X74892857Y-37154761D01*
X74964285Y-37107142D01*
X74964285Y-36773809D01*
X74678571Y-36773809D01*
X75607142Y-36678571D02*
X76107142Y-36678571D01*
X76321428Y-37202380D02*
X75607142Y-37202380D01*
X75607142Y-36202380D01*
X76321428Y-36202380D01*
X77821428Y-37202380D02*
X77321428Y-36726190D01*
X76964285Y-37202380D02*
X76964285Y-36202380D01*
X77535714Y-36202380D01*
X77678571Y-36250000D01*
X77750000Y-36297619D01*
X77821428Y-36392857D01*
X77821428Y-36535714D01*
X77750000Y-36630952D01*
X77678571Y-36678571D01*
X77535714Y-36726190D01*
X76964285Y-36726190D01*
D11*
X72300000Y-39000000D02*
X72300000Y-41000000D01*
X74100000Y-44000000D02*
X74100000Y-45800000D01*
D10*
X71704761Y-47602380D02*
X71704761Y-46602380D01*
X71942857Y-46602380D01*
X72085714Y-46650000D01*
X72180952Y-46745238D01*
X72228571Y-46840476D01*
X72276190Y-47030952D01*
X72276190Y-47173809D01*
X72228571Y-47364285D01*
X72180952Y-47459523D01*
X72085714Y-47554761D01*
X71942857Y-47602380D01*
X71704761Y-47602380D01*
X72847619Y-47602380D02*
X72752380Y-47554761D01*
X72704761Y-47507142D01*
X72657142Y-47411904D01*
X72657142Y-47126190D01*
X72704761Y-47030952D01*
X72752380Y-46983333D01*
X72847619Y-46935714D01*
X72990476Y-46935714D01*
X73085714Y-46983333D01*
X73133333Y-47030952D01*
X73180952Y-47126190D01*
X73180952Y-47411904D01*
X73133333Y-47507142D01*
X73085714Y-47554761D01*
X72990476Y-47602380D01*
X72847619Y-47602380D01*
X73609523Y-46935714D02*
X73609523Y-47602380D01*
X73609523Y-47030952D02*
X73657142Y-46983333D01*
X73752380Y-46935714D01*
X73895238Y-46935714D01*
X73990476Y-46983333D01*
X74038095Y-47078571D01*
X74038095Y-47602380D01*
X74895238Y-47554761D02*
X74800000Y-47602380D01*
X74609523Y-47602380D01*
X74514285Y-47554761D01*
X74466666Y-47459523D01*
X74466666Y-47078571D01*
X74514285Y-46983333D01*
X74609523Y-46935714D01*
X74800000Y-46935714D01*
X74895238Y-46983333D01*
X74942857Y-47078571D01*
X74942857Y-47173809D01*
X74466666Y-47269047D01*
D12*
X69650000Y-35478571D02*
X68935714Y-35478571D01*
X68935714Y-33978571D01*
X70150000Y-35478571D02*
X70150000Y-33978571D01*
X71721428Y-35478571D02*
X71221428Y-34764285D01*
X70864285Y-35478571D02*
X70864285Y-33978571D01*
X71435714Y-33978571D01*
X71578571Y-34050000D01*
X71650000Y-34121428D01*
X71721428Y-34264285D01*
X71721428Y-34478571D01*
X71650000Y-34621428D01*
X71578571Y-34692857D01*
X71435714Y-34764285D01*
X70864285Y-34764285D01*
X72292857Y-34121428D02*
X72364285Y-34050000D01*
X72507142Y-33978571D01*
X72864285Y-33978571D01*
X73007142Y-34050000D01*
X73078571Y-34121428D01*
X73150000Y-34264285D01*
X73150000Y-34407142D01*
X73078571Y-34621428D01*
X72221428Y-35478571D01*
X73150000Y-35478571D01*
X74435714Y-34478571D02*
X74435714Y-35478571D01*
X74078571Y-33907142D02*
X73721428Y-34978571D01*
X74650000Y-34978571D01*
X75935714Y-33978571D02*
X75221428Y-33978571D01*
X75150000Y-34692857D01*
X75221428Y-34621428D01*
X75364285Y-34550000D01*
X75721428Y-34550000D01*
X75864285Y-34621428D01*
X75935714Y-34692857D01*
X76007142Y-34835714D01*
X76007142Y-35192857D01*
X75935714Y-35335714D01*
X75864285Y-35407142D01*
X75721428Y-35478571D01*
X75364285Y-35478571D01*
X75221428Y-35407142D01*
X75150000Y-35335714D01*
X76935714Y-33978571D02*
X77078571Y-33978571D01*
X77221428Y-34050000D01*
X77292857Y-34121428D01*
X77364285Y-34264285D01*
X77435714Y-34550000D01*
X77435714Y-34907142D01*
X77364285Y-35192857D01*
X77292857Y-35335714D01*
X77221428Y-35407142D01*
X77078571Y-35478571D01*
X76935714Y-35478571D01*
X76792857Y-35407142D01*
X76721428Y-35335714D01*
X76650000Y-35192857D01*
X76578571Y-34907142D01*
X76578571Y-34550000D01*
X76650000Y-34264285D01*
X76721428Y-34121428D01*
X76792857Y-34050000D01*
X76935714Y-33978571D01*
D10*
X70700000Y-42457142D02*
X70652380Y-42504761D01*
X70509523Y-42552380D01*
X70414285Y-42552380D01*
X70271428Y-42504761D01*
X70176190Y-42409523D01*
X70128571Y-42314285D01*
X70080952Y-42123809D01*
X70080952Y-41980952D01*
X70128571Y-41790476D01*
X70176190Y-41695238D01*
X70271428Y-41600000D01*
X70414285Y-41552380D01*
X70509523Y-41552380D01*
X70652380Y-41600000D01*
X70700000Y-41647619D01*
X71128571Y-42552380D02*
X71128571Y-41552380D01*
X71557142Y-42552380D02*
X71557142Y-42028571D01*
X71509523Y-41933333D01*
X71414285Y-41885714D01*
X71271428Y-41885714D01*
X71176190Y-41933333D01*
X71128571Y-41980952D01*
X72461904Y-42552380D02*
X72461904Y-42028571D01*
X72414285Y-41933333D01*
X72319047Y-41885714D01*
X72128571Y-41885714D01*
X72033333Y-41933333D01*
X72461904Y-42504761D02*
X72366666Y-42552380D01*
X72128571Y-42552380D01*
X72033333Y-42504761D01*
X71985714Y-42409523D01*
X71985714Y-42314285D01*
X72033333Y-42219047D01*
X72128571Y-42171428D01*
X72366666Y-42171428D01*
X72461904Y-42123809D01*
X72938095Y-42552380D02*
X72938095Y-41885714D01*
X72938095Y-42076190D02*
X72985714Y-41980952D01*
X73033333Y-41933333D01*
X73128571Y-41885714D01*
X73223809Y-41885714D01*
X73985714Y-41885714D02*
X73985714Y-42695238D01*
X73938095Y-42790476D01*
X73890476Y-42838095D01*
X73795238Y-42885714D01*
X73652380Y-42885714D01*
X73557142Y-42838095D01*
X73985714Y-42504761D02*
X73890476Y-42552380D01*
X73700000Y-42552380D01*
X73604761Y-42504761D01*
X73557142Y-42457142D01*
X73509523Y-42361904D01*
X73509523Y-42076190D01*
X73557142Y-41980952D01*
X73604761Y-41933333D01*
X73700000Y-41885714D01*
X73890476Y-41885714D01*
X73985714Y-41933333D01*
X74461904Y-42552380D02*
X74461904Y-41885714D01*
X74461904Y-41552380D02*
X74414285Y-41600000D01*
X74461904Y-41647619D01*
X74509523Y-41600000D01*
X74461904Y-41552380D01*
X74461904Y-41647619D01*
X74938095Y-41885714D02*
X74938095Y-42552380D01*
X74938095Y-41980952D02*
X74985714Y-41933333D01*
X75080952Y-41885714D01*
X75223809Y-41885714D01*
X75319047Y-41933333D01*
X75366666Y-42028571D01*
X75366666Y-42552380D01*
X76271428Y-41885714D02*
X76271428Y-42695238D01*
X76223809Y-42790476D01*
X76176190Y-42838095D01*
X76080952Y-42885714D01*
X75938095Y-42885714D01*
X75842857Y-42838095D01*
X76271428Y-42504761D02*
X76176190Y-42552380D01*
X75985714Y-42552380D01*
X75890476Y-42504761D01*
X75842857Y-42457142D01*
X75795238Y-42361904D01*
X75795238Y-42076190D01*
X75842857Y-41980952D01*
X75890476Y-41933333D01*
X75985714Y-41885714D01*
X76176190Y-41885714D01*
X76271428Y-41933333D01*
D13*
G36*
X85955814Y-51168931D02*
G01*
X86039635Y-51613555D01*
X86348920Y-51741053D01*
X86658206Y-51868551D01*
X87029246Y-51616246D01*
X87133157Y-51545996D01*
X87227087Y-51483272D01*
X87306652Y-51430938D01*
X87367470Y-51391857D01*
X87405157Y-51368893D01*
X87415421Y-51363942D01*
X87433910Y-51376676D01*
X87473420Y-51411882D01*
X87529522Y-51465062D01*
X87597787Y-51531718D01*
X87673786Y-51607354D01*
X87753092Y-51687472D01*
X87831275Y-51767574D01*
X87903907Y-51843164D01*
X87966559Y-51909745D01*
X88014803Y-51962818D01*
X88044210Y-51997887D01*
X88051241Y-52009623D01*
X88041123Y-52031260D01*
X88012759Y-52078662D01*
X87969129Y-52147193D01*
X87913218Y-52232215D01*
X87848006Y-52329093D01*
X87810219Y-52384350D01*
X87741343Y-52485248D01*
X87680140Y-52576299D01*
X87629578Y-52652970D01*
X87592628Y-52710728D01*
X87572258Y-52745043D01*
X87569197Y-52752254D01*
X87576136Y-52772748D01*
X87595051Y-52820513D01*
X87623087Y-52888832D01*
X87657391Y-52970989D01*
X87695109Y-53060270D01*
X87733387Y-53149958D01*
X87769370Y-53233338D01*
X87800206Y-53303694D01*
X87823039Y-53354310D01*
X87835017Y-53378471D01*
X87835724Y-53379422D01*
X87854531Y-53384036D01*
X87904618Y-53394328D01*
X87980793Y-53409287D01*
X88077865Y-53427901D01*
X88190643Y-53449159D01*
X88256442Y-53461418D01*
X88376950Y-53484362D01*
X88485797Y-53506195D01*
X88577476Y-53525722D01*
X88646481Y-53541748D01*
X88687304Y-53553079D01*
X88695511Y-53556674D01*
X88703548Y-53581006D01*
X88710033Y-53635959D01*
X88714970Y-53715108D01*
X88718364Y-53812026D01*
X88720218Y-53920287D01*
X88720538Y-54033465D01*
X88719327Y-54145135D01*
X88716590Y-54248868D01*
X88712331Y-54338241D01*
X88706555Y-54406826D01*
X88699267Y-54448197D01*
X88694895Y-54456810D01*
X88668764Y-54467133D01*
X88613393Y-54481892D01*
X88536107Y-54499352D01*
X88444230Y-54517780D01*
X88412158Y-54523741D01*
X88257524Y-54552066D01*
X88135375Y-54574876D01*
X88041673Y-54593080D01*
X87972384Y-54607583D01*
X87923471Y-54619292D01*
X87890897Y-54629115D01*
X87870628Y-54637956D01*
X87858626Y-54646724D01*
X87856947Y-54648457D01*
X87840184Y-54676371D01*
X87814614Y-54730695D01*
X87782788Y-54804777D01*
X87747260Y-54891965D01*
X87710583Y-54985608D01*
X87675311Y-55079052D01*
X87643996Y-55165647D01*
X87619193Y-55238740D01*
X87603454Y-55291678D01*
X87599332Y-55317811D01*
X87599676Y-55318726D01*
X87613641Y-55340086D01*
X87645322Y-55387084D01*
X87691391Y-55454827D01*
X87748518Y-55538423D01*
X87813373Y-55632982D01*
X87831843Y-55659854D01*
X87897699Y-55757275D01*
X87955650Y-55846163D01*
X88002538Y-55921412D01*
X88035207Y-55977920D01*
X88050500Y-56010581D01*
X88051241Y-56014593D01*
X88038392Y-56035684D01*
X88002888Y-56077464D01*
X87949293Y-56135445D01*
X87882171Y-56205135D01*
X87806087Y-56282045D01*
X87725604Y-56361683D01*
X87645287Y-56439561D01*
X87569699Y-56511186D01*
X87503405Y-56572070D01*
X87450969Y-56617721D01*
X87416955Y-56643650D01*
X87407545Y-56647883D01*
X87385643Y-56637912D01*
X87340800Y-56611020D01*
X87280321Y-56571736D01*
X87233789Y-56540117D01*
X87149475Y-56482098D01*
X87049626Y-56413784D01*
X86949473Y-56345579D01*
X86895627Y-56309075D01*
X86713371Y-56185800D01*
X86560381Y-56268520D01*
X86490682Y-56304759D01*
X86431414Y-56332926D01*
X86391311Y-56348991D01*
X86381103Y-56351226D01*
X86368829Y-56334722D01*
X86344613Y-56288082D01*
X86310263Y-56215609D01*
X86267588Y-56121606D01*
X86218394Y-56010374D01*
X86164490Y-55886215D01*
X86107684Y-55753432D01*
X86049782Y-55616327D01*
X85992593Y-55479202D01*
X85937924Y-55346358D01*
X85887584Y-55222098D01*
X85843380Y-55110725D01*
X85807119Y-55016539D01*
X85780609Y-54943844D01*
X85765658Y-54896941D01*
X85763254Y-54880833D01*
X85782311Y-54860286D01*
X85824036Y-54826933D01*
X85879706Y-54787702D01*
X85884378Y-54784599D01*
X86028264Y-54669423D01*
X86144283Y-54535053D01*
X86231430Y-54385784D01*
X86288699Y-54225913D01*
X86315086Y-54059737D01*
X86309585Y-53891552D01*
X86271190Y-53725655D01*
X86198895Y-53566342D01*
X86177626Y-53531487D01*
X86066996Y-53390737D01*
X85936302Y-53277714D01*
X85790064Y-53193003D01*
X85632808Y-53137194D01*
X85469057Y-53110874D01*
X85303333Y-53114630D01*
X85140162Y-53149050D01*
X84984065Y-53214723D01*
X84839567Y-53312235D01*
X84794869Y-53351813D01*
X84681112Y-53475703D01*
X84598218Y-53606124D01*
X84541356Y-53752315D01*
X84509687Y-53897088D01*
X84501869Y-54059860D01*
X84527938Y-54223440D01*
X84585245Y-54382298D01*
X84671144Y-54530906D01*
X84782986Y-54663735D01*
X84918123Y-54775256D01*
X84935883Y-54787011D01*
X84992150Y-54825508D01*
X85034923Y-54858863D01*
X85055372Y-54880160D01*
X85055669Y-54880833D01*
X85051279Y-54903871D01*
X85033876Y-54956157D01*
X85005268Y-55033390D01*
X84967265Y-55131268D01*
X84921674Y-55245491D01*
X84870303Y-55371758D01*
X84814962Y-55505767D01*
X84757458Y-55643218D01*
X84699601Y-55779808D01*
X84643198Y-55911237D01*
X84590058Y-56033205D01*
X84541990Y-56141409D01*
X84500801Y-56231549D01*
X84468301Y-56299323D01*
X84446297Y-56340430D01*
X84437436Y-56351226D01*
X84410360Y-56342819D01*
X84359697Y-56320272D01*
X84294183Y-56287613D01*
X84258159Y-56268520D01*
X84105168Y-56185800D01*
X83922912Y-56309075D01*
X83829875Y-56372228D01*
X83728015Y-56441727D01*
X83632562Y-56507165D01*
X83584750Y-56540117D01*
X83517505Y-56585273D01*
X83460564Y-56621057D01*
X83421354Y-56642938D01*
X83408619Y-56647563D01*
X83390083Y-56635085D01*
X83349059Y-56600252D01*
X83289525Y-56546678D01*
X83215458Y-56477983D01*
X83130835Y-56397781D01*
X83077315Y-56346286D01*
X82983681Y-56254286D01*
X82902759Y-56171999D01*
X82837823Y-56102945D01*
X82792142Y-56050644D01*
X82768989Y-56018616D01*
X82766768Y-56012116D01*
X82777076Y-55987394D01*
X82805561Y-55937405D01*
X82849063Y-55867212D01*
X82904423Y-55781875D01*
X82968480Y-55686456D01*
X82986697Y-55659854D01*
X83053073Y-55563167D01*
X83112622Y-55476117D01*
X83162016Y-55403595D01*
X83197925Y-55350493D01*
X83217019Y-55321703D01*
X83218864Y-55318726D01*
X83216105Y-55295782D01*
X83201462Y-55245336D01*
X83177487Y-55174041D01*
X83146734Y-55088547D01*
X83111756Y-54995507D01*
X83075107Y-54901574D01*
X83039339Y-54813399D01*
X83007006Y-54737634D01*
X82980662Y-54680931D01*
X82962858Y-54649943D01*
X82961593Y-54648457D01*
X82950706Y-54639601D01*
X82932318Y-54630843D01*
X82902394Y-54621277D01*
X82856897Y-54609996D01*
X82791791Y-54596093D01*
X82703039Y-54578663D01*
X82586607Y-54556798D01*
X82438458Y-54529591D01*
X82406382Y-54523741D01*
X82311314Y-54505374D01*
X82228435Y-54487405D01*
X82165070Y-54471569D01*
X82128542Y-54459600D01*
X82123644Y-54456810D01*
X82115573Y-54432072D01*
X82109013Y-54376790D01*
X82103967Y-54297389D01*
X82100441Y-54200296D01*
X82098439Y-54091938D01*
X82097964Y-53978740D01*
X82099023Y-53867128D01*
X82101618Y-53763529D01*
X82105754Y-53674368D01*
X82111437Y-53606072D01*
X82118669Y-53565066D01*
X82123029Y-53556674D01*
X82147302Y-53548208D01*
X82202574Y-53534435D01*
X82283338Y-53516550D01*
X82384088Y-53495748D01*
X82499317Y-53473223D01*
X82562098Y-53461418D01*
X82681213Y-53439151D01*
X82787435Y-53418979D01*
X82875573Y-53401915D01*
X82940434Y-53388969D01*
X82976826Y-53381155D01*
X82982816Y-53379422D01*
X82992939Y-53359890D01*
X83014338Y-53312843D01*
X83044161Y-53245003D01*
X83079555Y-53163091D01*
X83117668Y-53073828D01*
X83155647Y-52983935D01*
X83190640Y-52900135D01*
X83219794Y-52829147D01*
X83240257Y-52777694D01*
X83249177Y-52752497D01*
X83249343Y-52751396D01*
X83239231Y-52731519D01*
X83210883Y-52685777D01*
X83167277Y-52618717D01*
X83111394Y-52534884D01*
X83046213Y-52438826D01*
X83008321Y-52383650D01*
X82939275Y-52282481D01*
X82877950Y-52190630D01*
X82827337Y-52112744D01*
X82790429Y-52053469D01*
X82770218Y-52017451D01*
X82767299Y-52009377D01*
X82779847Y-51990584D01*
X82814537Y-51950457D01*
X82866937Y-51893493D01*
X82932616Y-51824185D01*
X83007144Y-51747031D01*
X83086087Y-51666525D01*
X83165017Y-51587163D01*
X83239500Y-51513440D01*
X83305106Y-51449852D01*
X83357404Y-51400894D01*
X83391961Y-51371061D01*
X83403522Y-51363942D01*
X83422346Y-51373953D01*
X83467369Y-51402078D01*
X83534213Y-51445454D01*
X83618501Y-51501218D01*
X83715856Y-51566506D01*
X83789293Y-51616246D01*
X84160333Y-51868551D01*
X84778905Y-51613555D01*
X84862725Y-51168931D01*
X84946546Y-50724307D01*
X85871994Y-50724307D01*
X85955814Y-51168931D01*
X85955814Y-51168931D01*
G37*
X85955814Y-51168931D02*
X86039635Y-51613555D01*
X86348920Y-51741053D01*
X86658206Y-51868551D01*
X87029246Y-51616246D01*
X87133157Y-51545996D01*
X87227087Y-51483272D01*
X87306652Y-51430938D01*
X87367470Y-51391857D01*
X87405157Y-51368893D01*
X87415421Y-51363942D01*
X87433910Y-51376676D01*
X87473420Y-51411882D01*
X87529522Y-51465062D01*
X87597787Y-51531718D01*
X87673786Y-51607354D01*
X87753092Y-51687472D01*
X87831275Y-51767574D01*
X87903907Y-51843164D01*
X87966559Y-51909745D01*
X88014803Y-51962818D01*
X88044210Y-51997887D01*
X88051241Y-52009623D01*
X88041123Y-52031260D01*
X88012759Y-52078662D01*
X87969129Y-52147193D01*
X87913218Y-52232215D01*
X87848006Y-52329093D01*
X87810219Y-52384350D01*
X87741343Y-52485248D01*
X87680140Y-52576299D01*
X87629578Y-52652970D01*
X87592628Y-52710728D01*
X87572258Y-52745043D01*
X87569197Y-52752254D01*
X87576136Y-52772748D01*
X87595051Y-52820513D01*
X87623087Y-52888832D01*
X87657391Y-52970989D01*
X87695109Y-53060270D01*
X87733387Y-53149958D01*
X87769370Y-53233338D01*
X87800206Y-53303694D01*
X87823039Y-53354310D01*
X87835017Y-53378471D01*
X87835724Y-53379422D01*
X87854531Y-53384036D01*
X87904618Y-53394328D01*
X87980793Y-53409287D01*
X88077865Y-53427901D01*
X88190643Y-53449159D01*
X88256442Y-53461418D01*
X88376950Y-53484362D01*
X88485797Y-53506195D01*
X88577476Y-53525722D01*
X88646481Y-53541748D01*
X88687304Y-53553079D01*
X88695511Y-53556674D01*
X88703548Y-53581006D01*
X88710033Y-53635959D01*
X88714970Y-53715108D01*
X88718364Y-53812026D01*
X88720218Y-53920287D01*
X88720538Y-54033465D01*
X88719327Y-54145135D01*
X88716590Y-54248868D01*
X88712331Y-54338241D01*
X88706555Y-54406826D01*
X88699267Y-54448197D01*
X88694895Y-54456810D01*
X88668764Y-54467133D01*
X88613393Y-54481892D01*
X88536107Y-54499352D01*
X88444230Y-54517780D01*
X88412158Y-54523741D01*
X88257524Y-54552066D01*
X88135375Y-54574876D01*
X88041673Y-54593080D01*
X87972384Y-54607583D01*
X87923471Y-54619292D01*
X87890897Y-54629115D01*
X87870628Y-54637956D01*
X87858626Y-54646724D01*
X87856947Y-54648457D01*
X87840184Y-54676371D01*
X87814614Y-54730695D01*
X87782788Y-54804777D01*
X87747260Y-54891965D01*
X87710583Y-54985608D01*
X87675311Y-55079052D01*
X87643996Y-55165647D01*
X87619193Y-55238740D01*
X87603454Y-55291678D01*
X87599332Y-55317811D01*
X87599676Y-55318726D01*
X87613641Y-55340086D01*
X87645322Y-55387084D01*
X87691391Y-55454827D01*
X87748518Y-55538423D01*
X87813373Y-55632982D01*
X87831843Y-55659854D01*
X87897699Y-55757275D01*
X87955650Y-55846163D01*
X88002538Y-55921412D01*
X88035207Y-55977920D01*
X88050500Y-56010581D01*
X88051241Y-56014593D01*
X88038392Y-56035684D01*
X88002888Y-56077464D01*
X87949293Y-56135445D01*
X87882171Y-56205135D01*
X87806087Y-56282045D01*
X87725604Y-56361683D01*
X87645287Y-56439561D01*
X87569699Y-56511186D01*
X87503405Y-56572070D01*
X87450969Y-56617721D01*
X87416955Y-56643650D01*
X87407545Y-56647883D01*
X87385643Y-56637912D01*
X87340800Y-56611020D01*
X87280321Y-56571736D01*
X87233789Y-56540117D01*
X87149475Y-56482098D01*
X87049626Y-56413784D01*
X86949473Y-56345579D01*
X86895627Y-56309075D01*
X86713371Y-56185800D01*
X86560381Y-56268520D01*
X86490682Y-56304759D01*
X86431414Y-56332926D01*
X86391311Y-56348991D01*
X86381103Y-56351226D01*
X86368829Y-56334722D01*
X86344613Y-56288082D01*
X86310263Y-56215609D01*
X86267588Y-56121606D01*
X86218394Y-56010374D01*
X86164490Y-55886215D01*
X86107684Y-55753432D01*
X86049782Y-55616327D01*
X85992593Y-55479202D01*
X85937924Y-55346358D01*
X85887584Y-55222098D01*
X85843380Y-55110725D01*
X85807119Y-55016539D01*
X85780609Y-54943844D01*
X85765658Y-54896941D01*
X85763254Y-54880833D01*
X85782311Y-54860286D01*
X85824036Y-54826933D01*
X85879706Y-54787702D01*
X85884378Y-54784599D01*
X86028264Y-54669423D01*
X86144283Y-54535053D01*
X86231430Y-54385784D01*
X86288699Y-54225913D01*
X86315086Y-54059737D01*
X86309585Y-53891552D01*
X86271190Y-53725655D01*
X86198895Y-53566342D01*
X86177626Y-53531487D01*
X86066996Y-53390737D01*
X85936302Y-53277714D01*
X85790064Y-53193003D01*
X85632808Y-53137194D01*
X85469057Y-53110874D01*
X85303333Y-53114630D01*
X85140162Y-53149050D01*
X84984065Y-53214723D01*
X84839567Y-53312235D01*
X84794869Y-53351813D01*
X84681112Y-53475703D01*
X84598218Y-53606124D01*
X84541356Y-53752315D01*
X84509687Y-53897088D01*
X84501869Y-54059860D01*
X84527938Y-54223440D01*
X84585245Y-54382298D01*
X84671144Y-54530906D01*
X84782986Y-54663735D01*
X84918123Y-54775256D01*
X84935883Y-54787011D01*
X84992150Y-54825508D01*
X85034923Y-54858863D01*
X85055372Y-54880160D01*
X85055669Y-54880833D01*
X85051279Y-54903871D01*
X85033876Y-54956157D01*
X85005268Y-55033390D01*
X84967265Y-55131268D01*
X84921674Y-55245491D01*
X84870303Y-55371758D01*
X84814962Y-55505767D01*
X84757458Y-55643218D01*
X84699601Y-55779808D01*
X84643198Y-55911237D01*
X84590058Y-56033205D01*
X84541990Y-56141409D01*
X84500801Y-56231549D01*
X84468301Y-56299323D01*
X84446297Y-56340430D01*
X84437436Y-56351226D01*
X84410360Y-56342819D01*
X84359697Y-56320272D01*
X84294183Y-56287613D01*
X84258159Y-56268520D01*
X84105168Y-56185800D01*
X83922912Y-56309075D01*
X83829875Y-56372228D01*
X83728015Y-56441727D01*
X83632562Y-56507165D01*
X83584750Y-56540117D01*
X83517505Y-56585273D01*
X83460564Y-56621057D01*
X83421354Y-56642938D01*
X83408619Y-56647563D01*
X83390083Y-56635085D01*
X83349059Y-56600252D01*
X83289525Y-56546678D01*
X83215458Y-56477983D01*
X83130835Y-56397781D01*
X83077315Y-56346286D01*
X82983681Y-56254286D01*
X82902759Y-56171999D01*
X82837823Y-56102945D01*
X82792142Y-56050644D01*
X82768989Y-56018616D01*
X82766768Y-56012116D01*
X82777076Y-55987394D01*
X82805561Y-55937405D01*
X82849063Y-55867212D01*
X82904423Y-55781875D01*
X82968480Y-55686456D01*
X82986697Y-55659854D01*
X83053073Y-55563167D01*
X83112622Y-55476117D01*
X83162016Y-55403595D01*
X83197925Y-55350493D01*
X83217019Y-55321703D01*
X83218864Y-55318726D01*
X83216105Y-55295782D01*
X83201462Y-55245336D01*
X83177487Y-55174041D01*
X83146734Y-55088547D01*
X83111756Y-54995507D01*
X83075107Y-54901574D01*
X83039339Y-54813399D01*
X83007006Y-54737634D01*
X82980662Y-54680931D01*
X82962858Y-54649943D01*
X82961593Y-54648457D01*
X82950706Y-54639601D01*
X82932318Y-54630843D01*
X82902394Y-54621277D01*
X82856897Y-54609996D01*
X82791791Y-54596093D01*
X82703039Y-54578663D01*
X82586607Y-54556798D01*
X82438458Y-54529591D01*
X82406382Y-54523741D01*
X82311314Y-54505374D01*
X82228435Y-54487405D01*
X82165070Y-54471569D01*
X82128542Y-54459600D01*
X82123644Y-54456810D01*
X82115573Y-54432072D01*
X82109013Y-54376790D01*
X82103967Y-54297389D01*
X82100441Y-54200296D01*
X82098439Y-54091938D01*
X82097964Y-53978740D01*
X82099023Y-53867128D01*
X82101618Y-53763529D01*
X82105754Y-53674368D01*
X82111437Y-53606072D01*
X82118669Y-53565066D01*
X82123029Y-53556674D01*
X82147302Y-53548208D01*
X82202574Y-53534435D01*
X82283338Y-53516550D01*
X82384088Y-53495748D01*
X82499317Y-53473223D01*
X82562098Y-53461418D01*
X82681213Y-53439151D01*
X82787435Y-53418979D01*
X82875573Y-53401915D01*
X82940434Y-53388969D01*
X82976826Y-53381155D01*
X82982816Y-53379422D01*
X82992939Y-53359890D01*
X83014338Y-53312843D01*
X83044161Y-53245003D01*
X83079555Y-53163091D01*
X83117668Y-53073828D01*
X83155647Y-52983935D01*
X83190640Y-52900135D01*
X83219794Y-52829147D01*
X83240257Y-52777694D01*
X83249177Y-52752497D01*
X83249343Y-52751396D01*
X83239231Y-52731519D01*
X83210883Y-52685777D01*
X83167277Y-52618717D01*
X83111394Y-52534884D01*
X83046213Y-52438826D01*
X83008321Y-52383650D01*
X82939275Y-52282481D01*
X82877950Y-52190630D01*
X82827337Y-52112744D01*
X82790429Y-52053469D01*
X82770218Y-52017451D01*
X82767299Y-52009377D01*
X82779847Y-51990584D01*
X82814537Y-51950457D01*
X82866937Y-51893493D01*
X82932616Y-51824185D01*
X83007144Y-51747031D01*
X83086087Y-51666525D01*
X83165017Y-51587163D01*
X83239500Y-51513440D01*
X83305106Y-51449852D01*
X83357404Y-51400894D01*
X83391961Y-51371061D01*
X83403522Y-51363942D01*
X83422346Y-51373953D01*
X83467369Y-51402078D01*
X83534213Y-51445454D01*
X83618501Y-51501218D01*
X83715856Y-51566506D01*
X83789293Y-51616246D01*
X84160333Y-51868551D01*
X84778905Y-51613555D01*
X84862725Y-51168931D01*
X84946546Y-50724307D01*
X85871994Y-50724307D01*
X85955814Y-51168931D01*
G36*
X69555044Y-44217332D02*
G01*
X69556280Y-44156364D01*
X69558706Y-44113520D01*
X69562623Y-44085162D01*
X69568333Y-44067657D01*
X69574657Y-44058758D01*
X69582579Y-44053437D01*
X69596274Y-44049137D01*
X69618225Y-44045751D01*
X69650916Y-44043176D01*
X69696834Y-44041307D01*
X69758461Y-44040040D01*
X69838283Y-44039270D01*
X69938784Y-44038892D01*
X70048938Y-44038800D01*
X70168804Y-44038871D01*
X70265826Y-44039168D01*
X70342564Y-44039814D01*
X70401572Y-44040936D01*
X70445410Y-44042657D01*
X70476634Y-44045104D01*
X70497801Y-44048401D01*
X70511468Y-44052673D01*
X70520193Y-44058044D01*
X70524281Y-44062026D01*
X70532116Y-44074073D01*
X70537776Y-44092788D01*
X70541593Y-44121973D01*
X70543899Y-44165430D01*
X70545023Y-44226961D01*
X70545300Y-44303326D01*
X70545300Y-44521400D01*
X69554700Y-44521400D01*
X69554700Y-44300058D01*
X69555044Y-44217332D01*
X69555044Y-44217332D01*
G37*
X69555044Y-44217332D02*
X69556280Y-44156364D01*
X69558706Y-44113520D01*
X69562623Y-44085162D01*
X69568333Y-44067657D01*
X69574657Y-44058758D01*
X69582579Y-44053437D01*
X69596274Y-44049137D01*
X69618225Y-44045751D01*
X69650916Y-44043176D01*
X69696834Y-44041307D01*
X69758461Y-44040040D01*
X69838283Y-44039270D01*
X69938784Y-44038892D01*
X70048938Y-44038800D01*
X70168804Y-44038871D01*
X70265826Y-44039168D01*
X70342564Y-44039814D01*
X70401572Y-44040936D01*
X70445410Y-44042657D01*
X70476634Y-44045104D01*
X70497801Y-44048401D01*
X70511468Y-44052673D01*
X70520193Y-44058044D01*
X70524281Y-44062026D01*
X70532116Y-44074073D01*
X70537776Y-44092788D01*
X70541593Y-44121973D01*
X70543899Y-44165430D01*
X70545023Y-44226961D01*
X70545300Y-44303326D01*
X70545300Y-44521400D01*
X69554700Y-44521400D01*
X69554700Y-44300058D01*
X69555044Y-44217332D01*
G36*
X70545300Y-44673800D02*
G01*
X70545300Y-45156400D01*
X69554700Y-45156400D01*
X69554700Y-44673800D01*
X70545300Y-44673800D01*
X70545300Y-44673800D01*
G37*
X70545300Y-44673800D02*
X70545300Y-45156400D01*
X69554700Y-45156400D01*
X69554700Y-44673800D01*
X70545300Y-44673800D01*
G36*
X69554700Y-45308800D02*
G01*
X70545300Y-45308800D01*
X70545300Y-45522732D01*
X70545046Y-45602222D01*
X70544028Y-45660215D01*
X70541860Y-45700615D01*
X70538157Y-45727322D01*
X70532532Y-45744238D01*
X70524600Y-45755264D01*
X70522074Y-45757682D01*
X70513710Y-45763276D01*
X70500555Y-45767793D01*
X70480068Y-45771345D01*
X70449706Y-45774045D01*
X70406929Y-45776006D01*
X70349192Y-45777339D01*
X70273956Y-45778158D01*
X70178676Y-45778574D01*
X70060812Y-45778700D01*
X70046732Y-45778700D01*
X69925816Y-45778585D01*
X69827809Y-45778170D01*
X69750219Y-45777349D01*
X69690555Y-45776016D01*
X69646327Y-45774068D01*
X69615043Y-45771398D01*
X69594213Y-45767900D01*
X69581346Y-45763471D01*
X69574657Y-45758743D01*
X69567126Y-45747310D01*
X69561697Y-45727920D01*
X69558056Y-45696881D01*
X69555889Y-45650504D01*
X69554882Y-45585097D01*
X69554699Y-45523793D01*
X69554700Y-45308800D01*
X69554700Y-45308800D01*
G37*
X69554700Y-45308800D02*
X70545300Y-45308800D01*
X70545300Y-45522732D01*
X70545046Y-45602222D01*
X70544028Y-45660215D01*
X70541860Y-45700615D01*
X70538157Y-45727322D01*
X70532532Y-45744238D01*
X70524600Y-45755264D01*
X70522074Y-45757682D01*
X70513710Y-45763276D01*
X70500555Y-45767793D01*
X70480068Y-45771345D01*
X70449706Y-45774045D01*
X70406929Y-45776006D01*
X70349192Y-45777339D01*
X70273956Y-45778158D01*
X70178676Y-45778574D01*
X70060812Y-45778700D01*
X70046732Y-45778700D01*
X69925816Y-45778585D01*
X69827809Y-45778170D01*
X69750219Y-45777349D01*
X69690555Y-45776016D01*
X69646327Y-45774068D01*
X69615043Y-45771398D01*
X69594213Y-45767900D01*
X69581346Y-45763471D01*
X69574657Y-45758743D01*
X69567126Y-45747310D01*
X69561697Y-45727920D01*
X69558056Y-45696881D01*
X69555889Y-45650504D01*
X69554882Y-45585097D01*
X69554699Y-45523793D01*
X69554700Y-45308800D01*
G36*
X69356730Y-43826784D02*
G01*
X69372106Y-43810520D01*
X69388454Y-43799900D01*
X69411576Y-43793460D01*
X69447277Y-43789740D01*
X69501360Y-43787276D01*
X69515480Y-43786785D01*
X69643599Y-43782420D01*
X69643599Y-43646450D01*
X69645151Y-43573587D01*
X69649728Y-43523491D01*
X69657217Y-43497302D01*
X69658840Y-43495240D01*
X69675900Y-43490609D01*
X69714449Y-43486748D01*
X69770584Y-43483658D01*
X69840406Y-43481339D01*
X69920013Y-43479791D01*
X70005505Y-43479014D01*
X70092982Y-43479007D01*
X70178541Y-43479771D01*
X70258284Y-43481306D01*
X70328309Y-43483612D01*
X70384715Y-43486688D01*
X70423602Y-43490535D01*
X70441069Y-43495154D01*
X70441159Y-43495240D01*
X70449152Y-43517075D01*
X70454254Y-43563017D01*
X70456350Y-43631929D01*
X70456400Y-43646450D01*
X70456400Y-43782420D01*
X70584519Y-43786785D01*
X70643162Y-43789172D01*
X70682215Y-43792510D01*
X70707479Y-43798262D01*
X70724760Y-43807890D01*
X70739859Y-43822858D01*
X70743269Y-43826784D01*
X70773900Y-43862417D01*
X70773900Y-45957655D01*
X70742727Y-45988828D01*
X70711554Y-46020000D01*
X69453100Y-46020000D01*
X69453100Y-45893000D01*
X70646900Y-45893000D01*
X70646900Y-43911800D01*
X69770600Y-43911800D01*
X69770600Y-43784800D01*
X70329400Y-43784800D01*
X70329400Y-43607000D01*
X69770600Y-43607000D01*
X69770600Y-43784800D01*
X69770600Y-43911800D01*
X69453100Y-43911800D01*
X69453100Y-45893000D01*
X69453100Y-46020000D01*
X69388445Y-46020000D01*
X69357272Y-45988828D01*
X69326100Y-45957655D01*
X69326100Y-43862417D01*
X69356730Y-43826784D01*
X69356730Y-43826784D01*
G37*
X69356730Y-43826784D02*
X69372106Y-43810520D01*
X69388454Y-43799900D01*
X69411576Y-43793460D01*
X69447277Y-43789740D01*
X69501360Y-43787276D01*
X69515480Y-43786785D01*
X69643599Y-43782420D01*
X69643599Y-43646450D01*
X69645151Y-43573587D01*
X69649728Y-43523491D01*
X69657217Y-43497302D01*
X69658840Y-43495240D01*
X69675900Y-43490609D01*
X69714449Y-43486748D01*
X69770584Y-43483658D01*
X69840406Y-43481339D01*
X69920013Y-43479791D01*
X70005505Y-43479014D01*
X70092982Y-43479007D01*
X70178541Y-43479771D01*
X70258284Y-43481306D01*
X70328309Y-43483612D01*
X70384715Y-43486688D01*
X70423602Y-43490535D01*
X70441069Y-43495154D01*
X70441159Y-43495240D01*
X70449152Y-43517075D01*
X70454254Y-43563017D01*
X70456350Y-43631929D01*
X70456400Y-43646450D01*
X70456400Y-43782420D01*
X70584519Y-43786785D01*
X70643162Y-43789172D01*
X70682215Y-43792510D01*
X70707479Y-43798262D01*
X70724760Y-43807890D01*
X70739859Y-43822858D01*
X70743269Y-43826784D01*
X70773900Y-43862417D01*
X70773900Y-45957655D01*
X70742727Y-45988828D01*
X70711554Y-46020000D01*
X69453100Y-46020000D01*
X69453100Y-45893000D01*
X70646900Y-45893000D01*
X70646900Y-43911800D01*
X69770600Y-43911800D01*
X69770600Y-43784800D01*
X70329400Y-43784800D01*
X70329400Y-43607000D01*
X69770600Y-43607000D01*
X69770600Y-43784800D01*
X69770600Y-43911800D01*
X69453100Y-43911800D01*
X69453100Y-45893000D01*
X69453100Y-46020000D01*
X69388445Y-46020000D01*
X69357272Y-45988828D01*
X69326100Y-45957655D01*
X69326100Y-43862417D01*
X69356730Y-43826784D01*
G36*
X70495300Y-39823800D02*
G01*
X70495300Y-40306400D01*
X69504700Y-40306400D01*
X69504700Y-39823800D01*
X70495300Y-39823800D01*
X70495300Y-39823800D01*
G37*
X70495300Y-39823800D02*
X70495300Y-40306400D01*
X69504700Y-40306400D01*
X69504700Y-39823800D01*
X70495300Y-39823800D01*
G36*
X69504700Y-40458800D02*
G01*
X70495300Y-40458800D01*
X70495300Y-40672732D01*
X70495046Y-40752222D01*
X70494028Y-40810215D01*
X70491860Y-40850615D01*
X70488157Y-40877322D01*
X70482532Y-40894238D01*
X70474600Y-40905264D01*
X70472074Y-40907682D01*
X70463700Y-40913282D01*
X70450532Y-40917802D01*
X70430025Y-40921356D01*
X70399632Y-40924056D01*
X70356810Y-40926016D01*
X70299012Y-40927347D01*
X70223693Y-40928163D01*
X70128308Y-40928576D01*
X70010312Y-40928700D01*
X69997793Y-40928700D01*
X69878396Y-40928629D01*
X69781832Y-40928329D01*
X69705534Y-40927675D01*
X69646934Y-40926541D01*
X69603464Y-40924800D01*
X69572559Y-40922327D01*
X69551650Y-40918993D01*
X69538171Y-40914675D01*
X69529554Y-40909244D01*
X69525718Y-40905475D01*
X69517774Y-40893230D01*
X69512068Y-40874201D01*
X69508255Y-40844522D01*
X69505987Y-40800328D01*
X69504921Y-40737754D01*
X69504699Y-40670525D01*
X69504700Y-40458800D01*
X69504700Y-40458800D01*
G37*
X69504700Y-40458800D02*
X70495300Y-40458800D01*
X70495300Y-40672732D01*
X70495046Y-40752222D01*
X70494028Y-40810215D01*
X70491860Y-40850615D01*
X70488157Y-40877322D01*
X70482532Y-40894238D01*
X70474600Y-40905264D01*
X70472074Y-40907682D01*
X70463700Y-40913282D01*
X70450532Y-40917802D01*
X70430025Y-40921356D01*
X70399632Y-40924056D01*
X70356810Y-40926016D01*
X70299012Y-40927347D01*
X70223693Y-40928163D01*
X70128308Y-40928576D01*
X70010312Y-40928700D01*
X69997793Y-40928700D01*
X69878396Y-40928629D01*
X69781832Y-40928329D01*
X69705534Y-40927675D01*
X69646934Y-40926541D01*
X69603464Y-40924800D01*
X69572559Y-40922327D01*
X69551650Y-40918993D01*
X69538171Y-40914675D01*
X69529554Y-40909244D01*
X69525718Y-40905475D01*
X69517774Y-40893230D01*
X69512068Y-40874201D01*
X69508255Y-40844522D01*
X69505987Y-40800328D01*
X69504921Y-40737754D01*
X69504699Y-40670525D01*
X69504700Y-40458800D01*
G36*
X69306730Y-38976784D02*
G01*
X69322106Y-38960520D01*
X69338454Y-38949900D01*
X69361576Y-38943460D01*
X69397277Y-38939740D01*
X69451360Y-38937276D01*
X69465480Y-38936785D01*
X69593599Y-38932420D01*
X69593599Y-38796450D01*
X69595151Y-38723587D01*
X69599728Y-38673491D01*
X69607217Y-38647302D01*
X69608840Y-38645240D01*
X69625900Y-38640609D01*
X69664449Y-38636748D01*
X69720584Y-38633658D01*
X69790406Y-38631339D01*
X69870013Y-38629791D01*
X69955505Y-38629014D01*
X70042982Y-38629007D01*
X70128541Y-38629771D01*
X70208284Y-38631306D01*
X70278309Y-38633612D01*
X70334715Y-38636688D01*
X70373602Y-38640535D01*
X70391069Y-38645154D01*
X70391159Y-38645240D01*
X70399152Y-38667075D01*
X70404254Y-38713017D01*
X70406350Y-38781929D01*
X70406400Y-38796450D01*
X70406400Y-38932420D01*
X70534519Y-38936785D01*
X70593162Y-38939172D01*
X70632215Y-38942510D01*
X70657479Y-38948262D01*
X70674760Y-38957890D01*
X70689859Y-38972858D01*
X70693269Y-38976784D01*
X70723900Y-39012417D01*
X70723900Y-41107655D01*
X70692727Y-41138828D01*
X70661554Y-41170000D01*
X69403100Y-41170000D01*
X69403100Y-41043000D01*
X70596900Y-41043000D01*
X70596900Y-39061800D01*
X69720600Y-39061800D01*
X69720600Y-38934800D01*
X70279400Y-38934800D01*
X70279400Y-38757000D01*
X69720600Y-38757000D01*
X69720600Y-38934800D01*
X69720600Y-39061800D01*
X69403100Y-39061800D01*
X69403100Y-41043000D01*
X69403100Y-41170000D01*
X69338445Y-41170000D01*
X69307272Y-41138828D01*
X69276100Y-41107655D01*
X69276100Y-39012417D01*
X69306730Y-38976784D01*
X69306730Y-38976784D01*
G37*
X69306730Y-38976784D02*
X69322106Y-38960520D01*
X69338454Y-38949900D01*
X69361576Y-38943460D01*
X69397277Y-38939740D01*
X69451360Y-38937276D01*
X69465480Y-38936785D01*
X69593599Y-38932420D01*
X69593599Y-38796450D01*
X69595151Y-38723587D01*
X69599728Y-38673491D01*
X69607217Y-38647302D01*
X69608840Y-38645240D01*
X69625900Y-38640609D01*
X69664449Y-38636748D01*
X69720584Y-38633658D01*
X69790406Y-38631339D01*
X69870013Y-38629791D01*
X69955505Y-38629014D01*
X70042982Y-38629007D01*
X70128541Y-38629771D01*
X70208284Y-38631306D01*
X70278309Y-38633612D01*
X70334715Y-38636688D01*
X70373602Y-38640535D01*
X70391069Y-38645154D01*
X70391159Y-38645240D01*
X70399152Y-38667075D01*
X70404254Y-38713017D01*
X70406350Y-38781929D01*
X70406400Y-38796450D01*
X70406400Y-38932420D01*
X70534519Y-38936785D01*
X70593162Y-38939172D01*
X70632215Y-38942510D01*
X70657479Y-38948262D01*
X70674760Y-38957890D01*
X70689859Y-38972858D01*
X70693269Y-38976784D01*
X70723900Y-39012417D01*
X70723900Y-41107655D01*
X70692727Y-41138828D01*
X70661554Y-41170000D01*
X69403100Y-41170000D01*
X69403100Y-41043000D01*
X70596900Y-41043000D01*
X70596900Y-39061800D01*
X69720600Y-39061800D01*
X69720600Y-38934800D01*
X70279400Y-38934800D01*
X70279400Y-38757000D01*
X69720600Y-38757000D01*
X69720600Y-38934800D01*
X69720600Y-39061800D01*
X69403100Y-39061800D01*
X69403100Y-41043000D01*
X69403100Y-41170000D01*
X69338445Y-41170000D01*
X69307272Y-41138828D01*
X69276100Y-41107655D01*
X69276100Y-39012417D01*
X69306730Y-38976784D01*
G36*
X79491753Y-33859525D02*
G01*
X79617031Y-33860260D01*
X79664115Y-33860645D01*
X80175013Y-33865133D01*
X79888806Y-34329888D01*
X79819643Y-34442466D01*
X79756726Y-34545393D01*
X79702123Y-34635247D01*
X79657900Y-34708606D01*
X79626125Y-34762046D01*
X79608865Y-34792146D01*
X79606332Y-34797575D01*
X79623442Y-34800074D01*
X79670095Y-34805747D01*
X79742167Y-34814121D01*
X79835531Y-34824726D01*
X79946062Y-34837090D01*
X80069634Y-34850743D01*
X80122299Y-34856514D01*
X80249782Y-34870885D01*
X80365689Y-34884781D01*
X80465932Y-34897645D01*
X80546421Y-34908922D01*
X80603068Y-34918056D01*
X80631783Y-34924489D01*
X80634533Y-34926207D01*
X80624001Y-34940791D01*
X80593670Y-34979092D01*
X80545436Y-35038824D01*
X80481194Y-35117697D01*
X80402839Y-35213426D01*
X80312269Y-35323721D01*
X80211378Y-35446295D01*
X80102062Y-35578862D01*
X79986216Y-35719132D01*
X79865738Y-35864818D01*
X79742522Y-36013633D01*
X79618464Y-36163290D01*
X79495460Y-36311499D01*
X79375406Y-36455974D01*
X79260197Y-36594427D01*
X79151729Y-36724571D01*
X79051899Y-36844117D01*
X78962600Y-36950779D01*
X78885731Y-37042267D01*
X78823185Y-37116295D01*
X78776859Y-37170576D01*
X78748649Y-37202820D01*
X78742436Y-37209466D01*
X78700081Y-37251800D01*
X78710022Y-37209466D01*
X78717585Y-37185424D01*
X78735441Y-37132785D01*
X78762442Y-37054825D01*
X78797434Y-36954823D01*
X78839267Y-36836055D01*
X78886791Y-36701798D01*
X78938854Y-36555328D01*
X78994304Y-36399924D01*
X78998496Y-36388200D01*
X79053415Y-36233911D01*
X79104290Y-36089613D01*
X79150073Y-35958376D01*
X79189717Y-35843270D01*
X79222174Y-35747364D01*
X79246395Y-35673730D01*
X79261333Y-35625436D01*
X79265941Y-35605553D01*
X79265747Y-35605221D01*
X79246475Y-35602574D01*
X79198117Y-35597234D01*
X79125310Y-35589675D01*
X79032685Y-35580369D01*
X78924877Y-35569792D01*
X78825662Y-35560240D01*
X78708724Y-35548732D01*
X78603144Y-35537686D01*
X78513540Y-35527636D01*
X78444531Y-35519120D01*
X78400735Y-35512675D01*
X78386799Y-35509244D01*
X78391517Y-35492295D01*
X78408983Y-35448120D01*
X78437622Y-35380179D01*
X78475858Y-35291936D01*
X78522117Y-35186852D01*
X78574822Y-35068388D01*
X78632398Y-34940007D01*
X78693269Y-34805171D01*
X78755861Y-34667340D01*
X78818597Y-34529978D01*
X78879903Y-34396546D01*
X78938202Y-34270505D01*
X78991920Y-34155317D01*
X79039480Y-34054446D01*
X79079307Y-33971351D01*
X79109827Y-33909495D01*
X79129463Y-33872340D01*
X79136108Y-33862763D01*
X79156761Y-33861251D01*
X79206965Y-33860153D01*
X79282407Y-33859488D01*
X79378774Y-33859273D01*
X79491753Y-33859525D01*
X79491753Y-33859525D01*
G37*
X79491753Y-33859525D02*
X79617031Y-33860260D01*
X79664115Y-33860645D01*
X80175013Y-33865133D01*
X79888806Y-34329888D01*
X79819643Y-34442466D01*
X79756726Y-34545393D01*
X79702123Y-34635247D01*
X79657900Y-34708606D01*
X79626125Y-34762046D01*
X79608865Y-34792146D01*
X79606332Y-34797575D01*
X79623442Y-34800074D01*
X79670095Y-34805747D01*
X79742167Y-34814121D01*
X79835531Y-34824726D01*
X79946062Y-34837090D01*
X80069634Y-34850743D01*
X80122299Y-34856514D01*
X80249782Y-34870885D01*
X80365689Y-34884781D01*
X80465932Y-34897645D01*
X80546421Y-34908922D01*
X80603068Y-34918056D01*
X80631783Y-34924489D01*
X80634533Y-34926207D01*
X80624001Y-34940791D01*
X80593670Y-34979092D01*
X80545436Y-35038824D01*
X80481194Y-35117697D01*
X80402839Y-35213426D01*
X80312269Y-35323721D01*
X80211378Y-35446295D01*
X80102062Y-35578862D01*
X79986216Y-35719132D01*
X79865738Y-35864818D01*
X79742522Y-36013633D01*
X79618464Y-36163290D01*
X79495460Y-36311499D01*
X79375406Y-36455974D01*
X79260197Y-36594427D01*
X79151729Y-36724571D01*
X79051899Y-36844117D01*
X78962600Y-36950779D01*
X78885731Y-37042267D01*
X78823185Y-37116295D01*
X78776859Y-37170576D01*
X78748649Y-37202820D01*
X78742436Y-37209466D01*
X78700081Y-37251800D01*
X78710022Y-37209466D01*
X78717585Y-37185424D01*
X78735441Y-37132785D01*
X78762442Y-37054825D01*
X78797434Y-36954823D01*
X78839267Y-36836055D01*
X78886791Y-36701798D01*
X78938854Y-36555328D01*
X78994304Y-36399924D01*
X78998496Y-36388200D01*
X79053415Y-36233911D01*
X79104290Y-36089613D01*
X79150073Y-35958376D01*
X79189717Y-35843270D01*
X79222174Y-35747364D01*
X79246395Y-35673730D01*
X79261333Y-35625436D01*
X79265941Y-35605553D01*
X79265747Y-35605221D01*
X79246475Y-35602574D01*
X79198117Y-35597234D01*
X79125310Y-35589675D01*
X79032685Y-35580369D01*
X78924877Y-35569792D01*
X78825662Y-35560240D01*
X78708724Y-35548732D01*
X78603144Y-35537686D01*
X78513540Y-35527636D01*
X78444531Y-35519120D01*
X78400735Y-35512675D01*
X78386799Y-35509244D01*
X78391517Y-35492295D01*
X78408983Y-35448120D01*
X78437622Y-35380179D01*
X78475858Y-35291936D01*
X78522117Y-35186852D01*
X78574822Y-35068388D01*
X78632398Y-34940007D01*
X78693269Y-34805171D01*
X78755861Y-34667340D01*
X78818597Y-34529978D01*
X78879903Y-34396546D01*
X78938202Y-34270505D01*
X78991920Y-34155317D01*
X79039480Y-34054446D01*
X79079307Y-33971351D01*
X79109827Y-33909495D01*
X79129463Y-33872340D01*
X79136108Y-33862763D01*
X79156761Y-33861251D01*
X79206965Y-33860153D01*
X79282407Y-33859488D01*
X79378774Y-33859273D01*
X79491753Y-33859525D01*
G36*
X66891753Y-33959525D02*
G01*
X67017031Y-33960260D01*
X67064115Y-33960645D01*
X67575013Y-33965133D01*
X67288806Y-34429888D01*
X67219643Y-34542466D01*
X67156726Y-34645393D01*
X67102123Y-34735247D01*
X67057900Y-34808606D01*
X67026125Y-34862046D01*
X67008865Y-34892146D01*
X67006332Y-34897575D01*
X67023442Y-34900074D01*
X67070095Y-34905747D01*
X67142167Y-34914121D01*
X67235531Y-34924726D01*
X67346062Y-34937090D01*
X67469634Y-34950743D01*
X67522299Y-34956514D01*
X67649782Y-34970885D01*
X67765689Y-34984781D01*
X67865932Y-34997645D01*
X67946421Y-35008922D01*
X68003068Y-35018056D01*
X68031783Y-35024489D01*
X68034533Y-35026207D01*
X68024001Y-35040791D01*
X67993670Y-35079092D01*
X67945436Y-35138824D01*
X67881194Y-35217697D01*
X67802839Y-35313426D01*
X67712269Y-35423721D01*
X67611378Y-35546295D01*
X67502062Y-35678862D01*
X67386216Y-35819132D01*
X67265738Y-35964818D01*
X67142522Y-36113633D01*
X67018464Y-36263290D01*
X66895460Y-36411499D01*
X66775406Y-36555974D01*
X66660197Y-36694427D01*
X66551729Y-36824571D01*
X66451899Y-36944117D01*
X66362600Y-37050779D01*
X66285731Y-37142267D01*
X66223185Y-37216295D01*
X66176859Y-37270576D01*
X66148649Y-37302820D01*
X66142436Y-37309466D01*
X66100081Y-37351800D01*
X66110022Y-37309466D01*
X66117585Y-37285424D01*
X66135441Y-37232785D01*
X66162442Y-37154825D01*
X66197434Y-37054823D01*
X66239267Y-36936055D01*
X66286791Y-36801798D01*
X66338854Y-36655328D01*
X66394304Y-36499924D01*
X66398496Y-36488200D01*
X66453415Y-36333911D01*
X66504290Y-36189613D01*
X66550073Y-36058376D01*
X66589717Y-35943270D01*
X66622174Y-35847364D01*
X66646395Y-35773730D01*
X66661333Y-35725436D01*
X66665941Y-35705553D01*
X66665747Y-35705221D01*
X66646475Y-35702574D01*
X66598117Y-35697234D01*
X66525310Y-35689675D01*
X66432685Y-35680369D01*
X66324877Y-35669792D01*
X66225662Y-35660240D01*
X66108724Y-35648732D01*
X66003144Y-35637686D01*
X65913540Y-35627636D01*
X65844531Y-35619120D01*
X65800735Y-35612675D01*
X65786799Y-35609244D01*
X65791517Y-35592295D01*
X65808983Y-35548120D01*
X65837622Y-35480179D01*
X65875858Y-35391936D01*
X65922117Y-35286852D01*
X65974822Y-35168388D01*
X66032398Y-35040007D01*
X66093269Y-34905171D01*
X66155861Y-34767340D01*
X66218597Y-34629978D01*
X66279903Y-34496546D01*
X66338202Y-34370505D01*
X66391920Y-34255317D01*
X66439480Y-34154446D01*
X66479307Y-34071351D01*
X66509827Y-34009495D01*
X66529463Y-33972340D01*
X66536108Y-33962763D01*
X66556761Y-33961251D01*
X66606965Y-33960153D01*
X66682407Y-33959488D01*
X66778774Y-33959273D01*
X66891753Y-33959525D01*
X66891753Y-33959525D01*
G37*
X66891753Y-33959525D02*
X67017031Y-33960260D01*
X67064115Y-33960645D01*
X67575013Y-33965133D01*
X67288806Y-34429888D01*
X67219643Y-34542466D01*
X67156726Y-34645393D01*
X67102123Y-34735247D01*
X67057900Y-34808606D01*
X67026125Y-34862046D01*
X67008865Y-34892146D01*
X67006332Y-34897575D01*
X67023442Y-34900074D01*
X67070095Y-34905747D01*
X67142167Y-34914121D01*
X67235531Y-34924726D01*
X67346062Y-34937090D01*
X67469634Y-34950743D01*
X67522299Y-34956514D01*
X67649782Y-34970885D01*
X67765689Y-34984781D01*
X67865932Y-34997645D01*
X67946421Y-35008922D01*
X68003068Y-35018056D01*
X68031783Y-35024489D01*
X68034533Y-35026207D01*
X68024001Y-35040791D01*
X67993670Y-35079092D01*
X67945436Y-35138824D01*
X67881194Y-35217697D01*
X67802839Y-35313426D01*
X67712269Y-35423721D01*
X67611378Y-35546295D01*
X67502062Y-35678862D01*
X67386216Y-35819132D01*
X67265738Y-35964818D01*
X67142522Y-36113633D01*
X67018464Y-36263290D01*
X66895460Y-36411499D01*
X66775406Y-36555974D01*
X66660197Y-36694427D01*
X66551729Y-36824571D01*
X66451899Y-36944117D01*
X66362600Y-37050779D01*
X66285731Y-37142267D01*
X66223185Y-37216295D01*
X66176859Y-37270576D01*
X66148649Y-37302820D01*
X66142436Y-37309466D01*
X66100081Y-37351800D01*
X66110022Y-37309466D01*
X66117585Y-37285424D01*
X66135441Y-37232785D01*
X66162442Y-37154825D01*
X66197434Y-37054823D01*
X66239267Y-36936055D01*
X66286791Y-36801798D01*
X66338854Y-36655328D01*
X66394304Y-36499924D01*
X66398496Y-36488200D01*
X66453415Y-36333911D01*
X66504290Y-36189613D01*
X66550073Y-36058376D01*
X66589717Y-35943270D01*
X66622174Y-35847364D01*
X66646395Y-35773730D01*
X66661333Y-35725436D01*
X66665941Y-35705553D01*
X66665747Y-35705221D01*
X66646475Y-35702574D01*
X66598117Y-35697234D01*
X66525310Y-35689675D01*
X66432685Y-35680369D01*
X66324877Y-35669792D01*
X66225662Y-35660240D01*
X66108724Y-35648732D01*
X66003144Y-35637686D01*
X65913540Y-35627636D01*
X65844531Y-35619120D01*
X65800735Y-35612675D01*
X65786799Y-35609244D01*
X65791517Y-35592295D01*
X65808983Y-35548120D01*
X65837622Y-35480179D01*
X65875858Y-35391936D01*
X65922117Y-35286852D01*
X65974822Y-35168388D01*
X66032398Y-35040007D01*
X66093269Y-34905171D01*
X66155861Y-34767340D01*
X66218597Y-34629978D01*
X66279903Y-34496546D01*
X66338202Y-34370505D01*
X66391920Y-34255317D01*
X66439480Y-34154446D01*
X66479307Y-34071351D01*
X66509827Y-34009495D01*
X66529463Y-33972340D01*
X66536108Y-33962763D01*
X66556761Y-33961251D01*
X66606965Y-33960153D01*
X66682407Y-33959488D01*
X66778774Y-33959273D01*
X66891753Y-33959525D01*
D11*
X63303922Y-45410000D02*
X63821078Y-45410000D01*
X63303922Y-43990000D02*
X63821078Y-43990000D01*
X74847500Y-43940000D02*
X72162500Y-43940000D01*
X74847500Y-45860000D02*
X74847500Y-43940000D01*
X72162500Y-45860000D02*
X74847500Y-45860000D01*
D14*
X92400000Y-40800000D02*
X92400000Y-49200000D01*
X86500000Y-41000000D02*
X86500000Y-40500000D01*
X87000000Y-41500000D02*
X86500000Y-41000000D01*
X87000000Y-48500000D02*
X87000000Y-41500000D01*
X86500000Y-49000000D02*
X87000000Y-48500000D01*
X86500000Y-49500000D02*
X86500000Y-49000000D01*
X93300000Y-40500000D02*
X93300000Y-49500000D01*
X86500000Y-40500000D02*
X93300000Y-40500000D01*
X86500000Y-49500000D02*
X93300000Y-49500000D01*
D11*
X57100000Y-49860000D02*
X59550000Y-49860000D01*
X58900000Y-46640000D02*
X57100000Y-46640000D01*
X80790000Y-47403922D02*
X80790000Y-47921078D01*
X82210000Y-47403922D02*
X82210000Y-47921078D01*
X82210000Y-42321078D02*
X82210000Y-41803922D01*
X80790000Y-42321078D02*
X80790000Y-41803922D01*
X63821078Y-40290000D02*
X63303922Y-40290000D01*
X63821078Y-41710000D02*
X63303922Y-41710000D01*
X57810000Y-42296078D02*
X57810000Y-41778922D01*
X56390000Y-42296078D02*
X56390000Y-41778922D01*
X71477500Y-40960000D02*
X74162500Y-40960000D01*
X71477500Y-39040000D02*
X71477500Y-40960000D01*
X74162500Y-39040000D02*
X71477500Y-39040000D01*
X72803922Y-52710000D02*
X73321078Y-52710000D01*
X72803922Y-51290000D02*
X73321078Y-51290000D01*
X63921078Y-48990000D02*
X63403922Y-48990000D01*
X63921078Y-50410000D02*
X63403922Y-50410000D01*
D15*
X63716666Y-46726190D02*
X63550000Y-46488095D01*
X63430952Y-46726190D02*
X63430952Y-46226190D01*
X63621428Y-46226190D01*
X63669047Y-46250000D01*
X63692857Y-46273809D01*
X63716666Y-46321428D01*
X63716666Y-46392857D01*
X63692857Y-46440476D01*
X63669047Y-46464285D01*
X63621428Y-46488095D01*
X63430952Y-46488095D01*
X64169047Y-46226190D02*
X63930952Y-46226190D01*
X63907142Y-46464285D01*
X63930952Y-46440476D01*
X63978571Y-46416666D01*
X64097619Y-46416666D01*
X64145238Y-46440476D01*
X64169047Y-46464285D01*
X64192857Y-46511904D01*
X64192857Y-46630952D01*
X64169047Y-46678571D01*
X64145238Y-46702380D01*
X64097619Y-46726190D01*
X63978571Y-46726190D01*
X63930952Y-46702380D01*
X63907142Y-46678571D01*
D10*
D15*
X75655952Y-45126190D02*
X75655952Y-44626190D01*
X75775000Y-44626190D01*
X75846428Y-44650000D01*
X75894047Y-44697619D01*
X75917857Y-44745238D01*
X75941666Y-44840476D01*
X75941666Y-44911904D01*
X75917857Y-45007142D01*
X75894047Y-45054761D01*
X75846428Y-45102380D01*
X75775000Y-45126190D01*
X75655952Y-45126190D01*
X76132142Y-44673809D02*
X76155952Y-44650000D01*
X76203571Y-44626190D01*
X76322619Y-44626190D01*
X76370238Y-44650000D01*
X76394047Y-44673809D01*
X76417857Y-44721428D01*
X76417857Y-44769047D01*
X76394047Y-44840476D01*
X76108333Y-45126190D01*
X76417857Y-45126190D01*
D14*
X91226190Y-45369047D02*
X90726190Y-45369047D01*
X90726190Y-45178571D01*
X90750000Y-45130952D01*
X90773809Y-45107142D01*
X90821428Y-45083333D01*
X90892857Y-45083333D01*
X90940476Y-45107142D01*
X90964285Y-45130952D01*
X90988095Y-45178571D01*
X90988095Y-45369047D01*
X91226190Y-44607142D02*
X91226190Y-44892857D01*
X91226190Y-44750000D02*
X90726190Y-44750000D01*
X90797619Y-44797619D01*
X90845238Y-44845238D01*
X90869047Y-44892857D01*
D15*
X57429047Y-45356190D02*
X57429047Y-45760952D01*
X57452857Y-45808571D01*
X57476666Y-45832380D01*
X57524285Y-45856190D01*
X57619523Y-45856190D01*
X57667142Y-45832380D01*
X57690952Y-45808571D01*
X57714761Y-45760952D01*
X57714761Y-45356190D01*
X58214761Y-45856190D02*
X57929047Y-45856190D01*
X58071904Y-45856190D02*
X58071904Y-45356190D01*
X58024285Y-45427619D01*
X57976666Y-45475238D01*
X57929047Y-45499047D01*
X81516666Y-50426190D02*
X81350000Y-50188095D01*
X81230952Y-50426190D02*
X81230952Y-49926190D01*
X81421428Y-49926190D01*
X81469047Y-49950000D01*
X81492857Y-49973809D01*
X81516666Y-50021428D01*
X81516666Y-50092857D01*
X81492857Y-50140476D01*
X81469047Y-50164285D01*
X81421428Y-50188095D01*
X81230952Y-50188095D01*
X81945238Y-50092857D02*
X81945238Y-50426190D01*
X81826190Y-49902380D02*
X81707142Y-50259523D01*
X82016666Y-50259523D01*
X81416666Y-44826190D02*
X81250000Y-44588095D01*
X81130952Y-44826190D02*
X81130952Y-44326190D01*
X81321428Y-44326190D01*
X81369047Y-44350000D01*
X81392857Y-44373809D01*
X81416666Y-44421428D01*
X81416666Y-44492857D01*
X81392857Y-44540476D01*
X81369047Y-44564285D01*
X81321428Y-44588095D01*
X81130952Y-44588095D01*
X81583333Y-44326190D02*
X81892857Y-44326190D01*
X81726190Y-44516666D01*
X81797619Y-44516666D01*
X81845238Y-44540476D01*
X81869047Y-44564285D01*
X81892857Y-44611904D01*
X81892857Y-44730952D01*
X81869047Y-44778571D01*
X81845238Y-44802380D01*
X81797619Y-44826190D01*
X81654761Y-44826190D01*
X81607142Y-44802380D01*
X81583333Y-44778571D01*
X63501666Y-42926190D02*
X63335000Y-42688095D01*
X63215952Y-42926190D02*
X63215952Y-42426190D01*
X63406428Y-42426190D01*
X63454047Y-42450000D01*
X63477857Y-42473809D01*
X63501666Y-42521428D01*
X63501666Y-42592857D01*
X63477857Y-42640476D01*
X63454047Y-42664285D01*
X63406428Y-42688095D01*
X63215952Y-42688095D01*
X63692142Y-42473809D02*
X63715952Y-42450000D01*
X63763571Y-42426190D01*
X63882619Y-42426190D01*
X63930238Y-42450000D01*
X63954047Y-42473809D01*
X63977857Y-42521428D01*
X63977857Y-42569047D01*
X63954047Y-42640476D01*
X63668333Y-42926190D01*
X63977857Y-42926190D01*
X57016666Y-39736190D02*
X56850000Y-39498095D01*
X56730952Y-39736190D02*
X56730952Y-39236190D01*
X56921428Y-39236190D01*
X56969047Y-39260000D01*
X56992857Y-39283809D01*
X57016666Y-39331428D01*
X57016666Y-39402857D01*
X56992857Y-39450476D01*
X56969047Y-39474285D01*
X56921428Y-39498095D01*
X56730952Y-39498095D01*
X57492857Y-39736190D02*
X57207142Y-39736190D01*
X57350000Y-39736190D02*
X57350000Y-39236190D01*
X57302380Y-39307619D01*
X57254761Y-39355238D01*
X57207142Y-39379047D01*
X75630952Y-40226190D02*
X75630952Y-39726190D01*
X75750000Y-39726190D01*
X75821428Y-39750000D01*
X75869047Y-39797619D01*
X75892857Y-39845238D01*
X75916666Y-39940476D01*
X75916666Y-40011904D01*
X75892857Y-40107142D01*
X75869047Y-40154761D01*
X75821428Y-40202380D01*
X75750000Y-40226190D01*
X75630952Y-40226190D01*
X76392857Y-40226190D02*
X76107142Y-40226190D01*
X76250000Y-40226190D02*
X76250000Y-39726190D01*
X76202380Y-39797619D01*
X76154761Y-39845238D01*
X76107142Y-39869047D01*
X72901666Y-53908571D02*
X72877857Y-53932380D01*
X72806428Y-53956190D01*
X72758809Y-53956190D01*
X72687380Y-53932380D01*
X72639761Y-53884761D01*
X72615952Y-53837142D01*
X72592142Y-53741904D01*
X72592142Y-53670476D01*
X72615952Y-53575238D01*
X72639761Y-53527619D01*
X72687380Y-53480000D01*
X72758809Y-53456190D01*
X72806428Y-53456190D01*
X72877857Y-53480000D01*
X72901666Y-53503809D01*
X73092142Y-53503809D02*
X73115952Y-53480000D01*
X73163571Y-53456190D01*
X73282619Y-53456190D01*
X73330238Y-53480000D01*
X73354047Y-53503809D01*
X73377857Y-53551428D01*
X73377857Y-53599047D01*
X73354047Y-53670476D01*
X73068333Y-53956190D01*
X73377857Y-53956190D01*
X63579166Y-51528571D02*
X63555357Y-51552380D01*
X63483928Y-51576190D01*
X63436309Y-51576190D01*
X63364880Y-51552380D01*
X63317261Y-51504761D01*
X63293452Y-51457142D01*
X63269642Y-51361904D01*
X63269642Y-51290476D01*
X63293452Y-51195238D01*
X63317261Y-51147619D01*
X63364880Y-51100000D01*
X63436309Y-51076190D01*
X63483928Y-51076190D01*
X63555357Y-51100000D01*
X63579166Y-51123809D01*
X64055357Y-51576190D02*
X63769642Y-51576190D01*
X63912500Y-51576190D02*
X63912500Y-51076190D01*
X63864880Y-51147619D01*
X63817261Y-51195238D01*
X63769642Y-51219047D01*
D10*
M02*
